ply
format ascii 1.0
comment Created in Blender version 4.1.1
element vertex 407
property float x
property float y
property float z
property float nx
property float ny
property float nz
property float s
property float t
element face 444
property list uchar uint vertex_indices
end_header
0.16699092 -1.0507731 1.444186 0.0817268 0.68626136 0.4106345 0.96875 0.5
0.15674242 -1.1558378 1.4451954 4.4601398e-07 -0.68631244 0.41818017 1 1
0.15674242 -1.0507731 1.4451954 -2.305645e-07 0.68628305 0.41819608 1 0.5
0.17684561 -1.0507731 1.4411967 0.1608464 0.68610805 0.38814113 0.9375 0.5
0.16699092 -1.1558378 1.444186 0.08173107 -0.68632674 0.4105976 0.96875 1
0.18592775 -1.0507731 1.4363421 0.23472647 0.68594104 0.3510898 0.90625 0.5
0.17684561 -1.1558378 1.4411967 0.16085827 -0.6861431 0.38811594 0.9375 1
0.1938883 -1.0507731 1.4298091 0.3005645 0.6856754 0.30043972 0.875 0.5
0.18592775 -1.1558378 1.4363421 0.23471299 -0.6859126 0.35111663 0.90625 1
0.20042141 -1.0507731 1.4218485 0.35564882 0.685434 0.2374929 0.84375 0.5
0.1938883 -1.1558378 1.4298091 0.30058947 -0.6856788 0.30041358 0.875 1
0.20527588 -1.0507731 1.4127663 0.3972602 0.685248 0.16445065 0.8125 0.5
0.20042141 -1.1558378 1.4218485 0.35563686 -0.68546057 0.23748423 0.84375 1
0.20826527 -1.0507731 1.4029117 0.42324242 0.68509376 0.08413702 0.78125 0.5
0.20527588 -1.1558378 1.4127663 0.39726418 -0.68523884 0.16445409 0.8125 1
0.20927466 -1.0507731 1.3926631 0.43207332 0.6850508 3.7212052e-07 0.75 0.5
0.20826527 -1.1558378 1.4029117 0.4232381 -0.6851018 0.08413517 0.78125 1
0.20826527 -1.0507731 1.3824146 0.42325225 0.6850757 -0.08413869 0.71875 0.5
0.20927466 -1.1558378 1.3926631 0.43208775 -0.6850249 -5.9334565e-07 0.75 1
0.20527588 -1.0507731 1.3725599 0.39726034 0.6852479 -0.1644503 0.6875 0.5
0.20826527 -1.1558378 1.3824146 0.42323813 -0.68510157 -0.08413609 0.71875 1
0.20042141 -1.0507731 1.3634777 0.35563943 0.6854521 -0.23748876 0.65625 0.5
0.20527588 -1.1558378 1.3725599 0.39726323 -0.685238 -0.16445738 0.6875 1
0.1938883 -1.0507731 1.3555171 0.30056503 0.6856753 -0.30043924 0.625 0.5
0.20042141 -1.1558378 1.3634777 0.35563633 -0.6854606 -0.23748502 0.65625 1
0.18592775 -1.0507731 1.3489841 0.23473375 0.6859181 -0.35110006 0.59375 0.5
0.1938883 -1.1558378 1.3555171 0.30058834 -0.6856784 -0.30041504 0.625 1
0.17684561 -1.1558378 1.3441296 0.16085742 -0.6861409 -0.3881176 0.5625 1
0.18592775 -1.1558378 1.348984 0.23471217 -0.68591374 -0.35111633 0.59375 1
0.16699092 -1.0507731 1.3411403 0.0817262 0.6862725 -0.41062844 0.53125 0.5
0.17684561 -1.0507731 1.3441296 0.16084608 0.68611103 -0.38813943 0.5625 0.5
0.15674242 -1.0507731 1.3401308 4.7435915e-07 0.68628305 -0.4181961 0.5 0.5
0.16699092 -1.1558378 1.3411403 0.081730396 -0.6863266 -0.4105977 0.53125 1
0.14649387 -1.0507731 1.3411403 -0.08172667 0.6862614 -0.4106345 0.46875 0.5
0.15674242 -1.1558378 1.3401308 -2.5897586e-07 -0.68631244 -0.4181801 0.5 1
0.13663918 -1.0507731 1.3441296 -0.1608464 0.68610805 -0.38814113 0.4375 0.5
0.14649387 -1.1558378 1.3411403 -0.081731014 -0.6863266 -0.41059768 0.46875 1
0.12755704 -1.0507731 1.3489841 -0.23472504 0.68594116 -0.35109058 0.40625 0.5
0.13663918 -1.1558378 1.3441296 -0.16085713 -0.68614393 -0.38811597 0.4375 1
0.11959644 -1.0507731 1.3555171 -0.3005643 0.68567497 -0.30044016 0.375 0.5
0.12755704 -1.1558378 1.348984 -0.23471339 -0.6859111 -0.3511173 0.40625 1
0.11306338 -1.0507731 1.3634777 -0.35564893 0.68543524 -0.23749141 0.34375 0.5
0.11959644 -1.1558378 1.3555171 -0.30059123 -0.6856805 -0.30041075 0.375 1
0.108208865 -1.0507731 1.3725599 -0.39726606 0.6852558 -0.16442643 0.3125 0.5
0.11306338 -1.1558378 1.3634777 -0.35563585 -0.68546146 -0.23748478 0.34375 1
0.105219506 -1.0507731 1.3824146 -0.42324194 0.6850949 -0.084136024 0.28125 0.5
0.108208865 -1.1558378 1.3725599 -0.39726424 -0.6852381 -0.16445483 0.3125 1
0.10421007 -1.0507731 1.3926631 -0.4320739 0.68504995 -2.395105e-07 0.25 0.5
0.105219506 -1.1558378 1.3824146 -0.42323753 -0.6851026 -0.08413573 0.28125 1
0.105219506 -1.0507731 1.4029117 -0.42325175 0.6850768 0.08413828 0.21875 0.5
0.10421007 -1.1558378 1.3926631 -0.43208838 -0.6850239 9.64793e-07 0.25 1
0.108208865 -1.0507731 1.4127663 -0.3972634 0.68525136 0.16443856 0.1875 0.5
0.105219506 -1.1558378 1.4029117 -0.42323735 -0.685103 0.08413545 0.21875 1
0.11306338 -1.0507731 1.4218485 -0.3556396 0.6854532 0.23748752 0.15625 0.5
0.108208865 -1.1558378 1.4127663 -0.39726394 -0.6852369 0.16445738 0.1875 1
0.11959644 -1.0507731 1.4298091 -0.30056608 0.6856748 0.3004386 0.125 0.5
0.11306338 -1.1558378 1.4218485 -0.3556355 -0.6854614 0.2374854 0.15625 1
0.12755704 -1.0507731 1.4363421 -0.2347325 0.6859215 0.3510986 0.09375 0.5
0.11959644 -1.1558378 1.4298091 -0.30058905 -0.6856786 0.30041414 0.125 1
0.13663918 -1.0507731 1.4411967 -0.16084705 0.686108 0.3881409 0.0625 0.5
0.12755704 -1.1558378 1.4363421 -0.23471159 -0.68591297 0.35111725 0.09375 1
0.15674242 -1.1558378 1.3401308 -2.5897586e-07 -0.68631244 -0.4181801 0.75 0.010000005
0.10421007 -1.1558378 1.3926631 -0.43208838 -0.6850239 9.64793e-07 0.51 0.25
0.15674242 -1.1558378 1.4451954 4.4601398e-07 -0.68631244 0.41818017 0.75 0.49
0.14649387 -1.0507731 1.444186 -0.08172608 0.6862725 0.41062844 0.03125 0.5
0.13663918 -1.1558378 1.4411967 -0.16085765 -0.6861431 0.3881162 0.0625 1
0.15674242 -1.0507731 1.4451954 -2.305645e-07 0.68628305 0.41819608 0 0.5
0.14649387 -1.1558378 1.444186 -0.08173031 -0.68632656 0.41059783 0.03125 1
0.14649387 -1.0507731 1.3411403 -0.08172667 0.6862614 -0.4106345 0.20317832 0.014611542
0.20826527 -1.0507731 1.3824146 0.42325225 0.6850757 -0.08413869 0.48538846 0.20317832
0.16699092 -1.0507731 1.444186 0.0817268 0.68626136 0.4106345 0.29682168 0.48538846
-0.13086587 -1.0507731 1.444186 0.112362385 0 0.5645584 0.96875 0.5
-0.14111437 -1.1558378 1.4451954 4.4601398e-07 -0.68631244 0.41818017 1 1
-0.14111437 -1.0507731 1.4451954 -3.1703868e-07 0 0.57497066 1 0.5
-0.12101117 -1.0507731 1.4411967 0.22112034 0 0.5335176 0.9375 0.5
-0.13086587 -1.1558378 1.444186 0.08173107 -0.68632674 0.4105976 0.96875 1
-0.11192903 -1.0507731 1.4363421 0.32258058 0 0.4824921 0.90625 0.5
-0.12101117 -1.1558378 1.4411967 0.16085827 -0.6861431 0.38811594 0.9375 1
-0.10396848 -1.0507731 1.4298091 0.4129527 0 0.41270968 0.875 0.5
-0.11192903 -1.1558378 1.4363421 0.23471299 -0.68591255 0.35111663 0.90625 1
-0.09743538 -1.0507731 1.4218485 0.4884373 0 0.32616726 0.84375 0.5
-0.10396848 -1.1558378 1.4298091 0.30058947 -0.6856788 0.30041358 0.875 1
-0.092580914 -1.0507731 1.4127663 0.54545486 0 0.22579762 0.8125 0.5
-0.09743538 -1.1558378 1.4218485 0.3556369 -0.68546057 0.23748426 0.84375 1
-0.0895915 -1.0507731 1.4029117 0.5810138 -4.213743e-08 0.11550065 0.78125 0.5
-0.092580914 -1.1558378 1.4127663 0.39726418 -0.68523884 0.16445409 0.8125 1
-0.08858212 -1.0507731 1.3926631 0.5931038 -3.7379827e-08 5.1080707e-07 0.75 0.5
-0.0895915 -1.1558378 1.4029117 0.4232381 -0.6851019 0.08413517 0.78125 1
-0.0895915 -1.0507731 1.3824146 0.5810139 0 -0.115500145 0.71875 0.5
-0.08858212 -1.1558378 1.3926631 0.43208775 -0.685025 -5.933447e-07 0.75 1
-0.092580914 -1.0507731 1.3725599 0.5454551 0 -0.22579716 0.6875 0.5
-0.0895915 -1.1558378 1.3824146 0.42323813 -0.6851015 -0.08413609 0.71875 1
-0.09743538 -1.0507731 1.3634777 0.4884379 0 -0.3261665 0.65625 0.5
-0.092580914 -1.1558378 1.3725599 0.39726323 -0.685238 -0.16445738 0.6875 1
-0.10396848 -1.0507731 1.3555171 0.4129534 0 -0.41270903 0.625 0.5
-0.09743538 -1.1558378 1.3634777 0.35563633 -0.68546057 -0.23748502 0.65625 1
-0.11192903 -1.0507731 1.3489841 0.32258275 2.6267517e-07 -0.48249066 0.59375 0.5
-0.10396848 -1.1558378 1.3555171 0.30058834 -0.68567836 -0.30041504 0.625 1
-0.12101117 -1.0507731 1.3441296 0.22112253 2.4490296e-07 -0.53351676 0.5625 0.5
-0.11192903 -1.1558378 1.348984 0.23471192 -0.6859109 -0.35111842 0.59375 1
-0.13086587 -1.0507731 1.3411403 0.11236332 0 -0.5645582 0.53125 0.5
-0.12101117 -1.1558378 1.3441296 0.1608554 -0.686144 -0.38811663 0.5625 1
-0.14111437 -1.0507731 1.3401308 6.5226953e-07 0 -0.57497066 0.5 0.5
-0.13086587 -1.1558378 1.3411403 0.081730396 -0.6863266 -0.4105977 0.53125 1
-0.15136291 -1.0507731 1.3411403 -0.11236222 0 -0.5645584 0.46875 0.5
-0.14111437 -1.1558378 1.3401308 -2.5897586e-07 -0.68631244 -0.4181801 0.5 1
-0.16121762 -1.0507731 1.3441296 -0.22112034 0 -0.5335176 0.4375 0.5
-0.15136291 -1.1558378 1.3411403 -0.081731014 -0.6863267 -0.41059768 0.46875 1
-0.17029975 -1.0507731 1.3489841 -0.32257867 2.4556385e-07 -0.48249322 0.40625 0.5
-0.16121762 -1.1558378 1.3441296 -0.16085713 -0.686144 -0.38811597 0.4375 1
-0.17826036 -1.0507731 1.3555171 -0.4129522 2.2851562e-07 -0.41271016 0.375 0.5
-0.17029975 -1.1558378 1.348984 -0.23471339 -0.6859111 -0.3511173 0.40625 1
-0.1847934 -1.0507731 1.3634777 -0.48843777 0 -0.32616666 0.34375 0.5
-0.17826036 -1.1558378 1.3555171 -0.30059123 -0.68568057 -0.30041075 0.375 1
-0.18964791 -1.0507731 1.3725599 -0.5454552 0 -0.22579688 0.3125 0.5
-0.1847934 -1.1558378 1.3634777 -0.35563585 -0.68546146 -0.23748478 0.34375 1
-0.19263728 -1.0507731 1.3824146 -0.5810138 0 -0.115500614 0.28125 0.5
-0.18964791 -1.1558378 1.3725599 -0.39726424 -0.6852382 -0.16445483 0.3125 1
-0.19364671 -1.0507731 1.3926631 -0.5931038 0 -3.287739e-07 0.25 0.5
-0.19263728 -1.1558378 1.3824146 -0.42323753 -0.6851025 -0.08413573 0.28125 1
-0.19263728 -1.0507731 1.4029117 -0.58101386 -9.341777e-08 0.11550031 0.21875 0.5
-0.19364671 -1.1558378 1.3926631 -0.43208838 -0.6850239 9.647919e-07 0.25 1
-0.18964791 -1.0507731 1.4127663 -0.5454551 -9.0056844e-08 0.22579716 0.1875 0.5
-0.19263728 -1.1558378 1.4029117 -0.42323735 -0.685103 0.08413545 0.21875 1
-0.1847934 -1.0507731 1.4218485 -0.4884385 0 0.32616565 0.15625 0.5
-0.18964791 -1.1558378 1.4127663 -0.39726394 -0.68523693 0.16445738 0.1875 1
-0.17826036 -1.0507731 1.4298091 -0.4129546 0 0.41270792 0.125 0.5
-0.1847934 -1.1558378 1.4218485 -0.3556355 -0.6854614 0.2374854 0.15625 1
-0.17029975 -1.0507731 1.4363421 -0.32258072 0 0.48249194 0.09375 0.5
-0.17826036 -1.1558378 1.4298091 -0.30058905 -0.6856786 0.30041414 0.125 1
-0.16121762 -1.0507731 1.4411967 -0.22112127 0 0.5335173 0.0625 0.5
-0.17029975 -1.1558378 1.4363421 -0.23471159 -0.685913 0.35111725 0.09375 1
-0.14111437 -1.1558378 1.3401308 -2.5897586e-07 -0.68631244 -0.4181801 0.75 0.010000005
-0.19364671 -1.1558378 1.3926631 -0.43208838 -0.6850239 9.647919e-07 0.51 0.25
-0.14111437 -1.1558378 1.4451954 4.4601398e-07 -0.68631244 0.41818017 0.75 0.49
-0.15136291 -1.0507731 1.444186 -0.11236317 0 0.5645582 0.03125 0.5
-0.16121762 -1.1558378 1.4411967 -0.16085765 -0.68614316 0.3881162 0.0625 1
-0.14111437 -1.0507731 1.4451954 -3.1703868e-07 0 0.57497066 0 0.5
-0.15136291 -1.1558378 1.444186 -0.08173031 -0.68632656 0.41059783 0.03125 1
6.1551857 -1.2515395 3.115881 0 -1 1.058928e-07 0.38948637 0.7500224
7.444078 -1.2515395 2.3347707 0 -1 2.433994e-08 0.44492307 0.7500156
6.1543097 -1.2515395 2.33496 0 -1 3.370508e-08 0.44828194 0.7500972
6.152558 -1.2515395 0.773118 0 -1 3.3661294e-08 0.56587315 0.7502469
7.4435015 -1.2515395 -0.008560181 0 -1 1.245296e-07 0.61278796 0.7500329
6.151682 -1.2515395 -0.007802844 0 -1 2.7608959e-08 0.6246687 0.7503217
6.153434 -1.2515395 1.554039 0 -1 6.3664857e-10 0.5070776 0.750172
7.4436936 -1.2515395 0.77255017 0 -1 9.0274575e-08 0.556833 0.7500271
7.443886 -1.2515395 1.5536604 0 -1 -9.387967e-09 0.50087804 0.75002134
2.2791517 -1.2515395 0.7748219 0 -1 -5.4049394e-08 0.59299344 0.7509061
3.5680437 -1.2515395 -0.00628829 0 -1 -9.760905e-09 0.6484301 0.7508993
2.2762244 -1.2515395 -0.0055310726 0 -1 -1.9938176e-07 0.66031086 0.7511881
3.570287 -1.2515395 0.774254 0 -1 4.5201098e-08 0.5839533 0.7506864
4.859863 -1.2515395 -0.0070456266 0 -1 -7.102779e-09 0.6365494 0.7506105
4.8614225 -1.2515395 0.773686 0 -1 -3.481608e-08 0.5749132 0.75046664
2.282079 -1.2515395 1.555175 0 -1 7.842279e-08 0.525676 0.7506241
3.5725307 -1.2515395 1.5547963 0 -1 -4.221068e-09 0.51947653 0.7504734
4.8629823 -1.2515395 1.5544176 0 -1 -3.4923907e-08 0.51327705 0.7503227
2.285006 -1.2515395 2.335528 0 -1 4.4714128e-08 0.45835865 0.75034213
3.5747738 -1.2515395 2.3353386 0 -1 2.835611e-08 0.45499974 0.7502605
4.864542 -1.2515395 2.3351493 0 -1 -1.844056e-09 0.45164084 0.7501788
2.2879333 -1.2515395 3.115881 0 -1 2.4760464e-08 0.39104125 0.7500602
3.5770173 -1.2515395 3.115881 0 -1 9.921606e-08 0.39052296 0.7500476
4.8661017 -1.2515395 3.115881 0 -1 3.4009757e-09 0.39000466 0.750035
0 -1.0030597 2.8213112 0 0.7070986 0.40657035 0.4008415 0.875
1.337486 -1.0030597 0.06197703 0.34243596 0.57733506 -0.33196118 0.5991585 0.77584153
1.337486 -1.0030597 2.8213112 0.342427 0.5773474 0.33196276 0.4008415 0.77584153
-1.337486 -1.0030597 2.8213112 -0.34243596 0.57733506 0.33196118 0.4008415 0.9741585
0 -1.0030597 0.06197703 0 0.7070986 -0.40657035 0.5991585 0.875
1.337486 -1.0700451 0.06197703 0.34243056 -0.5773353 -0.33196622 0.5991585 0.77584153
0 -1.0700451 2.8213112 0 -0.7070986 0.40657035 0.4008415 0.875
1.337486 -1.0700451 2.8213112 0.34243235 -0.5773471 0.33195767 0.4008415 0.77584153
0 -1.0700451 0.06197703 0 -0.7070986 -0.40657035 0.5991585 0.875
-1.337486 -1.0700451 2.8213112 -0.34243056 -0.5773353 0.33196622 0.4008415 0.9741585
-1.337486 -1.0030597 0.06197703 -0.342427 0.5773474 -0.33196276 0.5991585 0.9741585
-1.337486 -1.0700451 0.06197703 -0.34243235 -0.5773471 -0.33195767 0.5991585 0.9741585
5.8602676 -1 5.730666 0.41939354 0 0.40656006 0.375 0.75
4.2433906 -1.2042227 5.730666 -0.34242705 -0.57737154 0.33194882 0.37500006 0.7500001
4.2433906 -1 5.730666 -0.4193809 0 0.40657225 0.37500006 0.7500001
4.2433906 -1.2042227 4.171386 -0.3424164 -0.5773731 -0.33195826 0.375 0.75
4.2433906 -1 4.171386 -0.41939354 0 -0.40656006 0.375 0.75
5.8602676 -1.2042227 4.171386 0.34242705 -0.57737154 -0.33194882 0.375 0.75
5.8602676 -1 4.171386 0.4193809 0 -0.40657225 0.375 0.75
5.8602676 -1.2042227 5.730666 0.3424164 -0.5773731 0.33195826 0.375 0.75
5.7450123 -1.2042227 4.290276 -0.17883234 -0.90452975 0.17336303 0.375 0.75
5.7450123 -1.1257037 5.6117754 -0.41938996 0 -0.40656352 0.375 0.75
5.7450123 -1.2042227 5.6117754 -0.17883104 -0.90453255 -0.17335935 0.375 0.75
4.358646 -1.2042227 4.290276 0.17883104 -0.90453255 0.17335935 0.37500003 0.75000006
4.358646 -1.2042227 5.6117754 0.17883234 -0.90452975 -0.17336303 0.37500003 0.75000006
5.051829 -1.1257037 4.290276 0 0 0.57497066 0.375 0.75
5.7450123 -1.1257037 4.290276 -0.41938522 0 0.40656814 0.375 0.75
4.358646 -1.1257037 4.290276 0.41938996 0 0.40656352 0.37500003 0.75000006
5.051829 -1.1257037 5.6117754 0 0 -0.57497066 0.375 0.75
4.358646 -1.1257037 5.6117754 0.41938522 0 -0.40656814 0.37500003 0.75000006
0.7285969 3.2455769 5.9092207 0.13008943 -5.364721e-09 0.5609697 0.25 0.625
2.10569 -1 3.4692187 0.47262943 0.38383412 0.26824835 0.375 0.75
0.728597 -1.0095663 5.9092207 0.10255442 -0.3772657 0.5231197 0.25 0.75
-2.7195594 7.4911537 3.4692187 -0.33550918 0 0.47413364 0.375 0.25
-2.7195594 7.9054093 3.4692187 -0.28339607 0.3579362 0.46125796 0.375 0.25
0.7285968 7.4911537 5.9092207 0.103011824 0.4359629 0.5077257 0.25 0.5
-1.6860454 7.9054093 3.4692187 0 0.9590629 0.16282766 0.375 0.25
2.10569 7.4911537 3.4692187 0.44649813 -0.4911036 0.2519953 0.375 0.5
-1.6860454 -1.6134601 3.4692187 0 -0.9185185 0.22733077 0.375 1
-2.7195594 -1.6134601 3.4692187 -0.26983213 -0.35579428 0.46937883 0.375 1
3.1432393 7.9054093 3.4692187 0.38923314 0.19746596 0.4187128 0.375 0.5
-2.7195594 -1 3.4692187 -0.33550894 0 0.4741338 0.375 1
-2.7195594 -1 3.4692187 -0.33550894 0 0.4741338 0.375 0
-2.7195594 3.2455769 3.4692187 -0.33550897 -7.511045e-09 0.47413376 0.375 0.125
3.1432393 -1.6134601 3.4692187 0.36698696 -0.2571184 0.4268089 0.375 0.75
8.466923 7.4911537 6.4328327 0.49337274 0 0.31910998 0.375 0.5
7.6272373 7.4955816 7.731062 0.22480059 0.35879532 0.4904492 0.375 0.5
8.466923 8.04085 6.4328327 0.29528862 0.5077473 0.404249 0.375 0.5
2.10569 -0.988428 7.731062 -0.2408853 -0.39674208 0.4733106 0.375 0.75
7.6272373 -1.0003287 7.731062 0.2220877 -0.4054826 0.47946182 0.375 0.75
1.3906159 -1 6.4328327 -0.51567876 0 0.28403968 0.375 0.75
1.3906159 -1.4296967 6.4328327 -0.32302478 -0.5490109 0.36453342 0.375 0.75
1.3906159 7.4911537 6.4328327 -0.51567876 0 0.28403968 0.375 0.5
8.466923 -1 6.4328327 0.49337277 0 0.31910998 0.375 0.75
7.6272373 -1.4296967 6.4328327 0 -0.8668245 0.28668812 0.375 0.75
8.466923 -1.4296967 6.4328327 0.31973198 -0.5227709 0.37969854 0.375 0.75
2.10569 -1.4296967 6.4328327 -0.000775839 -0.86132574 0.2921147 0.375 0.75
7.6272373 8.04085 6.4328327 6.380082e-05 0.80754715 0.33911943 0.375 0.5
2.10569 7.4966393 7.731062 -0.24301332 0.35679248 0.4827081 0.375 0.5
2.10569 8.04085 6.4328327 0 0.80804443 0.33872762 0.375 0.5
1.3906159 8.04085 6.4328327 -0.3004792 0.5338112 0.38927683 0.375 0.5
-1.6860454 7.4911537 -0.00921917 -0.34243348 0.5773584 -0.33195007 0.875 0.5
2.0923204 -1 -0.00921917 -0.178602 -0.30347112 -0.51977646 0.67811245 0.7512911
2.0923204 7.4911537 -0.00921917 0 0.7071164 -0.4065601 0.6550594 0.47565597
-1.337486 -1 0.06197691 0.1788274 -0.90454024 0.17334957 0.5991585 0.9741585
0 -0.7735371 0.06197691 0 0 0.57497066 0.5991585 0.875
1.337486 -0.7735371 0.06197691 -0.41938818 0 0.4065652 0.5991585 0.77584153
-1.6860454 -1 -0.00921917 -0.34241858 -0.5773379 -0.33197626 0.625 0
-1.6860454 7.4911537 3.4692187 -0.17882024 0.30152538 -0.5200802 0.375 0.25
-1.6860454 3.2455769 3.4692187 -0.41938806 0 -0.40656537 0.375 0.125
2.10569 7.4911537 3.4692187 -0.16686751 0.8440389 -0.26250583 0.375 0.5
-1.337486 -1 2.821311 0.1788283 -0.90453297 -0.17336129 0.4008415 0.9741585
-1.6860454 -1 -0.00921917 -0.34241858 -0.5773379 -0.33197626 0.625 1
-1.6860454 -1 3.4692187 -0.17882778 -0.3015099 -0.5200807 0.375 1
1.337486 -1 2.821311 -0.1788308 -0.90453637 -0.17335288 0.4008415 0.77584153
1.337486 -1 0.06197691 -0.17882782 -0.9045335 0.17336082 0.5991585 0.77584153
2.10569 -1 3.4692187 -0.4133074 -0.6959905 -0.099571355 0.375 0.75
-1.337486 -0.7735371 0.06197691 0.41938728 0 0.40656608 0.5991585 0.9741585
0 -0.7735371 2.821311 0 0 -0.57497066 0.4008415 0.875
-1.337486 -0.7735371 2.821311 0.41938818 0 -0.4065652 0.4008415 0.9741585
1.337486 -0.7735371 2.821311 -0.41938728 0 -0.40656608 0.4008415 0.77584153
2.0923204 -1.5191454 -0.00921917 -0.34011614 -0.576145 -0.33487323 0.67811245 0.7512911
7.6272373 7.4911537 -0.00921917 0.34242666 0.57736635 -0.3319521 0.625 0.5
7.6272373 -1 3.4692187 0.53648496 -0.3014945 0.17336299 0.375 0.75
7.6272373 7.4911537 3.4692187 0.4193905 0.7071021 -0 0.375 0.5
7.6272373 7.4911537 6.4328327 0.1788243 0.30151296 -0.5200813 0.375 0.5
2.10569 3.2455769 3.4692187 -0.5931038 0 0 0.375 0.625
2.10569 7.4911537 6.4328327 -0.17881723 0.30150113 -0.5200859 0.375 0.5
2.10569 -1 6.4328327 -0.17881937 -0.30151138 -0.5200831 0.375 0.75
-1.6860454 -1.6134601 3.4692187 0 0 -0.57497066 0.375 1
3.1432393 -1.6134601 3.4692187 0 0 -0.57497066 0.375 0.75
-1.6860454 7.9054093 3.4692187 0 0 -0.57497066 0.375 0.25
-2.7195594 7.4911537 3.4692187 0 0 -0.57497066 0.375 0.25
-2.7195594 3.2455769 3.4692187 0 0 -0.57497066 0.375 0.125
-1.6860454 -1 3.4692187 -0.17882778 -0.3015099 -0.5200807 0.375 0
-2.7195594 7.9054093 3.4692187 0 0 -0.57497066 0.375 0.25
-2.7195594 -1 3.4692187 0 0 -0.57497066 0.375 1
4.2433906 -1 4.171386 0 -1 0 0.375 0.75
4.2433906 -1 5.730666 0 -1 0 0.37500006 0.7500001
7.6272373 -1 6.4328327 0.1788247 -0.30149883 -0.52008384 0.375 0.75
5.8602676 -1 5.730666 0 -1 0 0.375 0.75
5.8602676 -1 4.171386 0 -1 0 0.375 0.75
7.4442697 -1.5191454 3.1158805 -0.17882493 -0.9045699 -0.1733008 0.3889681 0.75000983
4.8661017 -1.2515395 3.1158805 0 -1.9817215e-07 -0.57497066 0.39000466 0.750035
3.5770173 -1.2515395 3.1158805 0 -2.2273359e-07 -0.57497066 0.39052296 0.7500476
7.6272373 -1 -0.00921917 0.4193834 0 -0.4065699 0.625 0.75
7.6272373 -1.5191454 3.4692187 0.3424218 -0.57734954 0.33196655 0.375 0.75
2.10569 -1.5191454 3.4692187 -0.34169057 -0.57755256 0.33255738 0.375 0.75
2.2762244 -1.5191454 -0.0055314302 0.34352332 -0.580988 -0.32878318 0.67811245 0.7512911
7.6272373 -1.5191454 -0.00921917 0.34241298 -0.5773695 -0.33196363 0.625 0.75
8.466923 -1.4296967 6.4328327 0 0 -0.57497066 0.375 0.75
8.466923 -1 6.4328327 0 0 -0.57497066 0.375 0.75
7.6272373 -1.4296967 6.4328327 0 0 -0.57497066 0.375 0.75
2.10569 8.04085 6.4328327 0 0 -0.57497066 0.375 0.5
8.466923 7.4911537 6.4328327 0 0 -0.57497066 0.375 0.5
7.6272373 8.04085 6.4328327 0 0 -0.57497066 0.375 0.5
1.3906159 -1 6.4328327 0 0 -0.57497066 0.375 0.75
2.10569 -1.4296967 6.4328327 0 0 -0.57497066 0.375 0.75
1.3906159 8.04085 6.4328327 0 0 -0.57497066 0.375 0.5
1.3906159 7.4911537 6.4328327 0 0 -0.57497066 0.375 0.5
2.2879333 -1.5191454 3.1158805 0.17886972 -0.9040875 -0.17408781 0.39104125 0.7500602
7.4435015 -1.5191454 -0.008560538 -0.17868906 -0.9044815 0.17358473 0.61278796 0.7500329
2.282079 -1.2515395 1.5551746 0.59309936 -9.157568e-08 -0.0022248125 0.525676 0.7506241
2.2791517 -1.2515395 0.7748216 0.59309936 -3.7232874e-06 -0.0022248246 0.59299344 0.7509061
3.5680437 -1.2515395 -0.0062886477 0.00033707786 0.000109872475 0.57497054 0.6648343 0.75096834
6.151682 -1.2515395 -0.0078032017 0.0003370785 0.000109872475 0.57497054 0.6382781 0.75032276
7.443886 -1.2515395 1.5536602 -0.59310377 1.0622825e-05 0.00014590005 0.50087804 0.75002134
7.444078 -1.2515395 2.3347702 -0.5931038 -6.697202e-06 0.00014590002 0.44492307 0.7500156
5.051829 -1.1257037 4.290276 0 -1 0 0.375 0.75
5.7450123 -1.1257037 5.6117754 0 -1 0 0.375 0.75
5.7450123 -1.1257037 4.290276 0 -1 0 0.375 0.75
4.358646 -1.1257037 5.6117754 0 -1 0 0.37500003 0.75000006
5.051829 -1.1257037 5.6117754 0 -1 0 0.375 0.75
0.16699092 -1.1558378 1.444186 0.08173107 -0.68632674 0.4105976 0.79682165 0.48538846
0.17684561 -1.1558378 1.4411967 0.16085827 -0.6861431 0.38811594 0.841844 0.47173107
0.18592775 -1.1558378 1.4363421 0.23471299 -0.6859126 0.35111663 0.88333684 0.4495527
0.1938883 -1.1558378 1.4298091 0.30058947 -0.6856788 0.30041358 0.9197056 0.41970563
0.20042141 -1.1558378 1.4218485 0.35563686 -0.68546057 0.23748423 0.9495527 0.38333684
0.20527588 -1.1558378 1.4127663 0.39726418 -0.68523884 0.16445409 0.97173107 0.34184402
0.20826527 -1.1558378 1.4029117 0.4232381 -0.6851018 0.08413517 0.98538846 0.29682168
0.20927466 -1.1558378 1.3926631 0.43208775 -0.6850249 -5.9334565e-07 0.99 0.25
0.20826527 -1.1558378 1.3824146 0.42323813 -0.68510157 -0.08413609 0.98538846 0.20317832
0.20527588 -1.1558378 1.3725599 0.39726323 -0.685238 -0.16445738 0.97173107 0.15815598
0.20042141 -1.1558378 1.3634777 0.35563633 -0.6854606 -0.23748502 0.9495527 0.11666314
0.1938883 -1.1558378 1.3555171 0.30058834 -0.6856784 -0.30041504 0.9197056 0.080294386
0.18592775 -1.1558378 1.348984 0.23471217 -0.68591374 -0.35111633 0.88333684 0.0504473
0.17684561 -1.1558378 1.3441296 0.16085742 -0.6861409 -0.3881176 0.841844 0.028268918
0.16699092 -1.1558378 1.3411403 0.081730396 -0.6863266 -0.4105977 0.79682165 0.014611542
0.14649387 -1.1558378 1.3411403 -0.081731014 -0.6863266 -0.41059768 0.70317835 0.014611542
0.13663918 -1.1558378 1.3441296 -0.16085713 -0.68614393 -0.38811597 0.658156 0.028268918
0.12755704 -1.1558378 1.348984 -0.23471339 -0.6859111 -0.3511173 0.61666316 0.0504473
0.11959644 -1.1558378 1.3555171 -0.30059123 -0.6856805 -0.30041075 0.5802944 0.080294386
0.11306338 -1.1558378 1.3634777 -0.35563585 -0.68546146 -0.23748478 0.5504473 0.11666314
0.108208865 -1.1558378 1.3725599 -0.39726424 -0.6852381 -0.16445483 0.52826893 0.15815598
0.105219506 -1.1558378 1.3824146 -0.42323753 -0.6851026 -0.08413573 0.51461154 0.20317832
0.105219506 -1.1558378 1.4029117 -0.42323735 -0.685103 0.08413545 0.51461154 0.29682168
0.108208865 -1.1558378 1.4127663 -0.39726394 -0.6852369 0.16445738 0.52826893 0.34184402
0.11306338 -1.1558378 1.4218485 -0.3556355 -0.6854614 0.2374854 0.5504473 0.38333684
0.11959644 -1.1558378 1.4298091 -0.30058905 -0.6856786 0.30041414 0.5802944 0.41970563
0.12755704 -1.1558378 1.4363421 -0.23471159 -0.68591297 0.35111725 0.61666316 0.4495527
0.13663918 -1.1558378 1.4411967 -0.16085765 -0.6861431 0.3881162 0.658156 0.47173107
0.14649387 -1.1558378 1.444186 -0.08173031 -0.68632656 0.41059783 0.70317835 0.48538846
0.15674242 -1.1558378 1.4451954 4.4601398e-07 -0.68631244 0.41818017 0 1
0.15674242 -1.0507731 1.4451954 -2.305645e-07 0.68628305 0.41819608 0.25 0.49
0.14649387 -1.0507731 1.444186 -0.08172608 0.6862725 0.41062844 0.20317832 0.48538846
0.13663918 -1.0507731 1.4411967 -0.16084705 0.686108 0.3881409 0.15815598 0.47173107
0.12755704 -1.0507731 1.4363421 -0.2347325 0.6859215 0.3510986 0.11666314 0.4495527
0.11959644 -1.0507731 1.4298091 -0.30056608 0.6856748 0.3004386 0.08029437 0.41970563
0.11306338 -1.0507731 1.4218485 -0.3556396 0.6854532 0.23748752 0.050447285 0.38333684
0.108208865 -1.0507731 1.4127663 -0.3972634 0.68525136 0.16443856 0.028268903 0.34184402
0.105219506 -1.0507731 1.4029117 -0.42325175 0.6850768 0.08413828 0.014611527 0.29682168
0.10421007 -1.0507731 1.3926631 -0.4320739 0.68504995 -2.395105e-07 0.010000005 0.25
0.105219506 -1.0507731 1.3824146 -0.42324194 0.6850949 -0.084136024 0.014611527 0.20317832
0.108208865 -1.0507731 1.3725599 -0.39726606 0.6852558 -0.16442643 0.028268903 0.15815598
0.11306338 -1.0507731 1.3634777 -0.35564893 0.68543524 -0.23749141 0.050447285 0.11666314
0.11959644 -1.0507731 1.3555171 -0.3005643 0.68567497 -0.30044016 0.08029437 0.080294386
0.12755704 -1.0507731 1.3489841 -0.23472504 0.68594116 -0.35109058 0.11666314 0.0504473
0.13663918 -1.0507731 1.3441296 -0.1608464 0.68610805 -0.38814113 0.15815598 0.028268918
0.15674242 -1.0507731 1.3401308 4.7435915e-07 0.68628305 -0.4181961 0.25 0.010000005
0.16699092 -1.0507731 1.3411403 0.0817262 0.6862725 -0.41062844 0.29682168 0.014611542
0.17684561 -1.0507731 1.3441296 0.16084608 0.68611103 -0.38813943 0.34184402 0.028268918
0.18592775 -1.0507731 1.3489841 0.23473375 0.6859181 -0.35110006 0.38333684 0.0504473
0.1938883 -1.0507731 1.3555171 0.30056503 0.6856753 -0.30043924 0.41970563 0.080294386
0.20042141 -1.0507731 1.3634777 0.35563943 0.6854521 -0.23748876 0.4495527 0.11666314
0.20527588 -1.0507731 1.3725599 0.39726034 0.6852479 -0.1644503 0.4717311 0.15815598
0.20927466 -1.0507731 1.3926631 0.43207332 0.6850508 3.7212052e-07 0.49 0.25
0.20826527 -1.0507731 1.4029117 0.42324242 0.68509376 0.08413702 0.48538846 0.29682168
0.20527588 -1.0507731 1.4127663 0.3972602 0.685248 0.16445065 0.4717311 0.34184402
0.20042141 -1.0507731 1.4218485 0.35564882 0.685434 0.2374929 0.4495527 0.38333684
0.1938883 -1.0507731 1.4298091 0.3005645 0.6856754 0.30043972 0.41970563 0.41970563
0.18592775 -1.0507731 1.4363421 0.23472647 0.68594104 0.3510898 0.38333684 0.4495527
0.17684561 -1.0507731 1.4411967 0.1608464 0.68610805 0.38814113 0.34184402 0.47173107
-0.13086587 -1.1558378 1.444186 0.08173107 -0.68632674 0.4105976 0.79682165 0.48538846
-0.12101117 -1.1558378 1.4411967 0.16085827 -0.6861431 0.38811594 0.841844 0.47173107
-0.11192903 -1.1558378 1.4363421 0.23471299 -0.68591255 0.35111663 0.88333684 0.4495527
-0.10396848 -1.1558378 1.4298091 0.30058947 -0.6856788 0.30041358 0.9197056 0.41970563
-0.09743538 -1.1558378 1.4218485 0.3556369 -0.68546057 0.23748426 0.9495527 0.38333684
-0.092580914 -1.1558378 1.4127663 0.39726418 -0.68523884 0.16445409 0.97173107 0.34184402
-0.0895915 -1.1558378 1.4029117 0.4232381 -0.6851019 0.08413517 0.98538846 0.29682168
-0.08858212 -1.1558378 1.3926631 0.43208775 -0.685025 -5.933447e-07 0.99 0.25
-0.0895915 -1.1558378 1.3824146 0.42323813 -0.6851015 -0.08413609 0.98538846 0.20317832
-0.092580914 -1.1558378 1.3725599 0.39726323 -0.685238 -0.16445738 0.97173107 0.15815598
-0.09743538 -1.1558378 1.3634777 0.35563633 -0.68546057 -0.23748502 0.9495527 0.11666314
-0.10396848 -1.1558378 1.3555171 0.30058834 -0.68567836 -0.30041504 0.9197056 0.080294386
-0.11192903 -1.1558378 1.348984 0.23471192 -0.6859109 -0.35111842 0.88333684 0.0504473
-0.12101117 -1.1558378 1.3441296 0.1608554 -0.686144 -0.38811663 0.841844 0.028268918
-0.13086587 -1.1558378 1.3411403 0.081730396 -0.6863266 -0.4105977 0.79682165 0.014611542
-0.15136291 -1.1558378 1.3411403 -0.081731014 -0.6863267 -0.41059768 0.70317835 0.014611542
-0.16121762 -1.1558378 1.3441296 -0.16085713 -0.686144 -0.38811597 0.658156 0.028268918
-0.17029975 -1.1558378 1.348984 -0.23471339 -0.6859111 -0.3511173 0.61666316 0.0504473
-0.17826036 -1.1558378 1.3555171 -0.30059123 -0.68568057 -0.30041075 0.5802944 0.080294386
-0.1847934 -1.1558378 1.3634777 -0.35563585 -0.68546146 -0.23748478 0.5504473 0.11666314
-0.18964791 -1.1558378 1.3725599 -0.39726424 -0.6852382 -0.16445483 0.52826893 0.15815598
-0.19263728 -1.1558378 1.3824146 -0.42323753 -0.6851025 -0.08413573 0.51461154 0.20317832
-0.19263728 -1.1558378 1.4029117 -0.42323735 -0.685103 0.08413545 0.51461154 0.29682168
-0.18964791 -1.1558378 1.4127663 -0.39726394 -0.68523693 0.16445738 0.52826893 0.34184402
-0.1847934 -1.1558378 1.4218485 -0.3556355 -0.6854614 0.2374854 0.5504473 0.38333684
-0.17826036 -1.1558378 1.4298091 -0.30058905 -0.6856786 0.30041414 0.5802944 0.41970563
-0.17029975 -1.1558378 1.4363421 -0.23471159 -0.685913 0.35111725 0.61666316 0.4495527
-0.16121762 -1.1558378 1.4411967 -0.16085765 -0.68614316 0.3881162 0.658156 0.47173107
-0.15136291 -1.1558378 1.444186 -0.08173031 -0.68632656 0.41059783 0.70317835 0.48538846
-0.14111437 -1.1558378 1.4451954 4.4601398e-07 -0.68631244 0.41818017 0 1
7.4442697 -1.2515395 3.115881 0 -1 -1.1306123e-08 0.3889681 0.75000983
2.10569 3.2455769 3.4692187 0.5125674 0 0.2892838 0.375 0.625
-1.6860454 -1 -0.00921917 -0.34241858 -0.5773379 -0.33197626 0.875 0.75
-1.6860454 7.4911537 -0.00921917 -0.34243348 0.5773584 -0.33195007 0.625 0.25
3.1432393 7.9054093 3.4692187 0 0 -0.57497066 0.375 0.5
-2.7195594 -1 3.4692187 0 0 -0.57497066 0.375 0
-2.7195594 -1.6134601 3.4692187 0 0 -0.57497066 0.375 1
2.2879333 -1.2515395 3.1158805 0.41857243 -8.7321705e-09 -0.40735453 0.39104125 0.7500602
7.4442697 -1.2515395 3.1158805 -0.41944006 -5.2815545e-07 -0.4065149 0.3889681 0.75000983
6.1551857 -1.2515395 3.1158805 0 1.9886541e-07 -0.57497066 0.38948637 0.7500224
7.4435015 -1.5191454 -0.008560538 -0.17868906 -0.9044815 0.17358473 0.625 0.75
8.466923 8.04085 6.4328327 0 0 -0.57497066 0.375 0.5
1.3906159 -1.4296967 6.4328327 0 0 -0.57497066 0.375 0.75
2.2762244 -1.5191454 -0.0055314302 0.34352332 -0.580988 -0.32878318 0.66031086 0.7511881
2.2762244 -1.2515395 -0.0055314302 0.42031634 -2.6498702e-07 0.4056634 0.66031086 0.7511881
2.285006 -1.2515395 2.3355274 0.5930994 -8.2287227e-07 -0.0022246998 0.45835865 0.75034213
7.4435015 -1.2515395 -0.008560538 -0.41921222 0 0.40673578 0.625 0.75
2.2762244 -1.2515395 -0.0055314302 0.42031634 -2.6498702e-07 0.4056634 0.67811245 0.7512911
4.859863 -1.2515395 -0.0070459843 0 1 -0 0.6515562 0.7506455
7.4435015 -1.2515395 -0.008560538 -0.41921222 0 0.40673578 0.61278796 0.7500329
7.4436936 -1.2515395 0.77254987 -0.5931038 -1.6444282e-06 0.00014590015 0.556833 0.7500271
4.358646 -1.1257037 4.290276 0 -1 0 0.37500003 0.75000006
3 0 1 2
3 3 4 0
3 5 6 3
3 7 8 5
3 9 10 7
3 11 12 9
3 13 14 11
3 15 16 13
3 17 18 15
3 19 20 17
3 21 22 19
3 23 24 21
3 25 26 23
3 25 27 28
3 29 27 30
3 31 32 29
3 33 34 31
3 35 36 33
3 37 38 35
3 39 40 37
3 41 42 39
3 43 44 41
3 45 46 43
3 47 48 45
3 49 50 47
3 51 52 49
3 53 54 51
3 55 56 53
3 57 58 55
3 59 60 57
3 61 62 63
3 64 65 59
3 66 67 64
3 68 69 70
3 71 72 73
3 74 75 71
3 76 77 74
3 78 79 76
3 80 81 78
3 82 83 80
3 84 85 82
3 86 87 84
3 88 89 86
3 90 91 88
3 92 93 90
3 94 95 92
3 96 97 94
3 98 99 96
3 100 101 98
3 102 103 100
3 104 105 102
3 106 107 104
3 108 109 106
3 110 111 108
3 112 113 110
3 114 115 112
3 116 117 114
3 118 119 116
3 120 121 118
3 122 123 120
3 124 125 122
3 126 127 124
3 128 129 126
3 130 131 128
3 132 133 134
3 135 136 130
3 137 138 135
3 139 140 141
3 142 143 144
3 145 146 142
3 141 147 145
3 148 149 150
3 151 152 149
3 153 144 152
3 154 151 148
3 155 153 151
3 156 142 153
3 157 155 154
3 158 156 155
3 159 145 156
3 160 158 157
3 161 159 158
3 162 141 159
3 163 164 165
3 166 167 163
3 168 169 170
3 171 172 169
3 165 169 163
3 164 170 165
3 163 172 166
3 173 171 167
3 166 174 173
3 167 168 164
3 175 176 177
3 177 178 179
3 179 180 181
3 181 182 175
3 183 184 185
3 183 178 186
3 187 182 185
3 185 180 183
3 186 176 187
3 186 188 189
3 187 190 186
3 185 191 192
3 193 194 195
3 196 197 198
3 199 198 197
3 200 193 198
3 195 201 202
3 200 198 203
3 204 195 202
3 205 193 195
3 198 206 196
3 195 194 207
3 208 209 210
3 211 209 212
3 213 211 214
3 215 211 213
3 212 208 216
3 217 212 218
3 219 212 217
3 211 219 214
3 212 216 218
3 220 221 222
3 209 220 210
3 222 221 223
3 221 215 223
3 224 225 226
3 227 228 229
3 230 231 232
3 231 226 233
3 234 235 236
3 237 225 238
3 238 235 227
3 237 236 239
3 234 240 227
3 237 241 242
3 238 243 237
3 239 244 225
3 245 246 247
3 233 245 247
3 246 248 247
3 225 245 226
3 249 250 251
3 247 250 233
3 239 252 253
3 233 254 231
3 255 232 231
3 256 257 232
3 258 231 254
3 259 252 236
3 260 246 239
3 261 262 263
3 264 262 246
3 260 251 261
3 265 266 267
3 268 269 246
3 246 270 239
3 225 271 272
3 262 273 274
3 251 275 262
3 248 276 250
3 277 278 248
3 250 279 251
3 262 277 248
3 279 280 251
3 250 281 282
3 283 244 270
3 265 272 284
3 265 270 269
3 283 285 286
3 271 287 288
3 284 289 290
3 291 292 293
3 291 294 295
3 0 4 1
3 3 6 4
3 5 8 6
3 7 10 8
3 9 12 10
3 11 14 12
3 13 16 14
3 15 18 16
3 17 20 18
3 19 22 20
3 21 24 22
3 23 26 24
3 25 28 26
3 25 30 27
3 29 32 27
3 31 34 32
3 33 36 34
3 35 38 36
3 37 40 38
3 39 42 40
3 41 44 42
3 43 46 44
3 45 48 46
3 47 50 48
3 49 52 50
3 51 54 52
3 53 56 54
3 55 58 56
3 57 60 58
3 59 65 60
3 63 296 297
3 297 298 299
3 299 300 301
3 301 302 303
3 303 304 305
3 305 306 307
3 307 308 309
3 309 310 61
3 61 311 312
3 312 313 314
3 314 315 316
3 316 317 62
3 62 318 319
3 319 320 321
3 321 322 323
3 323 324 63
3 63 297 299
3 299 301 303
3 303 305 307
3 307 309 61
3 61 312 314
3 314 316 62
3 62 319 321
3 321 323 63
3 63 299 303
3 303 307 61
3 61 314 62
3 62 321 63
3 63 303 61
3 64 67 65
3 66 325 67
3 70 326 327
3 327 328 329
3 329 330 331
3 331 332 333
3 333 334 335
3 335 336 337
3 337 338 339
3 339 340 68
3 68 341 342
3 342 343 344
3 344 345 346
3 346 347 69
3 69 348 349
3 349 350 351
3 351 352 353
3 353 354 70
3 70 327 329
3 329 331 333
3 333 335 337
3 337 339 68
3 68 342 344
3 344 346 69
3 69 349 351
3 351 353 70
3 70 329 333
3 333 337 68
3 68 344 69
3 69 351 70
3 70 333 68
3 71 75 72
3 74 77 75
3 76 79 77
3 78 81 79
3 80 83 81
3 82 85 83
3 84 87 85
3 86 89 87
3 88 91 89
3 90 93 91
3 92 95 93
3 94 97 95
3 96 99 97
3 98 101 99
3 100 103 101
3 102 105 103
3 104 107 105
3 106 109 107
3 108 111 109
3 110 113 111
3 112 115 113
3 114 117 115
3 116 119 117
3 118 121 119
3 120 123 121
3 122 125 123
3 124 127 125
3 126 129 127
3 128 131 129
3 130 136 131
3 134 355 356
3 356 357 358
3 358 359 360
3 360 361 362
3 362 363 364
3 364 365 366
3 366 367 368
3 368 369 132
3 132 370 371
3 371 372 373
3 373 374 375
3 375 376 133
3 133 377 378
3 378 379 380
3 380 381 382
3 382 383 134
3 134 356 358
3 358 360 362
3 362 364 366
3 366 368 132
3 132 371 373
3 373 375 133
3 133 378 380
3 380 382 134
3 134 358 362
3 362 366 132
3 132 373 133
3 133 380 134
3 134 362 132
3 135 138 136
3 137 384 138
3 139 385 140
3 142 146 143
3 145 147 146
3 141 140 147
3 148 151 149
3 151 153 152
3 153 142 144
3 154 155 151
3 155 156 153
3 156 145 142
3 157 158 155
3 158 159 156
3 159 141 145
3 160 161 158
3 161 162 159
3 162 139 141
3 163 167 164
3 166 173 167
3 168 171 169
3 171 174 172
3 165 170 169
3 164 168 170
3 163 169 172
3 173 174 171
3 166 172 174
3 167 171 168
3 175 182 176
3 177 176 178
3 179 178 180
3 181 180 182
3 183 189 184
3 183 180 178
3 187 176 182
3 185 182 180
3 186 178 176
3 189 183 186
3 186 190 188
3 187 192 190
3 192 187 185
3 185 184 191
3 193 386 194
3 199 203 198
3 200 386 193
3 195 207 201
3 205 206 193
3 198 193 206
3 211 221 209
3 215 221 211
3 212 209 208
3 219 211 212
3 220 209 221
3 224 387 225
3 229 238 227
3 227 240 228
3 232 257 230
3 230 388 231
3 231 388 226
3 234 227 235
3 237 239 225
3 238 225 235
3 237 234 236
3 234 242 240
3 242 234 237
3 237 243 241
3 238 229 243
3 239 270 244
3 245 268 246
3 233 226 245
3 246 262 248
3 225 268 245
3 251 239 249
3 249 233 250
3 247 248 250
3 239 236 252
3 233 389 254
3 255 256 232
3 256 390 257
3 258 255 231
3 259 391 252
3 260 264 246
3 261 251 262
3 264 263 262
3 260 239 251
3 392 283 265
3 265 393 394
3 265 394 266
3 267 392 265
3 268 272 269
3 246 269 270
3 272 268 225
3 225 244 271
3 271 395 272
3 262 275 273
3 251 280 275
3 248 278 276
3 277 396 278
3 250 282 279
3 262 274 277
3 279 397 280
3 250 276 281
3 283 398 244
3 265 269 272
3 265 283 270
3 399 398 283
3 283 392 400
3 283 400 285
3 286 399 283
3 401 395 271
3 271 402 287
3 287 403 288
3 288 401 271
3 393 265 284
3 284 404 405
3 284 405 289
3 290 393 284
3 291 295 292
3 291 406 294
