ply
format ascii 1.0
comment Created in Blender version 4.1.1
element vertex 407
property float x
property float y
property float z
property float s
property float t
element face 444
property list uchar uint vertex_indices
end_header
-1.6860454 7.4911537 -0.00921917 0.875 0.5
2.0923204 -1 -0.00921917 0.67811245 0.7512911
2.0923204 7.4911537 -0.00921917 0.6550594 0.47565597
-1.337486 -1 0.061977267 0.5991585 0.9741585
0 -0.7735371 0.061977267 0.5991585 0.875
1.337486 -0.7735371 0.061977267 0.5991585 0.77584153
-1.6860454 -1 -0.00921917 0.625 0
-1.6860454 7.4911537 3.4692192 0.375 0.25
-1.6860454 3.2455769 3.4692192 0.375 0.125
2.10569 7.4911537 3.4692192 0.375 0.5
-1.337486 -1 2.8213115 0.4008415 0.9741585
-1.6860454 -1 -0.00921917 0.625 1
-1.6860454 -1 3.4692192 0.375 1
1.337486 -1 2.8213115 0.4008415 0.77584153
1.337486 -1 0.061977267 0.5991585 0.77584153
2.10569 -1 3.4692192 0.375 0.75
-1.337486 -0.7735371 0.061977267 0.5991585 0.9741585
0 -0.7735371 2.8213115 0.4008415 0.875
-1.337486 -0.7735371 2.8213115 0.4008415 0.9741585
1.337486 -0.7735371 2.8213115 0.4008415 0.77584153
2.0923204 -1.5191454 -0.00921917 0.67811245 0.7512911
7.6272373 7.4911537 -0.00921917 0.625 0.5
7.6272373 -1 3.4692192 0.375 0.75
7.6272373 7.4911537 3.4692192 0.375 0.5
7.6272373 7.4911537 6.4328327 0.375 0.5
2.10569 3.2455769 3.4692192 0.375 0.625
2.10569 7.4911537 6.4328327 0.375 0.5
2.10569 -1 6.4328327 0.375 0.75
-1.6860454 -1.6134601 3.4692192 0.375 1
3.1432393 -1.6134601 3.4692192 0.375 0.75
-1.6860454 7.9054093 3.4692192 0.375 0.25
-2.7195594 7.4911537 3.4692192 0.375 0.25
-2.7195594 3.2455769 3.4692192 0.375 0.125
-1.6860454 -1 3.4692192 0.375 0
-2.7195594 7.9054093 3.4692192 0.375 0.25
-2.7195594 -1 3.4692192 0.375 1
4.2433906 -1 4.171386 0.375 0.75
4.2433906 -1 5.730666 0.37500006 0.7500001
7.6272373 -1 6.4328327 0.375 0.75
5.8602676 -1 5.730666 0.375 0.75
5.8602676 -1 4.171386 0.375 0.75
7.4442697 -1.5191454 3.115881 0.3889681 0.75000983
4.8661017 -1.2515395 3.115881 0.39000466 0.750035
3.5770173 -1.2515395 3.115881 0.39052296 0.7500476
7.6272373 -1 -0.00921917 0.625 0.75
7.6272373 -1.5191454 3.4692192 0.375 0.75
2.10569 -1.5191454 3.4692192 0.375 0.75
2.2762244 -1.5191454 -0.0055309534 0.67811245 0.7512911
7.6272373 -1.5191454 -0.00921917 0.625 0.75
8.466923 -1.4296967 6.4328327 0.375 0.75
8.466923 -1 6.4328327 0.375 0.75
7.6272373 -1.4296967 6.4328327 0.375 0.75
2.10569 8.04085 6.4328327 0.375 0.5
8.466923 7.4911537 6.4328327 0.375 0.5
7.6272373 8.04085 6.4328327 0.375 0.5
1.3906159 -1 6.4328327 0.375 0.75
2.10569 -1.4296967 6.4328327 0.375 0.75
1.3906159 8.04085 6.4328327 0.375 0.5
1.3906159 7.4911537 6.4328327 0.375 0.5
2.2879333 -1.5191454 3.115881 0.39104125 0.7500602
7.4435015 -1.5191454 -0.008560061 0.61278796 0.7500329
2.282079 -1.2515395 1.5551751 0.525676 0.7506241
2.2791517 -1.2515395 0.774822 0.59299344 0.7509061
3.5680437 -1.2515395 -0.00628829 0.6648343 0.75096834
6.151682 -1.2515395 -0.007802844 0.6382781 0.75032276
7.443886 -1.2515395 1.5536605 0.50087804 0.75002134
7.444078 -1.2515395 2.3347707 0.44492307 0.7500156
-1.6860454 -1 -0.00921917 0.875 0.75
-1.6860454 7.4911537 -0.00921917 0.625 0.25
3.1432393 7.9054093 3.4692192 0.375 0.5
-2.7195594 -1 3.4692192 0.375 0
-2.7195594 -1.6134601 3.4692192 0.375 1
2.2879333 -1.2515395 3.115881 0.39104125 0.7500602
7.4442697 -1.2515395 3.115881 0.3889681 0.75000983
6.1551857 -1.2515395 3.115881 0.38948637 0.7500224
7.4435015 -1.5191454 -0.008560061 0.625 0.75
8.466923 8.04085 6.4328327 0.375 0.5
1.3906159 -1.4296967 6.4328327 0.375 0.75
2.2762244 -1.5191454 -0.0055309534 0.66031086 0.7511881
2.2762244 -1.2515395 -0.0055309534 0.66031086 0.7511881
2.285006 -1.2515395 2.335528 0.45835865 0.75034213
7.4435015 -1.2515395 -0.008560061 0.625 0.75
2.2762244 -1.2515395 -0.0055309534 0.67811245 0.7512911
4.859863 -1.2515395 -0.0070455074 0.6515562 0.7506455
7.4435015 -1.2515395 -0.008560061 0.61278796 0.7500329
7.4436936 -1.2515395 0.7725503 0.556833 0.7500271
0.7285969 3.2455769 5.9092207 0.25 0.625
2.10569 -1 3.4692192 0.375 0.75
0.728597 -1.0095663 5.9092207 0.25 0.75
-2.7195594 7.4911537 3.4692192 0.375 0.25
-2.7195594 7.9054093 3.4692192 0.375 0.25
0.7285968 7.4911537 5.9092207 0.25 0.5
-1.6860454 7.9054093 3.4692192 0.375 0.25
2.10569 7.4911537 3.4692192 0.375 0.5
-1.6860454 -1.6134601 3.4692192 0.375 1
-2.7195594 -1.6134601 3.4692192 0.375 1
3.1432393 7.9054093 3.4692192 0.375 0.5
-2.7195594 -1 3.4692192 0.375 1
-2.7195594 -1 3.4692192 0.375 0
-2.7195594 3.2455769 3.4692192 0.375 0.125
3.1432393 -1.6134601 3.4692192 0.375 0.75
2.10569 3.2455769 3.4692192 0.375 0.625
8.466923 7.4911537 6.4328327 0.375 0.5
7.6272373 7.4955816 7.731062 0.375 0.5
8.466923 8.04085 6.4328327 0.375 0.5
2.10569 -0.988428 7.731062 0.375 0.75
7.6272373 -1.0003287 7.731062 0.375 0.75
1.3906159 -1 6.4328327 0.375 0.75
1.3906159 -1.4296967 6.4328327 0.375 0.75
1.3906159 7.4911537 6.4328327 0.375 0.5
8.466923 -1 6.4328327 0.375 0.75
7.6272373 -1.4296967 6.4328327 0.375 0.75
8.466923 -1.4296967 6.4328327 0.375 0.75
2.10569 -1.4296967 6.4328327 0.375 0.75
7.6272373 8.04085 6.4328327 0.375 0.5
2.10569 7.4966393 7.731062 0.375 0.5
2.10569 8.04085 6.4328327 0.375 0.5
1.3906159 8.04085 6.4328327 0.375 0.5
6.1551857 -1.2515395 3.115881 0.38948637 0.7500224
7.444078 -1.2515395 2.3347707 0.44492307 0.7500156
6.1543097 -1.2515395 2.33496 0.44828194 0.7500972
6.152558 -1.2515395 0.77311814 0.56587315 0.7502469
7.4435015 -1.2515395 -0.008560061 0.61278796 0.7500329
6.151682 -1.2515395 -0.007802844 0.6246687 0.7503217
6.153434 -1.2515395 1.5540391 0.5070776 0.750172
7.4436936 -1.2515395 0.7725503 0.556833 0.7500271
7.443886 -1.2515395 1.5536605 0.50087804 0.75002134
2.2791517 -1.2515395 0.774822 0.59299344 0.7509061
3.5680437 -1.2515395 -0.00628829 0.6484301 0.7508993
2.2762244 -1.2515395 -0.0055309534 0.66031086 0.7511881
3.570287 -1.2515395 0.7742541 0.5839533 0.7506864
4.859863 -1.2515395 -0.0070455074 0.6365494 0.7506105
4.8614225 -1.2515395 0.7736861 0.5749132 0.75046664
2.282079 -1.2515395 1.5551751 0.525676 0.7506241
3.5725307 -1.2515395 1.5547965 0.51947653 0.7504734
4.8629823 -1.2515395 1.5544177 0.51327705 0.7503227
2.285006 -1.2515395 2.335528 0.45835865 0.75034213
3.5747738 -1.2515395 2.3353386 0.45499974 0.7502605
4.864542 -1.2515395 2.3351493 0.45164084 0.7501788
2.2879333 -1.2515395 3.115881 0.39104125 0.7500602
3.5770173 -1.2515395 3.115881 0.39052296 0.7500476
4.8661017 -1.2515395 3.115881 0.39000466 0.750035
7.4442697 -1.2515395 3.115881 0.3889681 0.75000983
5.051829 -1.1257037 4.2902765 0.375 0.75
5.7450123 -1.1257037 5.6117754 0.375 0.75
5.7450123 -1.1257037 4.2902765 0.375 0.75
4.358646 -1.1257037 5.6117754 0.37500003 0.75000006
5.051829 -1.1257037 5.6117754 0.375 0.75
4.358646 -1.1257037 4.2902765 0.37500003 0.75000006
0 -1.0030597 2.8213115 0.4008415 0.875
1.337486 -1.0030597 0.061977267 0.5991585 0.77584153
1.337486 -1.0030597 2.8213115 0.4008415 0.77584153
-1.337486 -1.0030597 2.8213115 0.4008415 0.9741585
0 -1.0030597 0.061977267 0.5991585 0.875
1.337486 -1.0700451 0.061977267 0.5991585 0.77584153
0 -1.0700451 2.8213115 0.4008415 0.875
1.337486 -1.0700451 2.8213115 0.4008415 0.77584153
0 -1.0700451 0.061977267 0.5991585 0.875
-1.337486 -1.0700451 2.8213115 0.4008415 0.9741585
-1.337486 -1.0030597 0.061977267 0.5991585 0.9741585
-1.337486 -1.0700451 0.061977267 0.5991585 0.9741585
0.16699092 -1.0507731 1.444186 0.96875 0.5
0.15674242 -1.1558378 1.4451954 1 1
0.15674242 -1.0507731 1.4451954 1 0.5
0.17684561 -1.0507731 1.4411967 0.9375 0.5
0.16699092 -1.1558378 1.444186 0.96875 1
0.18592775 -1.0507731 1.4363421 0.90625 0.5
0.17684561 -1.1558378 1.4411967 0.9375 1
0.1938883 -1.0507731 1.4298091 0.875 0.5
0.18592775 -1.1558378 1.4363421 0.90625 1
0.20042141 -1.0507731 1.4218485 0.84375 0.5
0.1938883 -1.1558378 1.4298091 0.875 1
0.20527588 -1.0507731 1.4127663 0.8125 0.5
0.20042141 -1.1558378 1.4218485 0.84375 1
0.20826527 -1.0507731 1.4029117 0.78125 0.5
0.20527588 -1.1558378 1.4127663 0.8125 1
0.20927466 -1.0507731 1.3926631 0.75 0.5
0.20826527 -1.1558378 1.4029117 0.78125 1
0.20826527 -1.0507731 1.3824146 0.71875 0.5
0.20927466 -1.1558378 1.3926631 0.75 1
0.20527588 -1.0507731 1.3725599 0.6875 0.5
0.20826527 -1.1558378 1.3824146 0.71875 1
0.20042141 -1.0507731 1.3634777 0.65625 0.5
0.20527588 -1.1558378 1.3725599 0.6875 1
0.1938883 -1.0507731 1.3555171 0.625 0.5
0.20042141 -1.1558378 1.3634777 0.65625 1
0.18592775 -1.0507731 1.3489841 0.59375 0.5
0.1938883 -1.1558378 1.3555171 0.625 1
0.17684561 -1.1558378 1.3441296 0.5625 1
0.18592775 -1.1558378 1.348984 0.59375 1
0.16699092 -1.0507731 1.3411403 0.53125 0.5
0.17684561 -1.0507731 1.3441296 0.5625 0.5
0.15674242 -1.0507731 1.3401308 0.5 0.5
0.16699092 -1.1558378 1.3411403 0.53125 1
0.14649387 -1.0507731 1.3411403 0.46875 0.5
0.15674242 -1.1558378 1.3401308 0.5 1
0.13663918 -1.0507731 1.3441296 0.4375 0.5
0.14649387 -1.1558378 1.3411403 0.46875 1
0.12755704 -1.0507731 1.3489841 0.40625 0.5
0.13663918 -1.1558378 1.3441296 0.4375 1
0.11959644 -1.0507731 1.3555171 0.375 0.5
0.12755704 -1.1558378 1.348984 0.40625 1
0.11306338 -1.0507731 1.3634777 0.34375 0.5
0.11959644 -1.1558378 1.3555171 0.375 1
0.108208865 -1.0507731 1.3725599 0.3125 0.5
0.11306338 -1.1558378 1.3634777 0.34375 1
0.105219506 -1.0507731 1.3824146 0.28125 0.5
0.108208865 -1.1558378 1.3725599 0.3125 1
0.10421007 -1.0507731 1.3926631 0.25 0.5
0.105219506 -1.1558378 1.3824146 0.28125 1
0.105219506 -1.0507731 1.4029117 0.21875 0.5
0.10421007 -1.1558378 1.3926631 0.25 1
0.108208865 -1.0507731 1.4127663 0.1875 0.5
0.105219506 -1.1558378 1.4029117 0.21875 1
0.11306338 -1.0507731 1.4218485 0.15625 0.5
0.108208865 -1.1558378 1.4127663 0.1875 1
0.11959644 -1.0507731 1.4298091 0.125 0.5
0.11306338 -1.1558378 1.4218485 0.15625 1
0.12755704 -1.0507731 1.4363421 0.09375 0.5
0.11959644 -1.1558378 1.4298091 0.125 1
0.13663918 -1.0507731 1.4411967 0.0625 0.5
0.12755704 -1.1558378 1.4363421 0.09375 1
0.15674242 -1.1558378 1.3401308 0.75 0.010000005
0.10421007 -1.1558378 1.3926631 0.51 0.25
0.15674242 -1.1558378 1.4451954 0.75 0.49
0.14649387 -1.0507731 1.444186 0.03125 0.5
0.13663918 -1.1558378 1.4411967 0.0625 1
0.15674242 -1.0507731 1.4451954 0 0.5
0.14649387 -1.1558378 1.444186 0.03125 1
0.14649387 -1.0507731 1.3411403 0.20317832 0.014611542
0.20826527 -1.0507731 1.3824146 0.48538846 0.20317832
0.16699092 -1.0507731 1.444186 0.29682168 0.48538846
-0.13086587 -1.0507731 1.444186 0.96875 0.5
-0.14111437 -1.1558378 1.4451954 1 1
-0.14111437 -1.0507731 1.4451954 1 0.5
-0.12101117 -1.0507731 1.4411967 0.9375 0.5
-0.13086587 -1.1558378 1.444186 0.96875 1
-0.11192903 -1.0507731 1.4363421 0.90625 0.5
-0.12101117 -1.1558378 1.4411967 0.9375 1
-0.10396848 -1.0507731 1.4298091 0.875 0.5
-0.11192903 -1.1558378 1.4363421 0.90625 1
-0.09743538 -1.0507731 1.4218485 0.84375 0.5
-0.10396848 -1.1558378 1.4298091 0.875 1
-0.092580914 -1.0507731 1.4127663 0.8125 0.5
-0.09743538 -1.1558378 1.4218485 0.84375 1
-0.0895915 -1.0507731 1.4029117 0.78125 0.5
-0.092580914 -1.1558378 1.4127663 0.8125 1
-0.08858212 -1.0507731 1.3926631 0.75 0.5
-0.0895915 -1.1558378 1.4029117 0.78125 1
-0.0895915 -1.0507731 1.3824146 0.71875 0.5
-0.08858212 -1.1558378 1.3926631 0.75 1
-0.092580914 -1.0507731 1.3725599 0.6875 0.5
-0.0895915 -1.1558378 1.3824146 0.71875 1
-0.09743538 -1.0507731 1.3634777 0.65625 0.5
-0.092580914 -1.1558378 1.3725599 0.6875 1
-0.10396848 -1.0507731 1.3555171 0.625 0.5
-0.09743538 -1.1558378 1.3634777 0.65625 1
-0.11192903 -1.0507731 1.3489841 0.59375 0.5
-0.10396848 -1.1558378 1.3555171 0.625 1
-0.12101117 -1.0507731 1.3441296 0.5625 0.5
-0.11192903 -1.1558378 1.348984 0.59375 1
-0.13086587 -1.0507731 1.3411403 0.53125 0.5
-0.12101117 -1.1558378 1.3441296 0.5625 1
-0.14111437 -1.0507731 1.3401308 0.5 0.5
-0.13086587 -1.1558378 1.3411403 0.53125 1
-0.15136291 -1.0507731 1.3411403 0.46875 0.5
-0.14111437 -1.1558378 1.3401308 0.5 1
-0.16121762 -1.0507731 1.3441296 0.4375 0.5
-0.15136291 -1.1558378 1.3411403 0.46875 1
-0.17029975 -1.0507731 1.3489841 0.40625 0.5
-0.16121762 -1.1558378 1.3441296 0.4375 1
-0.17826036 -1.0507731 1.3555171 0.375 0.5
-0.17029975 -1.1558378 1.348984 0.40625 1
-0.1847934 -1.0507731 1.3634777 0.34375 0.5
-0.17826036 -1.1558378 1.3555171 0.375 1
-0.18964791 -1.0507731 1.3725599 0.3125 0.5
-0.1847934 -1.1558378 1.3634777 0.34375 1
-0.19263728 -1.0507731 1.3824146 0.28125 0.5
-0.18964791 -1.1558378 1.3725599 0.3125 1
-0.19364671 -1.0507731 1.3926631 0.25 0.5
-0.19263728 -1.1558378 1.3824146 0.28125 1
-0.19263728 -1.0507731 1.4029117 0.21875 0.5
-0.19364671 -1.1558378 1.3926631 0.25 1
-0.18964791 -1.0507731 1.4127663 0.1875 0.5
-0.19263728 -1.1558378 1.4029117 0.21875 1
-0.1847934 -1.0507731 1.4218485 0.15625 0.5
-0.18964791 -1.1558378 1.4127663 0.1875 1
-0.17826036 -1.0507731 1.4298091 0.125 0.5
-0.1847934 -1.1558378 1.4218485 0.15625 1
-0.17029975 -1.0507731 1.4363421 0.09375 0.5
-0.17826036 -1.1558378 1.4298091 0.125 1
-0.16121762 -1.0507731 1.4411967 0.0625 0.5
-0.17029975 -1.1558378 1.4363421 0.09375 1
-0.14111437 -1.1558378 1.3401308 0.75 0.010000005
-0.19364671 -1.1558378 1.3926631 0.51 0.25
-0.14111437 -1.1558378 1.4451954 0.75 0.49
-0.15136291 -1.0507731 1.444186 0.03125 0.5
-0.16121762 -1.1558378 1.4411967 0.0625 1
-0.14111437 -1.0507731 1.4451954 0 0.5
-0.15136291 -1.1558378 1.444186 0.03125 1
0.16699092 -1.1558378 1.444186 0.79682165 0.48538846
0.17684561 -1.1558378 1.4411967 0.841844 0.47173107
0.18592775 -1.1558378 1.4363421 0.88333684 0.4495527
0.1938883 -1.1558378 1.4298091 0.9197056 0.41970563
0.20042141 -1.1558378 1.4218485 0.9495527 0.38333684
0.20527588 -1.1558378 1.4127663 0.97173107 0.34184402
0.20826527 -1.1558378 1.4029117 0.98538846 0.29682168
0.20927466 -1.1558378 1.3926631 0.99 0.25
0.20826527 -1.1558378 1.3824146 0.98538846 0.20317832
0.20527588 -1.1558378 1.3725599 0.97173107 0.15815598
0.20042141 -1.1558378 1.3634777 0.9495527 0.11666314
0.1938883 -1.1558378 1.3555171 0.9197056 0.080294386
0.18592775 -1.1558378 1.348984 0.88333684 0.0504473
0.17684561 -1.1558378 1.3441296 0.841844 0.028268918
0.16699092 -1.1558378 1.3411403 0.79682165 0.014611542
0.14649387 -1.1558378 1.3411403 0.70317835 0.014611542
0.13663918 -1.1558378 1.3441296 0.658156 0.028268918
0.12755704 -1.1558378 1.348984 0.61666316 0.0504473
0.11959644 -1.1558378 1.3555171 0.5802944 0.080294386
0.11306338 -1.1558378 1.3634777 0.5504473 0.11666314
0.108208865 -1.1558378 1.3725599 0.52826893 0.15815598
0.105219506 -1.1558378 1.3824146 0.51461154 0.20317832
0.105219506 -1.1558378 1.4029117 0.51461154 0.29682168
0.108208865 -1.1558378 1.4127663 0.52826893 0.34184402
0.11306338 -1.1558378 1.4218485 0.5504473 0.38333684
0.11959644 -1.1558378 1.4298091 0.5802944 0.41970563
0.12755704 -1.1558378 1.4363421 0.61666316 0.4495527
0.13663918 -1.1558378 1.4411967 0.658156 0.47173107
0.14649387 -1.1558378 1.444186 0.70317835 0.48538846
0.15674242 -1.1558378 1.4451954 0 1
0.15674242 -1.0507731 1.4451954 0.25 0.49
0.14649387 -1.0507731 1.444186 0.20317832 0.48538846
0.13663918 -1.0507731 1.4411967 0.15815598 0.47173107
0.12755704 -1.0507731 1.4363421 0.11666314 0.4495527
0.11959644 -1.0507731 1.4298091 0.08029437 0.41970563
0.11306338 -1.0507731 1.4218485 0.050447285 0.38333684
0.108208865 -1.0507731 1.4127663 0.028268903 0.34184402
0.105219506 -1.0507731 1.4029117 0.014611527 0.29682168
0.10421007 -1.0507731 1.3926631 0.010000005 0.25
0.105219506 -1.0507731 1.3824146 0.014611527 0.20317832
0.108208865 -1.0507731 1.3725599 0.028268903 0.15815598
0.11306338 -1.0507731 1.3634777 0.050447285 0.11666314
0.11959644 -1.0507731 1.3555171 0.08029437 0.080294386
0.12755704 -1.0507731 1.3489841 0.11666314 0.0504473
0.13663918 -1.0507731 1.3441296 0.15815598 0.028268918
0.15674242 -1.0507731 1.3401308 0.25 0.010000005
0.16699092 -1.0507731 1.3411403 0.29682168 0.014611542
0.17684561 -1.0507731 1.3441296 0.34184402 0.028268918
0.18592775 -1.0507731 1.3489841 0.38333684 0.0504473
0.1938883 -1.0507731 1.3555171 0.41970563 0.080294386
0.20042141 -1.0507731 1.3634777 0.4495527 0.11666314
0.20527588 -1.0507731 1.3725599 0.4717311 0.15815598
0.20927466 -1.0507731 1.3926631 0.49 0.25
0.20826527 -1.0507731 1.4029117 0.48538846 0.29682168
0.20527588 -1.0507731 1.4127663 0.4717311 0.34184402
0.20042141 -1.0507731 1.4218485 0.4495527 0.38333684
0.1938883 -1.0507731 1.4298091 0.41970563 0.41970563
0.18592775 -1.0507731 1.4363421 0.38333684 0.4495527
0.17684561 -1.0507731 1.4411967 0.34184402 0.47173107
-0.13086587 -1.1558378 1.444186 0.79682165 0.48538846
-0.12101117 -1.1558378 1.4411967 0.841844 0.47173107
-0.11192903 -1.1558378 1.4363421 0.88333684 0.4495527
-0.10396848 -1.1558378 1.4298091 0.9197056 0.41970563
-0.09743538 -1.1558378 1.4218485 0.9495527 0.38333684
-0.092580914 -1.1558378 1.4127663 0.97173107 0.34184402
-0.0895915 -1.1558378 1.4029117 0.98538846 0.29682168
-0.08858212 -1.1558378 1.3926631 0.99 0.25
-0.0895915 -1.1558378 1.3824146 0.98538846 0.20317832
-0.092580914 -1.1558378 1.3725599 0.97173107 0.15815598
-0.09743538 -1.1558378 1.3634777 0.9495527 0.11666314
-0.10396848 -1.1558378 1.3555171 0.9197056 0.080294386
-0.11192903 -1.1558378 1.348984 0.88333684 0.0504473
-0.12101117 -1.1558378 1.3441296 0.841844 0.028268918
-0.13086587 -1.1558378 1.3411403 0.79682165 0.014611542
-0.15136291 -1.1558378 1.3411403 0.70317835 0.014611542
-0.16121762 -1.1558378 1.3441296 0.658156 0.028268918
-0.17029975 -1.1558378 1.348984 0.61666316 0.0504473
-0.17826036 -1.1558378 1.3555171 0.5802944 0.080294386
-0.1847934 -1.1558378 1.3634777 0.5504473 0.11666314
-0.18964791 -1.1558378 1.3725599 0.52826893 0.15815598
-0.19263728 -1.1558378 1.3824146 0.51461154 0.20317832
-0.19263728 -1.1558378 1.4029117 0.51461154 0.29682168
-0.18964791 -1.1558378 1.4127663 0.52826893 0.34184402
-0.1847934 -1.1558378 1.4218485 0.5504473 0.38333684
-0.17826036 -1.1558378 1.4298091 0.5802944 0.41970563
-0.17029975 -1.1558378 1.4363421 0.61666316 0.4495527
-0.16121762 -1.1558378 1.4411967 0.658156 0.47173107
-0.15136291 -1.1558378 1.444186 0.70317835 0.48538846
-0.14111437 -1.1558378 1.4451954 0 1
5.8602676 -1 5.730666 0.375 0.75
4.2433906 -1.2042227 5.730666 0.37500006 0.7500001
4.2433906 -1 5.730666 0.37500006 0.7500001
4.2433906 -1.2042227 4.171386 0.375 0.75
4.2433906 -1 4.171386 0.375 0.75
5.8602676 -1.2042227 4.171386 0.375 0.75
5.8602676 -1 4.171386 0.375 0.75
5.8602676 -1.2042227 5.730666 0.375 0.75
5.7450123 -1.2042227 4.2902765 0.375 0.75
5.7450123 -1.1257037 5.6117754 0.375 0.75
5.7450123 -1.2042227 5.6117754 0.375 0.75
4.358646 -1.2042227 4.2902765 0.37500003 0.75000006
4.358646 -1.2042227 5.6117754 0.37500003 0.75000006
5.051829 -1.1257037 4.2902765 0.375 0.75
5.7450123 -1.1257037 4.2902765 0.375 0.75
4.358646 -1.1257037 4.2902765 0.37500003 0.75000006
5.051829 -1.1257037 5.6117754 0.375 0.75
4.358646 -1.1257037 5.6117754 0.37500003 0.75000006
3 0 1 2
3 3 4 5
3 6 7 8
3 7 2 9
3 10 11 12
3 13 1 14
3 14 11 3
3 13 12 15
3 10 16 3
3 13 17 18
3 14 19 13
3 15 20 1
3 21 22 23
3 9 21 23
3 22 24 23
3 1 21 2
3 25 26 27
3 23 26 9
3 15 28 29
3 9 30 7
3 31 8 7
3 32 33 8
3 34 7 30
3 35 28 12
3 36 22 15
3 37 38 39
3 39 22 40
3 36 27 37
3 41 42 43
3 44 45 22
3 22 46 15
3 1 47 48
3 38 49 50
3 27 51 38
3 24 52 26
3 53 54 24
3 26 55 27
3 38 53 24
3 55 56 27
3 26 57 58
3 59 20 46
3 41 48 60
3 41 46 45
3 59 61 62
3 47 63 64
3 60 65 66
3 0 67 1
3 5 14 3
3 3 16 4
3 8 33 6
3 6 68 7
3 7 68 2
3 10 3 11
3 13 15 1
3 14 1 11
3 13 10 12
3 10 18 16
3 18 10 13
3 13 19 17
3 14 5 19
3 15 46 20
3 21 44 22
3 9 2 21
3 22 38 24
3 1 44 21
3 27 15 25
3 25 9 26
3 23 24 26
3 15 12 28
3 9 69 30
3 31 32 8
3 32 70 33
3 34 31 7
3 35 71 28
3 36 40 22
3 37 27 38
3 39 38 22
3 36 15 27
3 72 59 41
3 41 73 74
3 41 74 42
3 43 72 41
3 44 48 45
3 22 45 46
3 48 44 1
3 1 20 47
3 47 75 48
3 38 51 49
3 27 56 51
3 24 54 52
3 53 76 54
3 26 58 55
3 38 50 53
3 55 77 56
3 26 52 57
3 59 78 20
3 41 45 48
3 41 59 46
3 79 78 59
3 59 72 80
3 59 80 61
3 62 79 59
3 81 75 47
3 47 82 63
3 63 83 64
3 64 81 47
3 73 41 60
3 60 84 85
3 60 85 65
3 66 73 60
3 86 87 88
3 89 90 91
3 92 91 90
3 93 86 91
3 88 94 95
3 93 91 96
3 97 88 95
3 98 86 88
3 91 99 89
3 88 87 100
3 86 101 87
3 92 96 91
3 93 101 86
3 88 100 94
3 98 99 86
3 91 86 99
3 102 103 104
3 105 103 106
3 107 105 108
3 109 105 107
3 106 102 110
3 111 106 112
3 113 106 111
3 105 113 108
3 106 110 112
3 114 115 116
3 103 114 104
3 116 115 117
3 115 109 117
3 105 115 103
3 109 115 105
3 106 103 102
3 113 105 106
3 114 103 115
3 118 119 120
3 121 122 123
3 124 125 121
3 120 126 124
3 127 128 129
3 130 131 128
3 132 123 131
3 133 130 127
3 134 132 130
3 135 121 132
3 136 134 133
3 137 135 134
3 138 124 135
3 139 137 136
3 140 138 137
3 141 120 138
3 118 142 119
3 121 125 122
3 124 126 125
3 120 119 126
3 127 130 128
3 130 132 131
3 132 121 123
3 133 134 130
3 134 135 132
3 135 124 121
3 136 137 134
3 137 138 135
3 138 120 124
3 139 140 137
3 140 141 138
3 141 118 120
3 143 144 145
3 143 146 147
3 143 147 144
3 143 148 146
3 149 150 151
3 152 153 149
3 154 155 156
3 157 158 155
3 151 155 149
3 150 156 151
3 149 158 152
3 159 157 153
3 152 160 159
3 153 154 150
3 149 153 150
3 152 159 153
3 154 157 155
3 157 160 158
3 151 156 155
3 150 154 156
3 149 155 158
3 159 160 157
3 152 158 160
3 153 157 154
3 161 162 163
3 164 165 161
3 166 167 164
3 168 169 166
3 170 171 168
3 172 173 170
3 174 175 172
3 176 177 174
3 178 179 176
3 180 181 178
3 182 183 180
3 184 185 182
3 186 187 184
3 186 188 189
3 190 188 191
3 192 193 190
3 194 195 192
3 196 197 194
3 198 199 196
3 200 201 198
3 202 203 200
3 204 205 202
3 206 207 204
3 208 209 206
3 210 211 208
3 212 213 210
3 214 215 212
3 216 217 214
3 218 219 216
3 220 221 218
3 222 223 224
3 225 226 220
3 227 228 225
3 229 230 231
3 232 233 234
3 235 236 232
3 237 238 235
3 239 240 237
3 241 242 239
3 243 244 241
3 245 246 243
3 247 248 245
3 249 250 247
3 251 252 249
3 253 254 251
3 255 256 253
3 257 258 255
3 259 260 257
3 261 262 259
3 263 264 261
3 265 266 263
3 267 268 265
3 269 270 267
3 271 272 269
3 273 274 271
3 275 276 273
3 277 278 275
3 279 280 277
3 281 282 279
3 283 284 281
3 285 286 283
3 287 288 285
3 289 290 287
3 291 292 289
3 293 294 295
3 296 297 291
3 298 299 296
3 161 165 162
3 164 167 165
3 166 169 167
3 168 171 169
3 170 173 171
3 172 175 173
3 174 177 175
3 176 179 177
3 178 181 179
3 180 183 181
3 182 185 183
3 184 187 185
3 186 189 187
3 186 191 188
3 190 193 188
3 192 195 193
3 194 197 195
3 196 199 197
3 198 201 199
3 200 203 201
3 202 205 203
3 204 207 205
3 206 209 207
3 208 211 209
3 210 213 211
3 212 215 213
3 214 217 215
3 216 219 217
3 218 221 219
3 220 226 221
3 224 300 301
3 301 302 303
3 303 304 305
3 305 306 307
3 307 308 309
3 309 310 311
3 311 312 313
3 313 314 222
3 222 315 316
3 316 317 318
3 318 319 320
3 320 321 223
3 223 322 323
3 323 324 325
3 325 326 327
3 327 328 224
3 224 301 303
3 303 305 307
3 307 309 311
3 311 313 222
3 222 316 318
3 318 320 223
3 223 323 325
3 325 327 224
3 224 303 307
3 307 311 222
3 222 318 223
3 223 325 224
3 224 307 222
3 225 228 226
3 227 329 228
3 231 330 331
3 331 332 333
3 333 334 335
3 335 336 337
3 337 338 339
3 339 340 341
3 341 342 343
3 343 344 229
3 229 345 346
3 346 347 348
3 348 349 350
3 350 351 230
3 230 352 353
3 353 354 355
3 355 356 357
3 357 358 231
3 231 331 333
3 333 335 337
3 337 339 341
3 341 343 229
3 229 346 348
3 348 350 230
3 230 353 355
3 355 357 231
3 231 333 337
3 337 341 229
3 229 348 230
3 230 355 231
3 231 337 229
3 232 236 233
3 235 238 236
3 237 240 238
3 239 242 240
3 241 244 242
3 243 246 244
3 245 248 246
3 247 250 248
3 249 252 250
3 251 254 252
3 253 256 254
3 255 258 256
3 257 260 258
3 259 262 260
3 261 264 262
3 263 266 264
3 265 268 266
3 267 270 268
3 269 272 270
3 271 274 272
3 273 276 274
3 275 278 276
3 277 280 278
3 279 282 280
3 281 284 282
3 283 286 284
3 285 288 286
3 287 290 288
3 289 292 290
3 291 297 292
3 295 359 360
3 360 361 362
3 362 363 364
3 364 365 366
3 366 367 368
3 368 369 370
3 370 371 372
3 372 373 293
3 293 374 375
3 375 376 377
3 377 378 379
3 379 380 294
3 294 381 382
3 382 383 384
3 384 385 386
3 386 387 295
3 295 360 362
3 362 364 366
3 366 368 370
3 370 372 293
3 293 375 377
3 377 379 294
3 294 382 384
3 384 386 295
3 295 362 366
3 366 370 293
3 293 377 294
3 294 384 295
3 295 366 293
3 296 299 297
3 298 388 299
3 389 390 391
3 391 392 393
3 393 394 395
3 395 396 389
3 397 398 399
3 397 392 400
3 401 396 399
3 399 394 397
3 400 390 401
3 400 402 403
3 401 404 400
3 399 405 406
3 389 396 390
3 391 390 392
3 393 392 394
3 395 394 396
3 397 403 398
3 397 394 392
3 401 390 396
3 399 396 394
3 400 392 390
3 403 397 400
3 400 404 402
3 401 406 404
3 406 401 399
3 399 398 405
