ply
format ascii 1.0
comment Created in Blender version 4.1.1
element vertex 263
property float x
property float y
property float z
property float nx
property float ny
property float nz
property float s
property float t
element face 416
property list uchar uint vertex_indices
end_header
9.340542 1.7728035 1.1843688 0.014495357 0.012881825 -0.58973587 0.18872382 0.57827365
1.100599 3.9717906 1.1728809 -0.00392548 0.00890914 -0.58997434 0.24976985 0.6245398
8.088371 6.3718657 1.2631238 0.0128165465 0.015101453 -0.5897221 0.19682667 0.62306714
-2.558609 -3.3831403 1.2164316 -0.013358826 -0.007398434 -0.589857 0.27597648 0.57253915
4.5914397 -1.3450003 1.1073914 -0.0031626667 0.004987662 -0.59002507 0.22278696 0.5705739
0.6703946 -5.7132945 1.1767669 -0.015062186 -0.008766033 -0.5897972 0.24985205 0.5488781
-5.310549 2.367228 1.259337 -0.019613266 0.0049326117 -0.5897079 0.30190885 0.6249661
-2.558609 -3.3831403 1.2164316 -0.013358826 -0.007398434 -0.589857 0.27597645 0.5725391
-6.302864 -2.687614 1.3027713 -0.023823638 -0.008264627 -0.58951557 0.30749798 0.5843134
-5.763371 6.6490364 1.3441105 -0.02564993 0.018482806 -0.58920705 0.30749118 0.6656169
-5.310549 2.367228 1.259337 -0.019613266 0.0049326117 -0.5897079 0.30190882 0.6249661
4.1357307 10.171204 1.3351893 0.0017626989 0.027751323 -0.58939904 0.22400163 0.6768549
-2.103864 8.621107 1.3109603 -0.011875417 0.024163373 -0.58944005 0.27594858 0.67689705
0.8590581 11.410758 1.4059289 -0.007411335 0.042920217 -0.58844495 0.24999711 0.6993596
8.088371 6.3718657 1.2631238 0.0128165465 0.015101453 -0.5897221 0.19682668 0.6230672
4.1357307 10.171204 1.3351893 0.0017626989 0.027751323 -0.58939904 0.22400165 0.6768549
8.294646 10.527456 1.3955183 0.01398657 0.027303347 -0.5892567 0.19235112 0.6653848
14.048009 -0.83773094 1.3325839 0.07444227 0.014348439 -0.58516407 0.15277779 0.54166675
13.302619 3.7596524 1.4040675 0.05815475 0.01853552 -0.58688927 0.1586854 0.5790896
10.745838 -2.7533643 1.1192307 0.017133342 0.01248899 -0.5896736 0.17762586 0.5410157
4.5914397 -1.3450003 1.1073914 -0.0031626667 0.004987662 -0.59002507 0.22278698 0.5705739
12.407473 8.033626 1.4772229 0.050379053 0.021958966 -0.5874898 0.16358025 0.6222995
-2.0938392 -9.564757 1.3970175 -0.031311594 -0.048649732 -0.58721143 0.26899478 0.52627075
3.0298214 -8.528692 1.1511817 -0.02184177 -0.009041423 -0.5895809 0.2307943 0.52582467
0.19603008 -11.213355 1.3926642 -0.04952808 -0.055149935 -0.58538014 0.25000003 0.51388896
-4.8867702 -8.0793 1.4168675 -0.02659194 -0.040419865 -0.5880677 0.29258293 0.5400271
6.735548 -5.405703 1.0602181 -0.0053125485 0.005273848 -0.5900071 0.20572919 0.5364584
-9.350396 -5.889202 1.553854 -0.073122874 -0.03206373 -0.5846276 0.33333334 0.5625
-7.608564 -6.894767 1.4747117 -0.0401017 -0.03675908 -0.5875416 0.31673682 0.5522863
-8.988204 1.4852931 1.4399617 -0.064476274 0.0076015713 -0.5864721 0.3342978 0.62500006
-9.301524 -2.8421938 1.471997 -0.06657079 -0.007069917 -0.5862447 0.33445656 0.58791876
-4.8867702 -8.0793 1.4168675 -0.02659194 -0.040419865 -0.5880677 0.29258296 0.540027
-8.420436 8.152698 1.5923612 -0.086909026 0.053894233 -0.5811253 0.3333333 0.68749994
-8.737927 5.5197463 1.4967418 -0.07226442 0.020743694 -0.5852453 0.33445656 0.66208124
-6.6223607 9.602646 1.5322876 -0.05371241 0.05612062 -0.5849188 0.31668255 0.6976294
-2.103864 8.621107 1.3109603 -0.011875417 0.024163373 -0.58944005 0.27594855 0.67689705
-8.988204 1.4852931 1.4399617 -0.064476274 0.0076015713 -0.5864721 0.33429784 0.625
0.70559543 13.862493 1.6778479 -0.032436095 0.1619504 -0.5664666 0.24999999 0.7291666
-1.2567108 12.872445 1.5841019 -0.030408312 0.10202157 -0.5803718 0.26777408 0.72128385
2.8068264 13.69918 1.6006656 -0.010339582 0.10621024 -0.5803248 0.23222595 0.72128385
-3.9320025 11.292513 1.5194626 -0.032596424 0.06920202 -0.5850753 0.29214892 0.70929784
11.775945 11.439145 1.5741162 0.049076613 0.034481164 -0.58699834 0.1652782 0.6617437
9.023635 13.482619 1.5960631 0.01379518 0.07009988 -0.5857134 0.18331745 0.69762933
11.2357025 13.371867 1.6724834 0.044867802 0.069976576 -0.5841701 0.16666666 0.68749994
5.8326325 13.470171 1.5592644 -0.0007643858 0.078049086 -0.58486944 0.20785108 0.7092978
4.3955564 -11.1051445 1.121876 -0.030409034 -0.00890532 -0.58920324 0.21881539 0.5108948
8.165577 -11.870169 0.9850452 -0.0060511623 -0.006582233 -0.58998686 0.18977866 0.5045574
5.038749 -13.228725 1.1164768 -0.036332212 -0.020744186 -0.5885696 0.21186736 0.5032281
7.8513403 -8.951907 1.0071671 -0.007864768 0.004493935 -0.5899851 0.19519046 0.51538086
11.262302 -10.353023 1.0066369 0.030582732 -0.007923538 -0.5892083 0.1673102 0.505127
7.979431 -14.002174 1.041522 0.006284998 -0.05262236 -0.58766985 0.18778485 0.50056976
5.2887774 -14.765031 1.1738813 -0.03583866 -0.06826623 -0.58499557 0.20770307 0.5004035
10.63886 -12.873464 1.050206 0.04873173 -0.05386477 -0.5855667 0.16781914 0.5006409
1.6314912 -12.794749 1.3841939 -0.07409211 -0.05733151 -0.58257014 0.2377327 0.5058594
6.735548 -5.405703 1.0602181 -0.0053125485 0.005273848 -0.5900071 0.20572919 0.53645843
11.379424 -6.8943205 1.0463758 0.021126924 0.008541561 -0.58961445 0.17028375 0.5173034
14.169443 -5.235991 1.2472901 0.09964081 0.00012297308 -0.58158076 0.14898609 0.5175781
13.652111 -9.008979 1.189436 0.13918886 -0.039403673 -0.57204753 0.14848575 0.5052084
12.642878 -11.802263 1.2031081 0.19446746 -0.13200319 -0.54122275 0.15157717 0.50065106
11.603582 -13.371707 1.2709389 0.21954973 -0.24550499 -0.48958117 0.15625 0.50000006
9.954728 -14.3795185 1.208195 0.14399336 -0.24441992 -0.517387 0.16895941 0.5
7.5766344 -15.278714 1.22064 0.06259763 -0.27402002 -0.5188054 0.1875 0.50000006
5.229839 -15.639927 1.3388162 -0.015918292 -0.3316202 -0.48779002 0.20604065 0.50000006
3.6410937 -15.58746 1.4862359 -0.09786153 -0.38090608 -0.43988422 0.21875001 0.50000006
3.1112974 -15.10913 1.4268193 -0.11344654 -0.16692762 -0.5544633 0.22385688 0.5002171
2.4782815 -14.141068 1.3886647 -0.0927507 -0.0785287 -0.5774037 0.2299865 0.50173616
8.074572 1.359879 3.1992707 0.019840078 0.008851662 0.5896545 0.17057292 0.561632
1.4301884 3.0616808 3.2151165 -0.007971893 0.0090636825 0.5899312 0.25 0.62499994
4.142569 -1.2259712 3.2817602 -0.0017016833 0.004626772 0.59003407 0.21430123 0.55360246
3.9514346 8.405239 3.087995 -0.0005375552 0.025731923 0.5894931 0.21430121 0.69639766
7.179473 5.153965 3.1495838 0.014008485 0.012880466 0.58974767 0.17860243 0.62500006
7.4637747 8.813225 3.0388575 0.013672514 0.024639484 0.5893814 0.17057292 0.6883681
-1.2516494 7.117643 3.0659642 -0.018107757 0.0225778 0.58934444 0.2856988 0.6963976
3.9514346 8.405239 3.087995 -0.0005375552 0.025731923 0.5894931 0.21430121 0.6963976
1.1874874 9.573421 3.0072227 -0.011127534 0.037571497 0.58875215 0.25000003 0.7204862
-3.9196868 1.779598 3.0705743 -0.028561924 0.0054520336 0.5893378 0.32139757 0.62500006
-1.2516494 7.117643 3.0659642 -0.018107757 0.0225778 0.58934444 0.2856988 0.69639766
-4.377984 5.5614805 2.9867134 -0.03318483 0.016817674 0.58888066 0.3294271 0.6883681
-1.6465998 -3.0776498 3.1552148 -0.020895848 -0.0063091693 0.5896508 0.2856988 0.55360246
-3.9196868 1.779598 3.0705743 -0.028561924 0.0054520336 0.5893378 0.3213976 0.6250001
-4.838731 -2.5602853 3.0244966 -0.033506878 -0.006452235 0.58906716 0.3294271 0.561632
4.142569 -1.2259712 3.2817602 -0.0017016833 0.004626772 0.59003407 0.21430123 0.5536025
-1.6465998 -3.0776498 3.1552148 -0.020895848 -0.0063091693 0.5896508 0.28569877 0.55360246
0.9423242 -4.879337 3.2206135 -0.018517293 -0.007702862 0.58971375 0.25000003 0.52951384
12.257707 -0.72296005 2.960318 0.07086363 -0.0010872657 0.5857829 0.12500001 0.50000006
9.1087885 -2.2568653 3.2025514 0.030946665 0.0023726565 0.58923775 0.15625001 0.50000006
11.71258 3.1434796 2.9752107 0.05467989 0.008719385 0.5874509 0.12500001 0.56250006
7.179473 5.153965 3.1495838 0.014008485 0.012880466 0.58974767 0.17860244 0.62500006
5.752947 -4.386709 3.2972608 0.0049053524 0.00013020895 0.5900343 0.18750003 0.50000006
8.276165 11.798543 2.8536034 0.011168924 0.05161908 0.5876863 0.15625001 0.75000006
10.652267 9.96587 2.8689523 0.040192027 0.026456779 0.5880894 0.12500001 0.68750006
10.322961 11.907041 2.778504 0.03295188 0.04813948 0.5871637 0.12500001 0.7500001
5.4481854 11.673382 2.8861928 -0.0013308562 0.057049945 0.58728874 0.18750003 0.75000006
11.064566 6.840612 2.945147 0.045167193 0.015331677 0.58812356 0.12500001 0.62500006
0.93938166 12.28872 2.751368 -0.016194051 0.08680761 0.58340955 0.25000003 0.7500001
2.7982762 11.944889 2.8372598 -0.009212416 0.06919547 0.585911 0.21875001 0.75000006
-0.7190267 11.230479 2.8229222 -0.026107593 0.06413154 0.58597785 0.28125003 0.75000006
5.4481854 11.673382 2.8861928 -0.0013308562 0.057049945 0.58728874 0.18750001 0.75000006
-7.1359572 7.3161726 2.7073388 -0.06776803 0.03332768 0.58520186 0.37500006 0.7500001
-5.4075227 8.435823 2.7978258 -0.045802787 0.041120786 0.5868353 0.34375003 0.75000006
-7.234109 4.8334036 2.7926812 -0.06321664 0.015730891 0.58644754 0.37500003 0.68750006
-3.006979 9.797372 2.8517275 -0.031779192 0.050612453 0.5870204 0.31250003 0.75000006
-6.275059 -6.319023 2.8493576 -0.042771205 -0.029132914 0.5877809 0.34375003 0.50000006
-7.742733 -2.7508352 2.8129082 -0.062192604 -0.0044950205 0.5867507 0.37500003 0.56250006
-7.980621 -5.519023 2.7386122 -0.06534493 -0.021206748 0.5860417 0.37500006 0.50000006
-3.8324735 -7.2354174 2.9511027 -0.03256358 -0.03360399 0.5881963 0.31250003 0.50000006
-7.3752656 1.1440544 2.8430777 -0.0603287 0.006399649 0.58692753 0.37500003 0.6250001
2.768663 -7.0430975 3.2433538 -0.016952451 -0.0111158425 0.5897063 0.21875001 0.50000006
-1.4698135 -8.383338 3.0093584 -0.033340424 -0.03906324 0.5878154 0.28125003 0.50000006
0.40702158 -9.659903 3.0332732 -0.040765412 -0.044654317 0.58694863 0.25000003 0.50000006
5.752947 -4.386709 3.2972608 0.0049053524 0.00013020895 0.5900343 0.18750001 0.50000006
-3.8324735 -7.2354174 2.9511027 -0.03256358 -0.03360399 0.5881963 0.31250006 0.50000006
3.825121 -9.022945 3.233665 -0.013833104 -0.019035596 0.58958524 0.21422587 0.5
6.859714 -9.480955 3.1982489 0.025701985 -0.032443035 0.5886012 0.18750003 0.50000006
6.5898557 -7.1286244 3.275908 0.013916979 -0.010004981 0.5898056 0.18750001 0.5
4.3489285 -10.750253 3.170525 -0.005284627 -0.04044832 0.58864295 0.21055172 0.50000006
6.819355 -11.444747 3.0400457 0.037710458 -0.07172139 0.5844643 0.18750001 0.50000006
9.507654 -8.385011 3.0764332 0.058017164 -0.03406797 0.5862063 0.16450258 0.50010854
9.570345 -5.5456104 3.1652207 0.044590063 -0.010780905 0.5882686 0.16088945 0.5002306
9.145925 -10.681902 2.9208908 0.06681363 -0.06859667 0.5822327 0.16746818 0.5000136
0.40702158 -9.659903 3.0332732 -0.040765412 -0.044654317 0.58694863 0.25 0.5
1.5828834 -10.898347 3.0318866 -0.048204575 -0.0489992 0.5860374 0.23651202 0.5
2.2908702 -12.039087 2.9859605 -0.04357698 -0.06912969 0.5843685 0.22955248 0.50000006
4.608243 -12.22978 3.0290136 0.0071088956 -0.08089812 0.58443946 0.20753862 0.50000006
3.3257437 -13.703924 2.7512736 -0.018556047 -0.14864028 0.57072425 0.21875001 0.50000006
2.8414788 -13.031753 2.8787746 -0.03175856 -0.10848463 0.57912606 0.22380263 0.50000006
6.7124653 -13.081077 2.7761898 0.047063805 -0.1279645 0.57408583 0.1875 0.50000006
8.870359 -12.456522 2.6745582 0.07639168 -0.11862225 0.5729376 0.16895941 0.50000006
10.464876 -11.827408 2.5524397 0.10695796 -0.11200859 0.5693668 0.15625001 0.50000006
11.189969 -10.225374 2.677713 0.10976776 -0.077110924 0.57460374 0.15125164 0.50010854
11.91586 -7.6494846 2.809639 0.10388557 -0.04386359 0.5791789 0.14588156 0.5008681
12.319173 -4.4064817 2.9052448 0.089259684 -0.018182555 0.5829808 0.1397901 0.5026042
12.257707 -0.72296005 2.960318 0.07086363 -0.0010872657 0.5857829 0.125 0.5
-10.9337015 -3.4664893 1.758944 -0.34941277 -0.020094357 -0.47504884 0.3522977 0.5849363
-11.085612 0.70091826 2.1218252 -0.548485 0.03339401 0.21497346 0.36612657 0.62500006
-10.865696 0.9353156 1.7428558 -0.35256422 0.034366835 -0.47189182 0.35469717 0.62500006
-9.950143 -3.404987 2.498845 -0.13246779 -0.009141154 0.57492024 0.36965382 0.57177883
-11.12504 -3.800556 2.124195 -0.5533931 -0.068816595 0.19283369 0.3630462 0.5790052
-10.448071 5.153292 2.1276093 -0.5230924 0.11527745 0.24748716 0.36304614 0.6709949
-10.295702 5.230151 1.7734904 -0.38086995 0.09460506 -0.44062737 0.3522977 0.66506374
-9.830529 0.78199106 2.5107117 -0.13000296 0.010856914 0.57545274 0.3719377 0.625
-9.301524 -2.8421938 1.471997 -0.06657079 -0.007069917 -0.5862447 0.33445656 0.5879187
-10.242629 -7.0669947 1.7866845 -0.31135175 -0.111335084 -0.4887014 0.3434295 0.55250335
-9.37072 -6.799616 2.491661 -0.1233797 -0.048143797 0.5749993 0.36003214 0.529526
-10.355718 -7.5398903 2.1356554 -0.5069261 -0.2691358 0.13695347 0.35247877 0.5417631
-7.980621 -5.519023 2.7386122 -0.06534493 -0.021206748 0.5860417 0.375 0.5
-9.340313 4.893142 2.490346 -0.1323415 0.029232044 0.5742784 0.36965382 0.67822117
-7.1359572 7.3161726 2.7073388 -0.06776803 0.03332768 0.58520186 0.375 0.75
-8.332429 8.210301 2.4738941 -0.12491382 0.063729584 0.57314885 0.36003214 0.7204741
-9.196428 8.843526 2.140974 -0.46246955 0.26249552 0.25569996 0.3524788 0.7082369
-9.149364 8.720625 1.8138895 -0.3726976 0.19597267 -0.41334692 0.34342948 0.6974967
-8.737927 5.5197463 1.4967418 -0.07226442 0.020743694 -0.5852453 0.33445662 0.6620813
-8.988204 1.4852931 1.4399617 -0.064476274 0.0076015713 -0.5864721 0.33429784 0.62500006
15.543633 -4.1693363 1.6036265 0.49489397 -0.06448208 -0.31478003 0.13547035 0.51726615
14.746499 -7.5974684 1.9604926 0.41967425 -0.11497521 0.39852065 0.13229409 0.5043403
14.790995 -8.104043 1.527255 0.52411497 -0.15926339 -0.21932429 0.13668711 0.5050999
14.398013 -3.7825527 2.5116682 0.17039965 -0.031367835 0.564043 0.13044174 0.5095758
15.5455675 -3.697721 2.0513172 0.47826612 -0.051776174 0.34168008 0.12957388 0.5150825
13.461038 -10.810318 1.8898468 0.35217118 -0.18835388 0.43435323 0.13829362 0.5005426
13.5278015 -11.213003 1.4972291 0.49922836 -0.28371516 -0.13579862 0.14169458 0.50063753
13.729902 -7.4142947 2.4147253 0.18103471 -0.06454353 0.55787545 0.1351409 0.5026042
15.745585 0.26596066 1.6921036 0.41791183 0.0019601544 -0.4165458 0.13677302 0.5412327
14.609215 0.24812558 2.5829644 0.15032451 -0.006620369 0.5705464 0.12673612 0.52913415
15.852248 0.6028392 2.134562 0.5268502 0.009314619 0.2655308 0.12890628 0.5381945
12.644537 -10.38337 2.3122783 0.17580244 -0.10724337 0.5529529 0.1415013 0.50032556
11.189969 -10.225374 2.677713 0.10976776 -0.077110924 0.57460374 0.15125166 0.50010854
11.110372 -12.520219 2.2597222 0.14705785 -0.15578212 0.5497912 0.15169172 0.5
11.665779 -13.184785 1.8623142 0.26010293 -0.27211756 0.45438197 0.14940202 0.50000006
11.80427 -13.441255 1.4985802 0.40889555 -0.4251353 -0.015128529 0.1516917 0.50000006
1.361896 -14.672217 2.1917691 -0.25001463 -0.40309787 0.3509548 0.23699127 0.5000272
0.9493086 -14.395319 1.7784514 -0.30060056 -0.36665556 -0.35123706 0.24122904 0.5007325
1.8067656 -15.088046 1.7825265 -0.2644143 -0.487426 -0.20165665 0.23366997 0.5000916
1.735904 -13.914726 2.582024 -0.08052202 -0.18070917 0.5559001 0.23366319 0.50000346
0.47196895 -14.038569 2.2231894 -0.32104227 -0.4030331 0.2875077 0.2449846 0.500217
0.01611936 -13.529288 1.7763295 -0.2480934 -0.31691143 -0.43148732 0.24939871 0.5024719
0.95304424 -13.19511 2.6501737 -0.10144843 -0.14518048 0.56284577 0.2411748 0.5000271
-0.4523952 -13.344394 2.2330685 -0.28844842 -0.4373387 0.27147168 0.2533336 0.5007324
2.9898279 -15.57623 1.7536521 -0.17294778 -0.5621572 -0.047252417 0.22330832 0.5
3.1112974 -15.10913 1.4268193 -0.11344654 -0.16692762 -0.5544633 0.22385688 0.500217
2.6233194 -15.175008 2.1345153 -0.10222046 -0.375318 0.44367984 0.22559802 0.50000006
2.8265657 -14.436563 2.5041833 -0.036288556 -0.21402104 0.5486735 0.22330832 0.5
2.8414788 -13.031753 2.8787746 -0.03175856 -0.10848463 0.57912606 0.22380264 0.50000006
2.2908702 -12.039087 2.9859605 -0.04357698 -0.06912969 0.5843685 0.22955248 0.5
0.10914534 -12.409017 2.6773157 -0.0936459 -0.12583297 0.56882423 0.24939194 0.50009155
-1.1686078 -11.629441 2.6726155 -0.065678746 -0.12391886 0.5731448 0.26293948 0.500217
-1.8183327 -12.674551 2.2260232 -0.21723661 -0.50360507 0.21761127 0.26605907 0.50173616
-1.408128 -12.6007 1.7729034 -0.15484205 -0.30753842 -0.47917485 0.26177302 0.50585943
0.19603008 -11.213355 1.3926642 -0.04952808 -0.055149935 -0.58538014 0.25 0.5138889
1.6314912 -12.794749 1.3841939 -0.07409211 -0.05733151 -0.58257014 0.23773272 0.50585943
2.4782815 -14.141068 1.3886647 -0.0927507 -0.0785287 -0.5774037 0.2299865 0.5017361
3.7930956 14.821898 2.2288456 -0.05681066 0.45950755 0.36577293 0.22028115 0.7456597
6.7446775 15.09474 1.8707719 -0.0253936 0.40208897 -0.43109635 0.19765148 0.7296972
3.6375713 14.841888 1.8881397 -0.06160385 0.4865761 -0.3280444 0.22364037 0.73681235
6.464386 13.992183 2.5879955 -0.00747485 0.124618396 0.5766965 0.18903117 0.7469378
6.933972 15.216819 2.2316256 -0.019039346 0.52533364 0.2680048 0.19193675 0.74112666
9.7323475 15.050783 1.8858342 0.049408965 0.3598246 -0.4650264 0.17406198 0.71778303
9.277806 14.022843 2.5728908 0.017101478 0.115921035 0.578303 0.16128278 0.7400943
9.894427 15.217228 2.2308836 0.107068606 0.5395819 0.2134295 0.1666727 0.7304326
0.6604052 14.385141 1.901628 -0.10464973 0.53362197 -0.22904259 0.25 0.73936236
2.8068264 13.69918 1.6006656 -0.010339582 0.10621024 -0.5803248 0.23222597 0.72128385
0.6817481 14.25888 2.2201996 -0.08291217 0.4059899 0.42007416 0.25 0.7467206
3.5616689 13.777969 2.5644627 -0.019527048 0.13893491 0.573132 0.21906346 0.7492134
0.8001879 13.399676 2.5349135 -0.031376436 0.15413049 0.56870365 0.25000003 0.7495901
10.322961 11.907041 2.778504 0.03295188 0.04813948 0.5871637 0.125 0.75
11.535362 13.32717 2.5548787 0.066653945 0.092888184 0.5788726 0.13996795 0.7204741
12.338914 14.347226 2.2287564 0.3436287 0.43932834 0.19254719 0.14752121 0.70823693
12.134498 14.242423 1.9006467 0.20035122 0.3035057 -0.46465924 0.15657051 0.6974968
9.023635 13.482619 1.5960631 0.01379518 0.07009988 -0.5857134 0.18331748 0.69762945
5.8326325 13.470171 1.5592644 -0.0007643858 0.078049086 -0.58486944 0.2078511 0.7092979
-7.304071 11.27574 2.1607785 -0.35883904 0.41262814 0.22166881 0.3333273 0.73043257
-4.8486996 12.628072 1.8235154 -0.16679698 0.3625378 -0.4346373 0.30234858 0.7296972
-7.2769675 11.075555 1.8165011 -0.26026076 0.27327242 -0.4535978 0.32593802 0.717783
-6.5585313 10.345168 2.508339 -0.0884076 0.092544146 0.5760071 0.33871728 0.74009424
-4.9285088 12.724491 2.183272 -0.22856325 0.47813916 0.25943452 0.30806327 0.7411265
-2.2453172 13.621775 2.2042317 -0.14170025 0.44557977 0.3599225 0.27971888 0.74565977
-2.1573937 13.685898 1.8645182 -0.14140433 0.4700007 -0.3275189 0.27635968 0.7368124
-4.2673717 11.716 2.5442514 -0.05870501 0.11331732 0.576088 0.31096888 0.7469377
-6.6223607 9.602646 1.5322876 -0.05371241 0.05612062 -0.5849188 0.31668255 0.69762933
-1.7859459 12.712037 2.542665 -0.045532495 0.13515499 0.57255954 0.28093654 0.74921334
0.93938166 12.28872 2.751368 -0.016194051 0.08680761 0.58340955 0.25 0.75
-1.2567108 12.872445 1.5841019 -0.030408312 0.10202157 -0.5803718 0.26777405 0.72128385
-3.9320025 11.292513 1.5194626 -0.032596424 0.06920202 -0.5850753 0.29214892 0.7092978
14.004734 12.209721 2.225594 0.50585496 0.2566379 0.16251844 0.13668409 0.67091054
14.676525 8.92479 1.8124871 0.27210647 0.070992954 -0.51873165 0.14284188 0.62305903
13.675909 12.178097 1.8668928 0.26552996 0.15179192 -0.5045964 0.1473947 0.664821
12.913752 11.3172455 2.5821133 0.100153185 0.049823403 0.57935435 0.13019045 0.67821056
15.046198 8.972336 2.2148247 0.55379903 0.1314138 0.15556839 0.13171539 0.62432486
15.667102 4.965086 2.1878066 0.55410767 0.06536423 0.19198085 0.12950154 0.57695556
15.403335 4.794954 1.758584 0.3239336 0.04106582 -0.4914724 0.13941352 0.57888603
13.756469 8.197716 2.6153011 0.11280401 0.025174895 0.5786242 0.12681599 0.6249157
14.350578 4.3716397 2.6179414 0.12866084 0.010633076 0.57575846 0.12579328 0.5715226
13.302619 3.7596524 1.4040675 0.05815475 0.01853552 -0.58688927 0.1586854 0.5790895
12.407473 8.033626 1.4772229 0.050379053 0.021958966 -0.5874898 0.16358025 0.6222994
9.390215 -14.653303 1.8920794 0.15549752 -0.32840213 0.46490538 0.16667874 0.50000006
7.194827 -15.686813 1.5460091 0.10963913 -0.57950944 -0.017678343 0.18750004 0.50000006
9.630017 -14.902485 1.5013869 0.2513 -0.5318394 -0.04647208 0.16774018 0.5
9.052329 -13.787098 2.3118558 0.09733009 -0.18548445 0.5516221 0.16774018 0.50000006
6.9047356 -15.349379 1.9631438 0.068505555 -0.3448755 0.47384843 0.18750001 0.50000006
4.851715 -15.843486 1.6510549 -0.015414532 -0.5882852 0.042980906 0.20725982 0.50000006
6.7349534 -14.4252405 2.3979726 0.053869676 -0.20443337 0.55088073 0.18750004 0.50000006
4.5395675 -15.458752 2.0519023 -0.0039027368 -0.35287598 0.47289297 0.2083213 0.50000006
9.954728 -14.3795185 1.208195 0.14399336 -0.24441992 -0.517387 0.16895936 0.50000006
8.870359 -12.456522 2.6745582 0.07639168 -0.11862225 0.5729376 0.1689594 0.50000006
4.676108 -13.498299 2.794569 0.016979787 -0.13899784 0.57319784 0.20604064 0.50000006
4.5459375 -14.616073 2.4560866 0.013394622 -0.21867487 0.5478744 0.20725983 0.50000006
5.229839 -15.639927 1.3388162 -0.015918292 -0.3316202 -0.48779002 0.20604064 0.50000006
-3.8849254 -12.053126 2.2069788 -0.19200261 -0.5414593 0.13461521 0.28584948 0.5037465
-6.144469 -10.665149 1.7592955 -0.091078155 -0.19890484 -0.5480019 0.3035964 0.51981765
-3.5878778 -11.68703 1.7623382 -0.0914894 -0.25239566 -0.5254432 0.2807542 0.5114494
-5.4656987 -10.026418 2.6057558 -0.05596095 -0.10247013 0.57838804 0.31216243 0.5030412
-6.317844 -11.246517 2.181744 -0.23929578 -0.531376 0.092420675 0.3097994 0.50870466
-8.634879 -9.913487 2.1562085 -0.37562796 -0.44572502 0.09163689 0.33354428 0.51954633
-8.5381975 -9.300358 1.7757797 -0.17158064 -0.1694627 -0.53852296 0.32609403 0.53215635
-7.7372084 -8.841313 2.540905 -0.08389345 -0.083732456 0.57802707 0.33886647 0.5099032
-2.0938392 -9.564757 1.3970175 -0.031311594 -0.048649732 -0.58721143 0.26899478 0.52627087
-3.1246223 -10.878819 2.649777 -0.05077466 -0.11640947 0.57622504 0.2853243 0.50071245
-7.608564 -6.894767 1.4747117 -0.0401017 -0.03675908 -0.5875416 0.31673682 0.55228627
-4.8867702 -8.0793 1.4168675 -0.02659194 -0.040419865 -0.5880677 0.29258296 0.5400271
-3.9320025 11.292513 1.5194626 -0.032596424 0.06920202 -0.5850753 0.29214895 0.7092979
11.064566 6.840612 2.945147 0.045167193 0.015331677 0.58812356 0.12500001 0.6250001
-3.006979 9.797372 2.8517275 -0.031779192 0.050612453 0.5870204 0.31250006 0.75000006
-7.3752656 1.1440544 2.8430777 -0.0603287 0.006399649 0.58692753 0.37500003 0.62500006
1.5828834 -10.898347 3.0318866 -0.048204575 -0.0489992 0.5860374 0.23651198 0.5
3 0 1 2
3 3 4 5
3 6 7 8
3 9 1 10
3 11 12 13
3 14 15 16
3 17 0 18
3 19 20 0
3 18 2 21
3 22 23 24
3 25 5 22
3 5 26 23
3 27 8 28
3 29 8 30
3 8 31 28
3 32 9 33
3 34 35 9
3 33 10 36
3 37 13 38
3 39 11 13
3 38 12 40
3 41 42 43
3 21 16 41
3 16 44 42
3 45 46 47
3 48 49 46
3 47 50 51
3 46 52 50
3 24 45 53
3 23 48 45
3 54 55 48
3 19 56 55
3 55 57 49
3 49 58 52
3 52 59 60
3 50 60 61
3 51 61 62
3 51 63 64
3 47 64 65
3 53 47 65
3 66 67 68
3 69 70 71
3 72 73 74
3 75 76 77
3 78 79 80
3 81 82 83
3 84 66 85
3 86 87 66
3 85 68 88
3 89 90 91
3 92 71 89
3 71 93 90
3 94 74 95
3 96 72 74
3 95 73 97
3 98 77 99
3 100 75 77
3 99 76 101
3 102 103 104
3 105 80 102
3 80 106 103
3 107 108 109
3 110 83 107
3 108 82 111
3 112 113 114
3 115 116 113
3 114 117 118
3 113 119 117
3 120 112 107
3 121 115 112
3 122 123 115
3 124 123 125
3 123 126 116
3 116 127 119
3 119 128 129
3 117 129 130
3 118 130 131
3 85 131 132
3 110 118 85
3 107 114 110
3 133 134 135
3 136 134 137
3 135 138 139
3 140 138 134
3 27 133 141
3 142 137 133
3 143 137 144
3 145 136 143
3 103 140 136
3 106 146 140
3 146 147 148
3 138 148 149
3 139 149 150
3 139 32 151
3 152 139 151
3 141 135 152
3 153 154 155
3 156 154 157
3 155 158 159
3 160 158 154
3 17 153 56
3 161 157 153
3 162 157 163
3 132 156 162
3 131 160 156
3 130 164 160
3 165 166 164
3 158 166 167
3 159 167 168
3 58 168 59
3 57 159 58
3 56 155 57
3 169 170 171
3 172 173 169
3 173 174 170
3 175 176 173
3 177 178 63
3 179 171 177
3 180 169 179
3 180 181 172
3 181 175 172
3 182 183 175
3 183 120 184
3 176 184 185
3 176 186 174
3 174 187 188
3 170 188 189
3 171 189 178
3 190 191 192
3 190 193 194
3 194 195 191
3 194 196 197
3 198 199 37
3 200 192 198
3 200 201 190
3 202 95 201
3 201 97 193
3 193 89 196
3 196 203 204
3 197 204 205
3 197 206 195
3 195 43 207
3 191 207 208
3 192 208 199
3 209 210 211
3 212 213 209
3 210 214 215
3 216 214 213
3 150 217 32
3 149 211 150
3 149 212 209
3 147 212 148
3 99 216 212
3 101 218 216
3 218 219 202
3 218 200 214
3 215 200 198
3 220 198 37
3 221 215 220
3 211 221 217
3 222 223 224
3 225 226 222
3 223 227 228
3 229 227 226
3 43 224 41
3 205 224 206
3 204 222 205
3 203 225 204
3 90 229 225
3 93 230 229
3 86 162 230
3 230 163 227
3 228 163 161
3 231 161 17
3 232 228 231
3 41 223 232
3 233 234 235
3 236 237 233
3 237 238 234
3 239 240 237
3 168 241 59
3 167 235 168
3 167 236 233
3 166 242 236
3 236 126 239
3 239 243 244
3 244 124 180
3 244 179 240
3 240 177 238
3 238 63 245
3 234 245 61
3 235 61 241
3 246 247 248
3 246 249 250
3 247 251 252
3 250 253 251
3 186 254 187
3 185 248 186
3 185 255 246
3 184 108 255
3 255 111 249
3 249 102 253
3 253 145 143
3 253 144 251
3 252 144 142
3 256 142 27
3 257 252 256
3 248 257 254
3 0 20 1
3 3 1 4
3 6 1 7
3 9 35 1
3 11 1 12
3 14 1 15
3 17 19 0
3 19 26 20
3 18 0 2
3 22 5 23
3 25 3 5
3 5 4 26
3 27 30 8
3 29 6 8
3 8 7 31
3 32 34 9
3 34 258 35
3 33 9 10
3 37 39 13
3 39 208 11
3 38 13 12
3 41 16 42
3 21 14 16
3 16 15 44
3 45 48 46
3 48 55 49
3 47 46 50
3 46 49 52
3 24 23 45
3 23 54 48
3 54 19 55
3 19 17 56
3 55 56 57
3 49 57 58
3 52 58 59
3 50 52 60
3 51 50 61
3 51 62 63
3 47 51 64
3 53 45 47
3 66 87 67
3 69 67 70
3 72 67 73
3 75 67 76
3 78 67 79
3 81 67 82
3 84 86 66
3 86 259 87
3 85 66 68
3 89 71 90
3 92 69 71
3 71 70 93
3 94 96 74
3 96 260 72
3 95 74 73
3 98 100 77
3 100 261 75
3 99 77 76
3 102 80 103
3 105 78 80
3 80 79 106
3 107 83 108
3 110 81 83
3 108 83 82
3 112 115 113
3 115 123 116
3 114 113 117
3 113 116 119
3 120 121 112
3 121 122 115
3 122 125 123
3 124 243 123
3 123 243 126
3 116 126 127
3 119 127 128
3 117 119 129
3 118 117 130
3 85 118 131
3 110 114 118
3 107 112 114
3 133 137 134
3 136 140 134
3 135 134 138
3 140 146 138
3 27 142 133
3 142 144 137
3 143 136 137
3 145 103 136
3 103 106 140
3 106 100 146
3 146 100 147
3 138 146 148
3 139 138 149
3 139 150 32
3 152 135 139
3 141 133 135
3 153 157 154
3 156 160 154
3 155 154 158
3 160 164 158
3 17 161 153
3 161 163 157
3 162 156 157
3 132 131 156
3 131 130 160
3 130 165 164
3 165 128 166
3 158 164 166
3 159 158 167
3 58 159 168
3 57 155 159
3 56 153 155
3 169 173 170
3 172 175 173
3 173 176 174
3 175 183 176
3 177 171 178
3 179 169 171
3 180 172 169
3 180 124 181
3 181 182 175
3 182 262 183
3 183 262 120
3 176 183 184
3 176 185 186
3 174 186 187
3 170 174 188
3 171 170 189
3 190 194 191
3 190 201 193
3 194 197 195
3 194 193 196
3 198 192 199
3 200 190 192
3 200 202 201
3 202 219 95
3 201 95 97
3 193 97 89
3 196 89 203
3 197 196 204
3 197 205 206
3 195 206 43
3 191 195 207
3 192 191 208
3 209 213 210
3 212 216 213
3 210 213 214
3 216 218 214
3 150 211 217
3 149 209 211
3 149 148 212
3 147 99 212
3 99 101 216
3 101 96 218
3 218 96 219
3 218 202 200
3 215 214 200
3 220 215 198
3 221 210 215
3 211 210 221
3 222 226 223
3 225 229 226
3 223 226 227
3 229 230 227
3 43 206 224
3 205 222 224
3 204 225 222
3 203 90 225
3 90 93 229
3 93 86 230
3 86 132 162
3 230 162 163
3 228 227 163
3 231 228 161
3 232 223 228
3 41 224 223
3 233 237 234
3 236 239 237
3 237 240 238
3 239 244 240
3 168 235 241
3 167 233 235
3 167 166 236
3 166 128 242
3 236 242 126
3 239 126 243
3 244 243 124
3 244 180 179
3 240 179 177
3 238 177 63
3 234 238 245
3 235 234 61
3 246 250 247
3 246 255 249
3 247 250 251
3 250 249 253
3 186 248 254
3 185 246 248
3 185 184 255
3 184 120 108
3 255 108 111
3 249 111 102
3 253 102 145
3 253 143 144
3 252 251 144
3 256 252 142
3 257 247 252
3 248 247 257
