ply
format ascii 1.0
comment Created in Blender version 4.1.1
element vertex 258
property float x
property float y
property float z
property float nx
property float ny
property float nz
property float s
property float t
element face 416
property list uchar uint vertex_indices
end_header
9.340543 1.7728038 1.1843691 -0.014495294 -0.012881822 0.58973587 0.17057292 0.561632
1.1005993 3.9717906 1.1728814 0.00392548 -0.008909147 0.58997434 0.25 0.62499994
4.5914397 -1.3449998 1.1073914 0.0031626648 -0.004987695 0.59002507 0.21430123 0.55360246
4.1357307 10.171203 1.3351891 -0.0017627091 -0.027751345 0.58939904 0.21430121 0.69639766
8.088371 6.3718667 1.2631238 -0.012816535 -0.015101434 0.58972216 0.17860243 0.62500006
8.294646 10.527457 1.3955183 -0.013986545 -0.027303392 0.5892566 0.17057292 0.6883681
-2.103864 8.621107 1.3109608 0.011875458 -0.024163337 0.58944005 0.2856988 0.6963976
4.1357307 10.171203 1.3351891 -0.0017627091 -0.027751345 0.58939904 0.21430121 0.6963976
0.85905796 11.410758 1.4059286 0.0074113454 -0.0429202 0.58844495 0.25000003 0.7204862
-5.763371 6.6490364 1.3441105 0.025649915 -0.018482814 0.5892071 0.3294271 0.6883681
-2.103864 8.621107 1.3109608 0.011875458 -0.024163337 0.58944005 0.2856988 0.69639766
-2.5586088 -3.3831398 1.2164314 0.013358805 0.00739846 0.589857 0.2856988 0.55360246
-5.310549 2.367228 1.259337 0.019613236 -0.004932633 0.5897079 0.3213976 0.6250001
-6.302865 -2.687614 1.3027713 0.023823662 0.008264651 0.58951557 0.3294271 0.561632
4.5914397 -1.3449998 1.1073914 0.0031626648 -0.004987695 0.59002507 0.21430123 0.5536025
-2.5586088 -3.3831398 1.2164314 0.013358805 0.00739846 0.589857 0.28569877 0.55360246
0.6703947 -5.7132945 1.1767669 0.01506219 0.008766049 0.5897972 0.25000003 0.52951384
14.048007 -0.83773106 1.3325839 -0.07444232 -0.014348478 0.58516407 0.12500001 0.50000006
10.745837 -2.7533643 1.1192307 -0.017133273 -0.012489031 0.5896736 0.15625001 0.50000006
13.302617 3.7596524 1.404067 -0.058154713 -0.01853552 0.58688927 0.12500001 0.56250006
8.088371 6.3718667 1.2631238 -0.012816535 -0.015101434 0.58972216 0.17860244 0.62500006
6.735548 -5.405703 1.0602179 0.0053125666 -0.0052738534 0.5900072 0.18750003 0.50000006
9.023634 13.482617 1.5960631 -0.013795138 -0.0700999 0.5857134 0.15625001 0.75000006
11.775945 11.439145 1.5741162 -0.049076635 -0.034481112 0.58699834 0.12500001 0.68750006
11.2357025 13.371868 1.6724834 -0.044867776 -0.069976605 0.5841701 0.12500001 0.7500001
5.8326325 13.470171 1.5592651 0.0007643262 -0.07804903 0.58486944 0.18750003 0.75000006
12.407474 8.033626 1.4772229 -0.050379153 -0.021958988 0.5874898 0.12500001 0.62500006
0.70559555 13.862491 1.6778479 0.032436017 -0.1619508 0.5664665 0.25000003 0.7500001
2.8068264 13.69918 1.6006656 0.010339471 -0.10621016 0.5803248 0.21875001 0.75000006
-1.2567108 12.872445 1.5841014 0.03040845 -0.102021664 0.58037174 0.28125003 0.75000006
5.8326325 13.470171 1.5592651 0.0007643262 -0.07804903 0.58486944 0.18750001 0.75000006
-8.420436 8.152698 1.5923612 0.08690878 -0.053894155 0.58112544 0.37500006 0.7500001
-6.6223607 9.602647 1.5322876 0.053712316 -0.056120638 0.58491874 0.34375003 0.75000006
-8.737927 5.5197463 1.4967418 0.072264284 -0.020743694 0.5852453 0.37500003 0.68750006
-5.310549 2.367228 1.259337 0.019613236 -0.004932633 0.5897079 0.32139757 0.62500006
-3.9320028 11.292511 1.5194626 0.03259638 -0.06920192 0.5850753 0.31250003 0.75000006
-9.350396 -5.889202 1.553854 0.07312287 0.03206374 0.5846276 0.37500006 0.50000006
-9.301524 -2.842194 1.471997 0.0665708 0.0070699253 0.5862447 0.37500003 0.56250006
-4.88677 -8.079299 1.416868 0.026591955 0.040419854 0.5880677 0.31250003 0.50000006
-7.608565 -6.894766 1.4747117 0.040101714 0.036759082 0.58754164 0.34375003 0.50000006
-8.988204 1.4852931 1.4399612 0.06447622 -0.007601538 0.5864721 0.37500003 0.6250001
3.0298223 -8.528693 1.1511815 0.021841759 0.009041427 0.5895809 0.21875001 0.50000006
-2.0938392 -9.564757 1.3970175 0.031311736 0.04864972 0.58721143 0.28125003 0.50000006
0.19603008 -11.213357 1.3926637 0.049528047 0.05515003 0.58538014 0.25000003 0.50000006
6.735548 -5.405703 1.0602179 0.0053125666 -0.0052738534 0.5900072 0.18750001 0.50000006
-4.88677 -8.079299 1.416868 0.026591955 0.040419854 0.5880677 0.31250006 0.50000006
4.3955564 -11.105144 1.1218762 0.03040903 0.008905367 0.58920324 0.21422587 0.5
8.165578 -11.870168 0.9850452 0.0060511455 0.0065822755 0.58998686 0.18750003 0.50000006
7.8513384 -8.951906 1.0071671 0.007864806 -0.00449391 0.58998513 0.18750001 0.5
5.038749 -13.228727 1.116477 0.036332242 0.020744205 0.5885695 0.21055172 0.50000006
7.979432 -14.002176 1.0415223 -0.0062850155 0.05262226 0.5876699 0.18750001 0.50000006
11.262302 -10.353024 1.0066364 -0.030582786 0.00792358 0.5892083 0.16450258 0.50010854
11.379424 -6.8943205 1.0463755 -0.021126958 -0.008541531 0.58961445 0.16088945 0.5002306
10.63886 -12.873465 1.0502062 -0.048731737 0.053864833 0.5855667 0.16746818 0.5000136
0.19603008 -11.213357 1.3926637 0.049528047 0.05515003 0.58538014 0.25 0.5
1.6314917 -12.794748 1.3841941 0.074092016 0.05733146 0.5825702 0.23651202 0.5
3.1112974 -15.109132 1.4268193 0.11344665 0.16692804 0.55446315 0.22380263 0.50000006
2.4782817 -14.14107 1.3886647 0.09275076 0.07852872 0.5774037 0.22955248 0.50000006
3.6410937 -15.58746 1.4862363 0.09786187 0.3809078 0.43988276 0.21875001 0.50000006
5.288778 -14.765031 1.1738813 0.035838645 0.06826614 0.58499557 0.20753862 0.50000006
7.5766335 -15.278716 1.22064 -0.06259798 0.27402067 0.5188051 0.1875 0.50000006
9.954729 -14.3795185 1.2081947 -0.14399453 0.24442168 0.51738584 0.16895941 0.5
11.60358 -13.371707 1.2709389 -0.21954879 0.24550413 0.48958197 0.15625 0.50000006
12.642879 -11.802262 1.2031083 -0.19446753 0.13200326 0.5412227 0.15125164 0.50010854
13.652113 -9.008978 1.1894364 -0.13918895 0.039403703 0.5720475 0.14588156 0.5008681
14.169445 -5.235991 1.2472899 -0.09964112 -0.00012291646 0.5815807 0.1397901 0.5026042
14.048007 -0.83773106 1.3325839 -0.07444232 -0.014348478 0.58516407 0.125 0.5
8.074572 1.359879 3.1992707 -0.019840064 -0.008851717 -0.5896545 0.18872382 0.57827365
1.4301884 3.061681 3.2151165 0.007971894 -0.009063675 -0.5899312 0.24976985 0.6245398
7.179473 5.1539645 3.1495833 -0.014008468 -0.0128804585 -0.5897477 0.19682667 0.62306714
-1.6466002 -3.0776498 3.1552143 0.020895809 0.006309139 -0.5896508 0.27597648 0.57253915
4.1425676 -1.2259712 3.2817597 0.0017017159 -0.004626744 -0.59003407 0.22278696 0.5705739
0.942324 -4.8793364 3.220613 0.018517265 0.00770278 -0.58971375 0.24985205 0.5488781
-3.919687 1.7795985 3.0705743 0.028561987 -0.005452009 -0.58933777 0.30190885 0.6249661
-1.6466002 -3.0776498 3.1552143 0.020895809 0.006309139 -0.5896508 0.27597645 0.5725391
-4.838731 -2.560285 3.024496 0.033506837 0.006452192 -0.58906716 0.30749798 0.5843134
-1.2516494 7.117643 3.0659642 0.01810775 -0.022577789 -0.58934444 0.27594855 0.67689705
-3.919687 1.7795985 3.0705743 0.028561987 -0.005452009 -0.58933777 0.30190882 0.6249661
-4.3779836 5.5614805 2.986713 0.03318482 -0.016817672 -0.58888066 0.30749118 0.6656169
3.951435 8.405239 3.0879946 0.0005376162 -0.025731908 -0.5894931 0.22400163 0.6768549
-1.2516494 7.117643 3.0659642 0.01810775 -0.022577789 -0.58934444 0.27594858 0.67689705
1.1874874 9.5734215 3.0072217 0.011127512 -0.03757146 -0.58875215 0.24999711 0.6993596
7.179473 5.1539645 3.1495833 -0.014008468 -0.0128804585 -0.5897477 0.19682668 0.6230672
3.951435 8.405239 3.0879946 0.0005376162 -0.025731908 -0.5894931 0.22400165 0.6768549
7.4637747 8.813224 3.0388575 -0.013672458 -0.024639469 -0.5893814 0.19235112 0.6653848
12.257707 -0.72295976 2.960319 -0.07086383 0.0010871611 -0.58578295 0.15277779 0.54166675
11.712581 3.1434798 2.9752102 -0.054679845 -0.008719346 -0.587451 0.1586854 0.5790896
9.108789 -2.256865 3.2025514 -0.030946616 -0.0023725866 -0.5892378 0.17762586 0.5410157
4.1425676 -1.2259712 3.2817597 0.0017017159 -0.004626744 -0.59003407 0.22278698 0.5705739
11.064567 6.8406124 2.9451475 -0.04516717 -0.015331632 -0.5881236 0.16358025 0.6222995
-1.4698133 -8.383338 3.009359 0.03334046 0.039063267 -0.5878154 0.26899478 0.52627075
2.768662 -7.043097 3.2433538 0.016952435 0.011115738 -0.5897063 0.2307943 0.52582467
0.40702158 -9.659902 3.0332737 0.040765367 0.04465438 -0.58694863 0.25000003 0.51388896
5.7529473 -4.3867087 3.2972603 -0.004905306 -0.00013018234 -0.5900343 0.20572919 0.5364584
-7.742733 -2.7508354 2.8129086 0.062192604 0.004495029 -0.5867507 0.33445656 0.58791876
-6.2750597 -6.319023 2.8493576 0.0427714 0.02913291 -0.5877809 0.31673682 0.5522863
-7.980621 -5.5190234 2.7386117 0.06534495 0.021206826 -0.5860417 0.33333334 0.5625
-7.3752656 1.1440542 2.8430767 0.06032854 -0.006399666 -0.5869276 0.3342978 0.62500006
-3.8324735 -7.2354183 2.9511032 0.032563627 0.033603966 -0.5881963 0.29258293 0.540027
-7.1359563 7.3161716 2.7073393 0.067768045 -0.03332765 -0.58520186 0.3333333 0.68749994
-7.234109 4.8334036 2.7926812 0.06321676 -0.015730822 -0.58644754 0.33445656 0.66208124
-5.4075227 8.435823 2.7978258 0.045802716 -0.041120715 -0.5868353 0.31668255 0.6976294
-7.3752656 1.1440542 2.8430767 0.06032854 -0.006399666 -0.5869276 0.33429784 0.625
0.93938166 12.288719 2.7513685 0.016193869 -0.08680765 -0.58340955 0.24999999 0.7291666
-0.7190267 11.230478 2.8229222 0.026107457 -0.06413145 -0.58597785 0.26777408 0.7212838
2.7982762 11.944888 2.8372598 0.009212415 -0.06919544 -0.585911 0.23222595 0.7212838
-3.006979 9.797372 2.8517284 0.031779196 -0.050612453 -0.5870204 0.29214892 0.70929784
10.652267 9.965871 2.8689523 -0.04019199 -0.026456822 -0.5880894 0.1652782 0.6617437
8.276165 11.798541 2.8536034 -0.011168889 -0.051619 -0.5876863 0.18331745 0.6976293
10.32296 11.907039 2.7785044 -0.03295178 -0.048139445 -0.5871637 0.16666666 0.68749994
5.448185 11.673382 2.8861928 0.0013309275 -0.05704986 -0.58728874 0.20785108 0.7092978
3.825121 -9.022944 3.2336655 0.013833072 0.019035561 -0.58958524 0.21881539 0.5108948
6.859715 -9.480956 3.1982498 -0.025701988 0.03244294 -0.5886012 0.18977866 0.5045574
4.3489285 -10.750253 3.170525 0.005284632 0.040448308 -0.58864295 0.21186736 0.5032281
6.5898557 -7.1286244 3.2759075 -0.013916997 0.010004829 -0.5898056 0.19519046 0.51538086
9.507655 -8.38501 3.0764332 -0.058017105 0.034067854 -0.58620644 0.1673102 0.505127
6.819356 -11.444748 3.0400467 -0.037710465 0.07172147 -0.5844643 0.18778485 0.50056976
4.6082435 -12.22978 3.0290136 -0.007108862 0.08089819 -0.58443946 0.20770307 0.5004035
9.145924 -10.681902 2.9208908 -0.06681362 0.06859668 -0.5822327 0.16781914 0.5006409
1.5828834 -10.898345 3.0318866 0.048204627 0.04899914 -0.58603746 0.2377327 0.5058594
5.7529473 -4.3867087 3.2972603 -0.004905306 -0.00013018234 -0.5900343 0.20572919 0.53645843
9.570345 -5.545611 3.1652203 -0.044589948 0.01078096 -0.58826864 0.17028375 0.5173034
12.319173 -4.4064813 2.9052453 -0.08925963 0.01818265 -0.5829808 0.14898609 0.5175781
11.91586 -7.6494837 2.809639 -0.10388562 0.04386361 -0.5791789 0.14848575 0.5052084
11.189969 -10.225374 2.677713 -0.10976794 0.07711094 -0.5746037 0.15157717 0.50065106
10.464876 -11.827408 2.5524397 -0.10695784 0.11200857 -0.5693668 0.15625 0.50000006
8.870358 -12.456521 2.6745586 -0.07639174 0.118622236 -0.5729376 0.16895941 0.5
6.7124653 -13.081077 2.7761903 -0.047063783 0.12796474 -0.5740858 0.1875 0.50000006
4.676108 -13.498299 2.794569 -0.01697985 0.13899808 -0.5731978 0.20604065 0.5
3.3257437 -13.703924 2.7512736 0.018555611 0.14864011 -0.5707243 0.21875001 0.50000006
2.8414783 -13.031752 2.8787746 0.03175844 0.108484745 -0.57912606 0.22385688 0.5002171
2.2908704 -12.039088 2.9859614 0.043577038 0.06912967 -0.5843685 0.2299865 0.50173616
-10.9337015 -3.4664893 1.758944 0.34941226 0.020094449 0.47504923 0.36965382 0.5717789
-11.085613 0.7009183 2.1218252 0.54848516 -0.03339407 -0.214973 0.36612654 0.62500006
-11.125041 -3.8005557 2.1241956 0.5533933 0.06881667 -0.19283313 0.36304617 0.5790052
-10.865696 0.93531567 1.7428563 0.35256398 -0.03436671 0.47189203 0.37193772 0.62500006
-10.4480715 5.153292 2.1276093 0.52309215 -0.11527734 -0.2474879 0.36304614 0.67099494
-9.950142 -3.404987 2.4988456 0.13246785 0.00914121 -0.57492024 0.3522977 0.5849363
-9.830529 0.7819913 2.5107117 0.13000259 -0.010856963 -0.5754528 0.35469714 0.62500006
-9.350396 -5.889202 1.553854 0.07312287 0.03206374 0.5846276 0.375 0.5
-10.242628 -7.0669947 1.7866845 0.31135163 0.11133504 0.4887015 0.36003208 0.529526
-10.295703 5.2301507 1.77349 0.38087028 -0.094605014 0.44062707 0.36965382 0.67822117
-8.420436 8.152698 1.5923612 0.08690878 -0.053894155 0.58112544 0.375 0.75
-9.196428 8.843526 2.1409745 0.46246934 -0.26249495 -0.25570092 0.35247883 0.70823693
-8.332429 8.210302 2.4738936 0.12491364 -0.06372942 -0.57314885 0.3434295 0.69749683
-9.340313 4.893142 2.4903455 0.13234144 -0.029232003 -0.5742785 0.35229775 0.6650638
-7.234109 4.8334036 2.7926812 0.06321676 -0.015730822 -0.58644754 0.3344566 0.66208136
-9.370719 -6.799616 2.491661 0.12337936 0.04814368 -0.5749993 0.3434295 0.55250335
-10.355718 -7.5398903 2.1356559 0.5069261 0.26913586 -0.1369536 0.3524788 0.5417632
15.543632 -4.169336 1.6036265 -0.4948941 0.06448157 0.31478 0.13044176 0.5095758
14.7465 -7.5974674 1.9604931 -0.41967493 0.114975244 -0.39851987 0.13229409 0.50434035
15.545566 -3.697721 2.0513172 -0.4782663 0.05177616 -0.34167975 0.12957388 0.51508254
14.790995 -8.104043 1.527255 -0.5241145 0.1592637 0.21932533 0.1351409 0.5026042
13.461039 -10.810318 1.8898468 -0.35217157 0.18835396 -0.43435296 0.13829362 0.50054264
14.398016 -3.782553 2.5116682 -0.17040008 0.03136782 -0.56404287 0.13547036 0.5172661
13.729902 -7.4142947 2.4147253 -0.18103455 0.064543486 -0.5578755 0.13668713 0.50509983
15.745585 0.26596063 1.6921041 -0.41791174 -0.0019601122 0.41654584 0.12673613 0.52913415
13.5278015 -11.213003 1.4972291 -0.49922827 0.28371492 0.13579927 0.14150131 0.50032556
11.80427 -13.441255 1.4985802 -0.4088953 0.4251355 0.015130311 0.15169173 0.50000006
11.665781 -13.184784 1.8623147 -0.26010323 0.27211815 -0.4543814 0.14940204 0.50000006
11.110372 -12.520218 2.2597227 -0.14705762 0.15578216 -0.54979134 0.15169172 0.5
12.644537 -10.38337 2.3122778 -0.17580226 0.107243344 -0.55295295 0.14169456 0.50063753
11.189969 -10.225374 2.677713 -0.10976794 0.07711094 -0.5746037 0.15157719 0.50065106
11.91586 -7.6494837 2.809639 -0.10388562 0.04386361 -0.5791789 0.14848574 0.5052083
12.319173 -4.4064813 2.9052453 -0.08925963 0.01818265 -0.5829808 0.14898607 0.5175782
12.257707 -0.72295976 2.960319 -0.07086383 0.0010871611 -0.58578295 0.15277779 0.5416667
14.609215 0.24812558 2.5829635 -0.15032482 0.0066202655 -0.5705463 0.13677302 0.5412327
15.852246 0.60283923 2.1345615 -0.5268503 -0.009314384 -0.26553062 0.12890625 0.5381945
0.9493086 -14.395322 1.7784514 0.30060118 0.36665612 0.35123596 0.2411748 0.5000271
1.3618963 -14.672217 2.1917691 0.2500144 0.40309715 -0.35095578 0.23699124 0.5000272
1.8067656 -15.088047 1.782527 0.26441422 0.48742655 0.20165564 0.23366319 0.50000346
0.01611954 -13.529288 1.7763295 0.24809414 0.316912 0.4314865 0.24939193 0.5000916
0.47196907 -14.038568 2.2231889 0.32104266 0.40303233 -0.28750837 0.24498458 0.500217
1.735904 -13.914726 2.582024 0.080522195 0.18070915 -0.5559001 0.23366997 0.5000916
-0.4523952 -13.344391 2.233068 0.2884487 0.43733862 -0.27147147 0.2533336 0.5007325
0.953044 -13.19511 2.6501741 0.10144882 0.14518067 -0.5628456 0.24122906 0.5007325
3.1112974 -15.109132 1.4268193 0.11344665 0.16692804 0.55446315 0.22380264 0.50000006
2.9898276 -15.576228 1.7536521 0.17294756 0.5621573 0.047252625 0.22330832 0.50000006
1.6314917 -12.794748 1.3841941 0.074092016 0.05733146 0.5825702 0.236512 0.5
-1.408128 -12.6007 1.7729034 0.15484157 0.30753872 0.4791748 0.26293948 0.500217
-1.1686077 -11.62944 2.6726155 0.06567879 0.12391898 -0.5731447 0.26177302 0.50585943
0.10914528 -12.409014 2.6773162 0.09364621 0.12583312 -0.56882423 0.24939872 0.502472
0.40702158 -9.659902 3.0332737 0.040765367 0.04465438 -0.58694863 0.25 0.51388896
1.5828834 -10.898345 3.0318866 0.048204627 0.04899914 -0.58603746 0.23773271 0.5058594
2.2908704 -12.039088 2.9859614 0.043577038 0.06912967 -0.5843685 0.22998649 0.5017361
2.8414783 -13.031752 2.8787746 0.03175844 0.108484745 -0.57912606 0.2238569 0.500217
2.8265662 -14.436563 2.5041838 0.036288284 0.21402106 -0.5486735 0.22330831 0.5
2.6233194 -15.175008 2.1345153 0.102220125 0.3753184 -0.44367966 0.22559799 0.50000006
6.7446775 15.094739 1.8707719 0.025393322 -0.40208796 0.4310974 0.18903118 0.7469378
3.793095 14.821898 2.2288451 0.056810535 -0.4595073 -0.3657733 0.22028117 0.7456597
3.6375713 14.841889 1.8881397 0.061603934 -0.4865769 0.32804328 0.21906348 0.74921334
9.732347 15.050783 1.8858342 -0.04940887 -0.3598239 0.4650269 0.16128278 0.74009424
6.93397 15.216817 2.2316256 0.01903941 -0.5253341 -0.26800385 0.19193676 0.74112654
6.464386 13.992183 2.587996 0.0074748527 -0.12461851 -0.57669646 0.19765145 0.72969717
3.5616689 13.777969 2.5644627 0.019527115 -0.13893507 -0.5731319 0.22364035 0.7368124
9.277805 14.022843 2.5728908 -0.017101448 -0.115920916 -0.57830304 0.17406198 0.71778303
0.66040534 14.385139 1.901628 0.10464992 -0.533622 0.22904223 0.25000003 0.7495903
0.70559555 13.862491 1.6778479 0.032436017 -0.1619508 0.5664665 0.25 0.75
11.2357025 13.371868 1.6724834 -0.044867776 -0.069976605 0.5841701 0.125 0.75
12.134499 14.242423 1.9006467 -0.20035115 -0.303506 0.46465904 0.13996793 0.7204741
9.894426 15.217226 2.2308836 -0.10706879 -0.5395821 -0.21342883 0.1666727 0.73043257
11.535363 13.327171 2.5548787 -0.066653855 -0.09288828 -0.5788726 0.15657051 0.6974968
8.276165 11.798541 2.8536034 -0.011168889 -0.051619 -0.5876863 0.18331748 0.69762933
5.448185 11.673382 2.8861928 0.0013309275 -0.05704986 -0.58728874 0.2078511 0.7092979
0.80018765 13.399677 2.5349135 0.031376407 -0.15413077 -0.5687036 0.25 0.73936236
0.6817481 14.258879 2.2201996 0.08291226 -0.40598962 -0.42007434 0.25 0.7467207
-4.8486996 12.628071 1.8235149 0.166797 -0.36253786 0.43463725 0.31096888 0.7469378
-7.3040705 11.275738 2.160779 0.3588382 -0.4126281 -0.22167008 0.3333273 0.73043257
-7.276968 11.075555 1.8165011 0.2602612 -0.2732739 0.45359674 0.33871728 0.7400943
-2.2453172 13.621776 2.2042317 0.14169995 -0.4455796 -0.3599228 0.27971888 0.7456597
-4.9285088 12.724491 2.183272 0.22856332 -0.478139 -0.25943467 0.30806327 0.74112654
-6.5585318 10.345169 2.5083394 0.0884078 -0.09254431 -0.57600707 0.32593802 0.71778303
-4.267372 11.716 2.5442514 0.058705114 -0.11331732 -0.576088 0.30234858 0.72969717
-9.149365 8.720625 1.8138895 0.37269804 -0.19597247 0.41334665 0.36003208 0.7204741
-2.1573937 13.685898 1.8645182 0.14140439 -0.470001 0.3275184 0.28093654 0.74921334
-1.7859459 12.712037 2.542665 0.045532346 -0.13515496 -0.57255954 0.27635968 0.7368124
-0.7190267 11.230478 2.8229222 0.026107457 -0.06413145 -0.58597785 0.26777408 0.72128385
-3.006979 9.797372 2.8517284 0.031779196 -0.050612453 -0.5870204 0.29214895 0.7092979
14.676523 8.924791 1.8124871 -0.27210543 -0.07099271 0.5187323 0.12681599 0.6249157
14.004736 12.209721 2.225594 -0.505855 -0.25663766 -0.16251858 0.13668409 0.67091054
13.67591 12.178097 1.8668923 -0.26553032 -0.15179193 0.50459623 0.13019045 0.6782106
15.6671 4.965087 2.187807 -0.5541074 -0.06536415 -0.19198185 0.12950155 0.5769556
15.0462 8.972335 2.2148252 -0.55379945 -0.13141383 -0.15556708 0.13171539 0.6243249
12.913752 11.3172455 2.5821133 -0.10015313 -0.049823377 -0.57935435 0.14739469 0.664821
13.756467 8.197716 2.615302 -0.11280408 -0.025174895 -0.5786242 0.14284188 0.62305903
15.403335 4.7949533 1.7585845 -0.32393435 -0.041065894 0.49147192 0.12579328 0.57152265
14.350578 4.37164 2.6179414 -0.1286608 -0.010632924 -0.57575846 0.13941352 0.5788861
11.064567 6.8406124 2.9451475 -0.04516717 -0.015331632 -0.5881236 0.16358024 0.62229943
12.338914 14.347226 2.2287564 -0.34362808 -0.4393288 -0.19254726 0.14752123 0.70823693
7.194827 -15.686815 1.5460095 -0.10963883 0.57950956 0.017676294 0.18750003 0.50000006
9.390215 -14.653303 1.8920794 -0.15549766 0.3284017 -0.46490565 0.16667874 0.50000006
9.630016 -14.902483 1.5013869 -0.25130016 0.5318395 0.046470284 0.16774021 0.50000006
4.851715 -15.843486 1.6510549 0.015414918 0.5882852 -0.042981435 0.20725982 0.50000006
6.9047356 -15.349379 1.9631438 -0.06850531 0.34487492 -0.47384894 0.1875 0.5000001
9.052328 -13.787098 2.3118558 -0.097330056 0.1854845 -0.55162203 0.16774018 0.50000006
4.5395675 -15.458752 2.0519018 0.0039029983 0.3528765 -0.4728926 0.2083213 0.50000006
6.7349534 -14.425239 2.3979726 -0.053869598 0.2044333 -0.55088073 0.18750004 0.50000006
9.954729 -14.3795185 1.2081947 -0.14399453 0.24442168 0.51738584 0.16895938 0.5000001
5.22984 -15.639927 1.3388162 0.015918469 0.33161908 0.4877908 0.20604062 0.5
4.5459375 -14.616071 2.4560866 -0.013394687 0.21867488 -0.5478744 0.20725983 0.5
8.870358 -12.456521 2.6745586 -0.07639174 0.118622236 -0.5729376 0.16895938 0.50000006
-6.144469 -10.665149 1.7592955 0.09107799 0.19890477 0.54800195 0.31216246 0.5030412
-3.8849254 -12.053126 2.2069783 0.19200253 0.5414593 -0.13461526 0.2858495 0.5037465
-3.587878 -11.68703 1.7623386 0.09148955 0.25239605 0.525443 0.2853243 0.5007125
-8.634879 -9.9134865 2.1562085 0.3756279 0.445725 -0.09163722 0.33354428 0.51954633
-6.3178434 -11.246518 2.1817436 0.23929542 0.5313762 -0.09242031 0.3097994 0.50870466
-5.4656982 -10.026419 2.6057558 0.055960905 0.10247021 -0.57838804 0.3035964 0.5198176
-3.1246223 -10.878819 2.649777 0.050774775 0.116409674 -0.576225 0.2807542 0.5114494
-7.7372084 -8.841315 2.5409045 0.08389352 0.08373246 -0.57802707 0.326094 0.5321564
-8.5381975 -9.300358 1.7757797 0.17158072 0.16946295 0.53852284 0.33886644 0.5099032
-6.2750597 -6.319023 2.8493576 0.0427714 0.02913291 -0.5877809 0.3167368 0.5522863
-3.8324735 -7.2354183 2.9511032 0.032563627 0.033603966 -0.5881963 0.29258293 0.5400271
-1.4698133 -8.383338 3.009359 0.03334046 0.039063267 -0.5878154 0.26899478 0.5262708
-1.8183324 -12.674551 2.2260232 0.21723598 0.50360537 -0.21761125 0.26605907 0.5017361
12.407474 8.033626 1.4772229 -0.050379153 -0.021958988 0.5874898 0.12500001 0.6250001
-3.9320028 11.292511 1.5194626 0.03259638 -0.06920192 0.5850753 0.31250006 0.75000006
-8.988204 1.4852931 1.4399612 0.06447622 -0.007601538 0.5864721 0.37500003 0.62500006
5.22984 -15.639927 1.3388162 0.015918469 0.33161908 0.4877908 0.20604064 0.50000006
3 0 1 2
3 3 4 5
3 6 7 8
3 9 1 10
3 11 12 13
3 14 15 16
3 17 0 18
3 19 20 0
3 18 2 21
3 22 23 24
3 25 5 22
3 5 26 23
3 27 8 28
3 29 6 8
3 28 7 30
3 31 9 32
3 33 34 9
3 32 10 35
3 36 13 37
3 38 13 39
3 13 40 37
3 41 42 43
3 44 16 41
3 16 45 42
3 46 47 48
3 49 50 47
3 48 51 52
3 47 53 51
3 54 46 41
3 55 49 46
3 56 49 57
3 58 59 56
3 59 60 50
3 50 61 53
3 53 62 63
3 51 63 64
3 52 64 65
3 18 65 66
3 44 52 18
3 41 48 44
3 67 68 69
3 70 71 72
3 73 74 75
3 76 77 78
3 79 80 81
3 82 83 84
3 85 67 86
3 87 88 67
3 86 69 89
3 90 91 92
3 90 70 72
3 72 93 91
3 94 95 96
3 97 75 94
3 75 98 95
3 99 78 100
3 101 76 78
3 100 77 102
3 103 81 104
3 105 79 81
3 104 80 106
3 107 108 109
3 89 84 107
3 84 110 108
3 111 112 113
3 114 115 112
3 113 116 117
3 112 118 116
3 92 111 119
3 91 114 111
3 120 121 114
3 87 122 121
3 121 123 115
3 115 124 118
3 118 125 126
3 116 126 127
3 117 127 128
3 117 129 130
3 131 117 130
3 119 113 131
3 132 133 134
3 135 136 133
3 133 137 134
3 136 138 133
3 139 132 140
3 37 135 132
3 40 141 135
3 142 141 33
3 141 143 136
3 136 144 145
3 145 99 146
3 145 97 138
3 138 94 137
3 137 96 147
3 134 147 148
3 140 134 148
3 149 150 151
3 152 153 150
3 150 154 151
3 153 155 150
3 66 149 156
3 65 152 149
3 64 157 152
3 63 158 157
3 157 159 153
3 153 160 161
3 160 162 161
3 161 163 155
3 155 164 154
3 154 165 166
3 151 166 167
3 156 151 167
3 168 169 170
3 171 172 168
3 172 173 169
3 174 175 172
3 176 177 58
3 57 170 176
3 178 168 57
3 54 171 178
3 179 174 171
3 174 180 181
3 181 182 183
3 181 184 175
3 175 185 173
3 186 185 129
3 169 186 187
3 170 187 177
3 188 189 190
3 191 192 188
3 189 193 194
3 192 195 193
3 28 196 197
3 30 190 28
3 22 188 30
3 198 191 22
3 199 200 191
3 200 201 195
3 195 109 202
3 193 202 203
3 194 203 105
3 204 105 103
3 205 194 204
3 190 205 196
3 206 207 208
3 206 209 210
3 210 211 207
3 209 212 210
3 32 213 142
3 35 208 32
3 35 214 206
3 29 196 214
3 214 205 209
3 205 215 209
3 215 103 216
3 215 217 212
3 212 101 211
3 211 99 144
3 143 211 144
3 208 143 213
3 218 219 220
3 218 221 222
3 222 223 219
3 221 224 222
3 198 220 199
3 23 218 220
3 26 225 218
3 19 156 225
3 225 167 221
3 167 226 221
3 166 86 226
3 226 227 224
3 224 107 223
3 223 109 201
3 219 201 228
3 220 228 199
3 229 230 231
3 232 233 229
3 233 234 230
3 235 236 233
3 237 158 62
3 60 231 237
3 238 229 60
3 58 232 238
3 177 235 232
3 187 239 235
3 239 129 128
3 236 128 127
3 234 127 240
3 160 240 125
3 159 234 160
3 231 159 158
3 241 242 243
3 241 244 245
3 242 246 247
3 245 248 246
3 42 179 54
3 45 243 42
3 45 249 241
3 39 140 249
3 249 148 244
3 148 248 244
3 248 96 250
3 246 250 251
3 247 251 252
3 180 252 182
3 253 247 180
3 243 253 179
3 0 20 1
3 3 1 4
3 6 1 7
3 9 34 1
3 11 1 12
3 14 1 15
3 17 19 0
3 19 254 20
3 18 0 2
3 22 5 23
3 25 3 5
3 5 4 26
3 27 29 8
3 29 255 6
3 28 8 7
3 31 33 9
3 33 256 34
3 32 9 10
3 36 39 13
3 38 11 13
3 13 12 40
3 41 16 42
3 44 14 16
3 16 15 45
3 46 49 47
3 49 59 50
3 48 47 51
3 47 50 53
3 54 55 46
3 55 57 49
3 56 59 49
3 58 257 59
3 59 257 60
3 50 60 61
3 53 61 62
3 51 53 63
3 52 51 64
3 18 52 65
3 44 48 52
3 41 46 48
3 67 88 68
3 70 68 71
3 73 68 74
3 76 68 77
3 79 68 80
3 82 68 83
3 85 87 67
3 87 93 88
3 86 67 69
3 90 72 91
3 90 251 70
3 72 71 93
3 94 75 95
3 97 73 75
3 75 74 98
3 99 101 78
3 101 217 76
3 100 78 77
3 103 105 81
3 105 203 79
3 104 81 80
3 107 84 108
3 89 82 84
3 84 83 110
3 111 114 112
3 114 121 115
3 113 112 116
3 112 115 118
3 92 91 111
3 91 120 114
3 120 87 121
3 87 85 122
3 121 122 123
3 115 123 124
3 118 124 125
3 116 118 126
3 117 116 127
3 117 128 129
3 131 113 117
3 119 111 113
3 132 135 133
3 135 141 136
3 133 138 137
3 136 145 138
3 139 37 132
3 37 40 135
3 40 33 141
3 142 213 141
3 141 213 143
3 136 143 144
3 145 144 99
3 145 146 97
3 138 97 94
3 137 94 96
3 134 137 147
3 140 132 134
3 149 152 150
3 152 157 153
3 150 155 154
3 153 161 155
3 66 65 149
3 65 64 152
3 64 63 157
3 63 62 158
3 157 158 159
3 153 159 160
3 160 125 162
3 161 162 163
3 155 163 164
3 154 164 165
3 151 154 166
3 156 149 151
3 168 172 169
3 171 174 172
3 172 175 173
3 174 181 175
3 176 170 177
3 57 168 170
3 178 171 168
3 54 179 171
3 179 253 174
3 174 253 180
3 181 180 182
3 181 183 184
3 175 184 185
3 186 173 185
3 169 173 186
3 170 169 187
3 188 192 189
3 191 200 192
3 189 192 193
3 192 200 195
3 28 190 196
3 30 188 190
3 22 191 188
3 198 199 191
3 199 228 200
3 200 228 201
3 195 201 109
3 193 195 202
3 194 193 203
3 204 194 105
3 205 189 194
3 190 189 205
3 206 210 207
3 206 214 209
3 210 212 211
3 209 215 212
3 32 208 213
3 35 206 208
3 35 29 214
3 29 197 196
3 214 196 205
3 205 204 215
3 215 204 103
3 215 216 217
3 212 217 101
3 211 101 99
3 143 207 211
3 208 207 143
3 218 222 219
3 218 225 221
3 222 224 223
3 221 226 224
3 198 23 220
3 23 26 218
3 26 19 225
3 19 66 156
3 225 156 167
3 167 166 226
3 166 165 86
3 226 86 227
3 224 227 107
3 223 107 109
3 219 223 201
3 220 219 228
3 229 233 230
3 232 235 233
3 233 236 234
3 235 239 236
3 237 231 158
3 60 229 231
3 238 232 229
3 58 177 232
3 177 187 235
3 187 186 239
3 239 186 129
3 236 239 128
3 234 236 127
3 160 234 240
3 159 230 234
3 231 230 159
3 241 245 242
3 241 249 244
3 242 245 246
3 245 244 248
3 42 243 179
3 45 241 243
3 45 39 249
3 39 139 140
3 249 140 148
3 148 147 248
3 248 147 96
3 246 248 250
3 247 246 251
3 180 247 252
3 253 242 247
3 243 242 253
