ply
format ascii 1.0
comment Created in Blender version 4.1.1
element vertex 56
property float x
property float y
property float z
property float nx
property float ny
property float nz
property float s
property float t
element face 42
property list uchar uint vertex_indices
end_header
10.433655 8.74041 12.305202 -0.20177457 -0.08665014 0.32863605 0 0
12.005263 9.115839 13.369119 -0.19535768 -0.08566866 0.37280193 0.7453172 0
11.802169 9.655215 13.386639 -0.19442081 -0.082782626 0.3839149 0.49063453 0.49063453
13.600822 9.364947 14.1531105 -0.061105892 -0.07259358 1.1010897 0.8069982 0
13.2582035 10.507301 14.206697 0.010296464 -0.056813218 1.3911535 0.6139964 0.6139964
15.53789 10.307706 13.849052 0.32848713 0.03349984 1.5087414 0.8706689 0
15.385214 10.774201 13.868532 0.32952213 0.04726267 1.4508673 0.74133784 0.74133784
16.844936 11.000895 12.640734 0.28685716 0.07903302 0.35563478 0.86867917 0.86867917
4.276579 8.592264 11.819123 -0.21727176 -0.028413974 0.32793012 0 0
5.697377 8.5338335 12.755419 -0.20925179 -0.02687594 0.3835418 0.7453172 0
5.6545553 9.039233 12.770837 -0.20972106 -0.02925339 0.3764283 0.49063453 0.49063453
7.091631 9.41213 13.492526 -0.13396299 -0.04047937 0.79829526 0.6139964 0.6139964
7.10821 8.362695 13.445368 0.13910264 -0.066701 1.7246805 0.8069982 0
8.956775 9.12879 13.194925 0.33203942 -0.062398955 1.6583487 0.74133784 0.74133784
8.974354 8.697183 13.177782 0.35759297 -0.03025281 1.1283585 0.8706689 0
10.247207 8.971199 12.114408 0.30932537 -0.0020866254 0.3697229 0.86867917 0.86867917
5.9673367 8.172577 11.142938 -0.22925311 -0.0145075135 0.27101368 0 0
6.8753986 8.190192 11.91202 -0.22407308 -0.01042736 0.31374848 0.7453172 0
6.8382974 8.542735 11.899507 -0.2240624 -0.012576801 0.31003186 0.49063453 0.49063453
7.7704387 8.8536415 12.504461 -0.17196754 0.000111388974 0.6510446 0.6139964 0.6139964
7.7985544 8.119841 12.513944 -0.059933066 0.018817607 1.2062204 0.8069982 0
9.092958 8.675861 12.464126 0.16355675 0.037911363 1.8037 0.74133784 0.74133784
9.111799 8.374329 12.47048 0.32441092 0.051904745 1.5012223 0.8706689 0
10.080816 8.547198 11.828637 0.31052077 0.02944736 0.47673786 0.86867917 0.86867917
11.149784 0.3868723 10.125315 0.222958 -0.94372547 1.1089652 0 0
11.241338 2.2024841 11.651987 0.22173506 -0.8995788 1.1660857 0.7453172 0
10.542785 2.1067843 11.710991 0.21928953 -0.8669809 1.2013723 0.49063453 0.49063453
11.466403 4.052228 12.826689 0.19564122 -0.621935 1.4174368 0.8069982 0
10.013291 3.951078 12.982269 0.20122942 -0.16309285 1.7752595 0.6139964 0.6139964
10.871046 6.654541 12.800077 0.15257758 0.29243627 1.8159388 0.8706689 0
10.273804 6.598428 12.859146 0.08717508 0.7436716 1.5878863 0.74133784 0.74133784
10.316476 8.570698 11.569242 0.052305914 0.9103535 1.3936667 0.86867917 0.86867917
12.830282 2.9247804 9.673798 0.42604065 -0.44634417 0.49921992 0 0
12.7162285 4.245031 10.951547 0.4219525 -0.40999597 0.5503517 0.7453172 0
12.259338 3.9855165 11.109436 0.42238253 -0.41583136 0.53878623 0.49063453 0.49063453
11.650904 5.1624513 12.305399 0.39532495 -0.23575231 0.7534271 0.6139964 0.6139964
12.620396 5.6316514 11.944386 0.3765329 -0.14119083 0.8281884 0.8069982 0
11.126015 7.1581783 12.381171 0.2965818 0.19993557 1.0990318 0.74133784 0.74133784
11.521652 7.361512 12.237629 0.15959018 0.636971 1.3421597 0.8706689 0
10.399527 8.622517 11.563544 0.08496069 0.82702863 1.4056873 0.86867917 0.86867917
8.334864 14.366686 11.457685 -0.25462693 0.65434927 0.9898118 0 0
8.680088 13.018148 12.437991 -0.2317315 0.59317285 1.0383681 0.7453172 0
9.154529 13.198139 12.4410515 -0.233983 0.601856 1.0360162 0.49063453 0.49063453
8.911087 11.639642 13.174282 -0.09100683 0.20104933 1.2630631 0.8069982 0
9.916265 11.944388 13.197978 -0.09702894 0.22212538 1.2592864 0.6139964 0.6139964
10.151461 10.063582 12.963742 0.11403503 -0.41954333 1.3793519 0.74133784 0.74133784
9.741034 9.927985 12.956575 0.21148852 -0.71228564 1.3653085 0.8706689 0
10.340096 8.741909 11.926842 0.3010104 -0.9800056 1.3039162 0.86867917 0.86867917
14.690184 9.4309845 10.52913 0.2978044 0.03676035 0.354016 0 0
13.784783 9.359292 11.298213 0.30633682 0.03156869 0.43381482 0.7453172 0
13.842825 9.009586 11.2857 0.30514064 0.03522379 0.4309896 0.49063453 0.49063453
12.930866 8.64369 11.890654 0.34417626 0.023099067 1.1761265 0.6139964 0.6139964
12.859076 9.374512 11.900137 0.2065757 -0.01020873 1.8261503 0.8069982 0
11.600102 8.742352 11.850318 -0.09788485 -0.027373282 0.991268 0.74133784 0.74133784
11.563328 9.042225 11.856672 -0.12948456 -0.033480957 0.83068144 0.8706689 0
10.606333 8.811922 11.21483 -0.21521309 -0.033445697 0.3328863 0.86867917 0.86867917
3 0 1 2
3 2 3 4
3 4 5 6
3 6 5 7
3 8 9 10
3 9 11 10
3 12 13 11
3 13 14 15
3 16 17 18
3 17 19 18
3 20 21 19
3 21 22 23
3 24 25 26
3 26 27 28
3 28 29 30
3 30 29 31
3 32 33 34
3 33 35 34
3 36 37 35
3 37 38 39
3 40 41 42
3 42 43 44
3 43 45 44
3 45 46 47
3 48 49 50
3 49 51 50
3 52 53 51
3 53 54 55
3 2 1 3
3 4 3 5
3 9 12 11
3 12 14 13
3 17 20 19
3 20 22 21
3 26 25 27
3 28 27 29
3 33 36 35
3 36 38 37
3 42 41 43
3 43 46 45
3 49 52 51
3 52 54 53
