ply
format ascii 1.0
comment Created in Blender version 4.1.1
element vertex 11
property float x
property float y
property float z
property float nx
property float ny
property float nz
property float s
property float t
element face 8
property list uchar uint vertex_indices
end_header
-2.5384905 -2.5384905 6.0819507 -0.21933328 -0.27835548 -0.43128476 0.375 0
-2.5384905 0 8.107098 -0.21699846 1.7379101e-05 0.82424134 0.625 0.25
-2.5384905 2.5384905 6.0819507 -0.21934156 0.27835128 -0.43127525 0.375 0.25
2.5384905 2.5384905 6.0819507 0.21933328 0.27835548 -0.43128476 0.375 0.5
2.5384905 0 8.107098 0.21699846 -1.7365153e-05 0.82424134 0.625 0.75
2.5384905 -2.5384905 6.0819507 0.21934156 -0.27835128 -0.43127525 0.375 0.75
-2.5384905 -2.5384905 6.0819507 -0.21933328 -0.27835548 -0.43128476 0.375 1
-2.5384905 -2.5384905 6.0819507 -0.21933328 -0.27835548 -0.43128476 0.125 0.75
-2.5384905 2.5384905 6.0819507 -0.21934156 0.27835128 -0.43127525 0.125 0.5
2.5384905 0 8.107098 0.21699846 -1.7365153e-05 0.82424134 0.625 0.5
-2.5384905 0 8.107098 -0.21699846 1.7379101e-05 0.82424134 0.625 1
3 0 1 2
3 1 3 2
3 3 4 5
3 4 6 5
3 3 7 8
3 1 9 3
3 4 10 6
3 3 5 7
