ply
format ascii 1.0
comment Created in Blender version 4.1.1
element vertex 78
property float x
property float y
property float z
property float nx
property float ny
property float nz
property float s
property float t
element face 96
property list uchar uint vertex_indices
end_header
9.220923 9.100672 1.7990563 -0.3908299 -0.25017548 -0.4273532 0.37500006 0
8.50901 10.037608 2.8493567 -0.63014776 0.0129983695 0.026673209 0.50000006 0.12500001
9.041415 10.142636 1.7741779 -0.45326245 0.05937551 -0.4347346 0.37500003 0.12500001
9.269592 8.689802 3.36512 -0.28865105 -0.39372453 0.39953488 0.62500006 0
8.992045 8.64692 2.6003456 -0.4621539 -0.42439985 -0.06530826 0.50000006 0
9.33311 11.20115 3.6418912 -0.2708205 0.3112484 0.4772287 0.625 0.25
9.062265 11.423252 2.90632 -0.44001335 0.4509806 0.03116582 0.50000006 0.25
9.272602 11.143913 2.0242386 -0.37548843 0.356386 -0.36050525 0.375 0.25
10.449117 11.940201 2.709469 -0.000401821 0.6305676 -0.018733323 0.50000006 0.37500006
10.256599 11.334324 1.6865596 -0.08345296 0.42203444 -0.46139902 0.37500003 0.37500006
11.81812 11.189052 3.1813633 0.4267589 0.3078523 0.34795168 0.625 0.5
11.80948 11.409877 2.3971999 0.42618626 0.4467636 -0.12936026 0.50000006 0.50000006
11.294415 11.134069 1.6495512 0.22471148 0.353464 -0.4717356 0.375 0.5
12.292516 10.019189 2.1481886 0.59795314 0.007019449 -0.20092122 0.50000006 0.625
11.41121 10.131099 1.335002 0.2679227 0.05586441 -0.5683863 0.37500006 0.625
11.7546015 8.677704 2.904592 0.40892842 -0.39712062 0.27025795 0.625 0.75
11.73926 8.633546 2.0912251 0.40404573 -0.42861688 -0.22583437 0.50000006 0.75
11.242737 9.090828 1.4243693 0.20937005 -0.25309747 -0.53858364 0.375 0.75
10.352408 8.116596 2.2880764 -0.03179278 -0.61054975 -0.15551469 0.50000006 0.87500006
10.196026 8.939412 1.4226205 -0.101886794 -0.30679455 -0.54172194 0.37500003 0.87500006
9.269592 8.689802 3.36512 -0.28865105 -0.39372453 0.39953488 0.62500006 1.0000001
8.992045 8.64692 2.6003456 -0.4621539 -0.42439985 -0.06530826 0.50000006 1.0000001
9.220923 9.100672 1.7990563 -0.3908299 -0.25017548 -0.4273532 0.37500006 1.0000001
9.272602 11.143913 2.0242386 -0.37548843 0.356386 -0.36050525 0.12500001 0.50000006
10.160507 10.177784 1.19843 -0.113892645 0.07081577 -0.61642516 0.25 0.625
9.041415 10.142636 1.7741779 -0.45326245 0.05937551 -0.4347346 0.12500001 0.6250001
10.256599 11.334324 1.6865596 -0.08345296 0.42203444 -0.46139902 0.25000003 0.50000006
10.196026 8.939412 1.4226205 -0.101886794 -0.30679455 -0.54172194 0.25000003 0.75000006
9.220923 9.100672 1.7990563 -0.3908299 -0.25017548 -0.4273532 0.12500001 0.7500001
10.641018 9.879014 3.7991157 0.11389263 -0.07081575 0.6164252 0.75 0.625
12.137529 9.912324 3.153423 0.50902045 -0.053517304 0.3687826 0.625 0.625
9.33311 11.20115 3.6418912 -0.2708205 0.3112484 0.4772287 0.8750001 0.50000006
10.615147 11.498805 3.6169605 0.09362991 0.37936288 0.49526128 0.75000006 0.50000006
9.269592 8.689802 3.36512 -0.28865105 -0.39372453 0.39953488 0.8750001 0.7500001
10.535279 8.341054 3.2689502 0.07183767 -0.48224685 0.4003047 0.75000006 0.75000006
9.222777 9.087768 3.1464245 0.45297658 -0.02711976 0.43822742 0.37500006 0
9.569554 9.468742 2.1589227 0.6180852 0.06842275 -0.10609257 0.50000006 0.12500001
9.243561 9.784461 2.8781912 0.47070435 0.2669411 0.3242629 0.37500003 0.12500001
9.149378 8.398958 2.2362084 0.31207868 -0.48273966 -0.25987673 0.62500006 0
9.386768 8.596114 2.7217572 0.5218154 -0.3167719 0.1591563 0.50000006 0
8.836237 9.951167 1.4129515 0.18759713 0.13430363 -0.5871425 0.625 0.25
9.040586 10.312104 1.8116347 0.3672439 0.44942436 -0.24721698 0.50000006 0.25
8.968004 10.350652 2.4766195 0.34587216 0.5037865 0.15664662 0.375 0.25
8.031862 10.596959 1.9256865 -0.08873459 0.58702195 -0.21330257 0.50000006 0.37500006
8.28043 10.491118 2.732104 0.05563428 0.57148135 0.26130536 0.37500003 0.37500006
7.1294637 9.880985 1.9298291 -0.49088922 0.10640429 -0.3816706 0.625 0.5
7.1537237 10.234517 2.3830504 -0.4752477 0.4147812 0.007922161 0.50000006 0.50000006
7.5793676 10.2935505 2.8971531 -0.23790011 0.479782 0.33343568 0.375 0.5
6.9709377 9.361888 2.945885 -0.57640225 0.01930561 0.2556447 0.50000006 0.625
7.61592 9.717533 3.3711042 -0.23074177 0.23809788 0.5366881 0.37500006 0.625
7.442604 8.328775 2.753086 -0.36640772 -0.51063895 -0.054404553 0.625 0.75
7.4999056 8.518527 3.293173 -0.32067606 -0.351415 0.4142956 0.50000006 0.75
7.8341403 9.030667 3.566958 -0.1307956 -0.051124405 0.6150165 0.375 0.75
8.50863 8.233671 3.1791213 0.13041745 -0.49929374 0.36285478 0.50000006 0.87500006
8.579052 9.010876 3.5171916 0.18432835 -0.066442356 0.59964573 0.37500003 0.87500006
9.149378 8.398958 2.2362084 0.31207868 -0.48273966 -0.25987673 0.62500006 1.0000001
9.386768 8.596114 2.7217572 0.5218154 -0.3167719 0.1591563 0.50000006 1.0000001
9.222777 9.087768 3.1464245 0.45297658 -0.02711976 0.43822742 0.37500006 1.0000001
8.968004 10.350652 2.4766195 0.34587216 0.5037865 0.15664662 0.12500001 0.50000006
8.489904 9.877622 3.340507 0.14745873 0.31035018 0.5290607 0.25 0.625
9.243561 9.784461 2.8781912 0.47070435 0.2669411 0.3242629 0.12500001 0.6250001
8.28043 10.491118 2.732104 0.05563428 0.57148135 0.26130536 0.25000003 0.50000006
8.579052 9.010876 3.5171916 0.18432835 -0.066442356 0.59964573 0.25000003 0.75000006
9.222777 9.087768 3.1464245 0.45297658 -0.02711976 0.43822742 0.12500001 0.7500001
8.050588 8.95301 1.7643006 -0.14745875 -0.31035018 -0.5290607 0.75 0.625
7.037709 9.03551 2.305119 -0.52173585 -0.24249332 -0.25875703 0.625 0.625
8.836237 9.951167 1.4129515 0.18759713 0.13430363 -0.5871425 0.8750001 0.50000006
7.9138813 10.055502 1.4625809 -0.18318681 0.15162724 -0.5843101 0.75000006 0.50000006
9.149378 8.398958 2.2362084 0.31207868 -0.48273966 -0.25987673 0.8750001 0.7500001
8.307623 8.1037655 2.4977386 -0.03104682 -0.60251576 -0.18432966 0.75000006 0.75000006
9.012896 9.927536 3.7324877 -0.34355295 -0.049366582 0.5267835 0.62500006 0.12500001
10.615147 11.498805 3.6169605 0.09362991 0.37936288 0.49526128 0.62500006 0.37500006
10.535279 8.341054 3.2689502 0.07183767 -0.48224685 0.4003047 0.62500006 0.87500006
9.012896 9.927536 3.7324877 -0.34355295 -0.049366582 0.5267835 0.8750001 0.6250001
9.183794 9.123756 1.6552007 0.30750224 -0.20839524 -0.5098826 0.62500006 0.12500001
7.9138813 10.055502 1.4625809 -0.18318681 0.15162724 -0.5843101 0.62500006 0.37500006
8.307623 8.1037655 2.4977386 -0.03104682 -0.60251576 -0.18432966 0.62500006 0.87500006
9.183794 9.123756 1.6552007 0.30750224 -0.20839524 -0.5098826 0.8750001 0.6250001
3 0 1 2
3 3 1 4
3 1 5 6
3 1 7 2
3 7 8 9
3 5 8 6
3 8 10 11
3 8 12 9
3 12 13 14
3 10 13 11
3 13 15 16
3 13 17 14
3 17 18 19
3 15 18 16
3 18 20 21
3 18 22 19
3 23 24 25
3 12 24 26
3 24 17 27
3 24 28 25
3 10 29 30
3 31 29 32
3 29 33 34
3 29 15 30
3 35 36 37
3 38 36 39
3 36 40 41
3 36 42 37
3 42 43 44
3 40 43 41
3 43 45 46
3 43 47 44
3 47 48 49
3 45 48 46
3 48 50 51
3 48 52 49
3 52 53 54
3 50 53 51
3 53 55 56
3 53 57 54
3 58 59 60
3 47 59 61
3 59 52 62
3 59 63 60
3 45 64 65
3 66 64 67
3 64 68 69
3 64 50 65
3 0 4 1
3 3 70 1
3 1 70 5
3 1 6 7
3 7 6 8
3 5 71 8
3 8 71 10
3 8 11 12
3 12 11 13
3 10 30 13
3 13 30 15
3 13 16 17
3 17 16 18
3 15 72 18
3 18 72 20
3 18 21 22
3 23 26 24
3 12 14 24
3 24 14 17
3 24 27 28
3 10 32 29
3 31 73 29
3 29 73 33
3 29 34 15
3 35 39 36
3 38 74 36
3 36 74 40
3 36 41 42
3 42 41 43
3 40 75 43
3 43 75 45
3 43 46 47
3 47 46 48
3 45 65 48
3 48 65 50
3 48 51 52
3 52 51 53
3 50 76 53
3 53 76 55
3 53 56 57
3 58 61 59
3 47 49 59
3 59 49 52
3 59 62 63
3 45 67 64
3 66 77 64
3 64 77 68
3 64 69 50
