ply
format ascii 1.0
comment Created in Blender version 4.1.1
element vertex 86
property float x
property float y
property float z
property float nx
property float ny
property float nz
property float s
property float t
element face 110
property list uchar uint vertex_indices
end_header
-1.6860454 7.4911537 -0.00921917 -0.34243348 0.5773584 -0.33195007 0.875 0.5
2.0923204 -1 -0.00921917 -0.17860194 -0.30347127 -0.51977646 0.67811245 0.7512911
2.0923204 7.4911537 -0.00921917 0 0.7071164 -0.4065601 0.6550594 0.47565597
-1.337486 -1 0.061977267 0.1788274 -0.90454024 0.17334957 0.5991585 0.9741585
0 -0.7735371 0.061977267 0 0 0.57497066 0.5991585 0.875
1.337486 -0.7735371 0.061977267 -0.41938818 0 0.4065652 0.5991585 0.77584153
-1.6860454 -1 -0.00921917 -0.34241864 -0.57733786 -0.33197632 0.625 0
-1.6860454 7.4911537 3.4692192 -0.17882024 0.30152538 -0.5200802 0.375 0.25
-1.6860454 3.2455769 3.4692192 -0.41938806 0 -0.40656537 0.375 0.125
2.10569 7.4911537 3.4692192 -0.16686751 0.8440389 -0.26250583 0.375 0.5
-1.337486 -1 2.8213115 0.1788283 -0.90453297 -0.17336129 0.4008415 0.9741585
-1.6860454 -1 -0.00921917 -0.34241864 -0.57733786 -0.33197632 0.625 1
-1.6860454 -1 3.4692192 -0.17882778 -0.3015099 -0.5200807 0.375 1
1.337486 -1 2.8213115 -0.1788308 -0.90453637 -0.17335288 0.4008415 0.77584153
1.337486 -1 0.061977267 -0.17882782 -0.9045335 0.17336082 0.5991585 0.77584153
2.10569 -1 3.4692192 -0.4133074 -0.69599056 -0.099571355 0.375 0.75
-1.337486 -0.7735371 0.061977267 0.41938728 0 0.40656608 0.5991585 0.9741585
0 -0.7735371 2.8213115 0 0 -0.57497066 0.4008415 0.875
-1.337486 -0.7735371 2.8213115 0.41938818 0 -0.4065652 0.4008415 0.9741585
1.337486 -0.7735371 2.8213115 -0.41938728 0 -0.40656608 0.4008415 0.77584153
2.0923204 -1.5191454 -0.00921917 -0.3401159 -0.5761446 -0.33487368 0.67811245 0.7512911
7.6272373 7.4911537 -0.00921917 0.34242666 0.57736635 -0.3319521 0.625 0.5
7.6272373 -1 3.4692192 0.53648233 -0.3015092 0.17336215 0.375 0.75
7.6272373 7.4911537 3.4692192 0.4193905 0.7071021 -0 0.375 0.5
7.6272373 7.4911537 6.4328327 0.1788243 0.30151296 -0.5200813 0.375 0.5
2.10569 3.2455769 3.4692192 -0.5931038 0 0 0.375 0.625
2.10569 7.4911537 6.4328327 -0.17881723 0.30150113 -0.5200859 0.375 0.5
2.10569 -1 6.4328327 -0.17881937 -0.30151138 -0.5200831 0.375 0.75
-1.6860454 -1.6134601 3.4692192 0 0 -0.57497066 0.375 1
3.1432393 -1.6134601 3.4692192 0 0 -0.57497066 0.375 0.75
-1.6860454 7.9054093 3.4692192 0 0 -0.57497066 0.375 0.25
-2.7195594 7.4911537 3.4692192 0 0 -0.57497066 0.375 0.25
-2.7195594 3.2455769 3.4692192 0 0 -0.57497066 0.375 0.125
-1.6860454 -1 3.4692192 -0.17882778 -0.3015099 -0.5200807 0.375 0
-2.7195594 7.9054093 3.4692192 0 0 -0.57497066 0.375 0.25
-2.7195594 -1 3.4692192 0 0 -0.57497066 0.375 1
4.2433906 -1 4.171386 0 -1 0 0.375 0.75
4.2433906 -1 5.730666 0 -1 0 0.37500006 0.7500001
7.6272373 -1 6.4328327 0.17882556 -0.30148414 -0.52008635 0.375 0.75
5.8602676 -1 5.730666 0 -1 0 0.375 0.75
5.8602676 -1 4.171386 0 -1 0 0.375 0.75
7.4442697 -1.5191454 3.115881 -0.17882493 -0.9045699 -0.1733008 0.3889681 0.75000983
4.8661017 -1.2515395 3.115881 0 -1.9817215e-07 -0.57497066 0.39000466 0.750035
3.5770173 -1.2515395 3.115881 0 -2.2273359e-07 -0.57497066 0.39052296 0.7500476
7.6272373 -1 -0.00921917 0.41938338 0 -0.4065699 0.625 0.75
7.6272373 -1.5191454 3.4692192 0.34242174 -0.57734954 0.33196655 0.375 0.75
2.10569 -1.5191454 3.4692192 -0.34169057 -0.57755256 0.33255738 0.375 0.75
2.2762244 -1.5191454 -0.0055309534 0.3435235 -0.5809884 -0.3287828 0.67811245 0.7512911
7.6272373 -1.5191454 -0.00921917 0.34241313 -0.577369 -0.33196378 0.625 0.75
8.466923 -1.4296967 6.4328327 0 0 -0.57497066 0.375 0.75
8.466923 -1 6.4328327 0 0 -0.57497066 0.375 0.75
7.6272373 -1.4296967 6.4328327 0 0 -0.57497066 0.375 0.75
2.10569 8.04085 6.4328327 0 0 -0.57497066 0.375 0.5
8.466923 7.4911537 6.4328327 0 0 -0.57497066 0.375 0.5
7.6272373 8.04085 6.4328327 0 0 -0.57497066 0.375 0.5
1.3906159 -1 6.4328327 0 0 -0.57497066 0.375 0.75
2.10569 -1.4296967 6.4328327 0 0 -0.57497066 0.375 0.75
1.3906159 8.04085 6.4328327 0 0 -0.57497066 0.375 0.5
1.3906159 7.4911537 6.4328327 0 0 -0.57497066 0.375 0.5
2.2879333 -1.5191454 3.115881 0.17886974 -0.9040875 -0.17408782 0.39104125 0.7500602
7.4435015 -1.5191454 -0.008560061 -0.17868905 -0.90448177 0.17358455 0.61278796 0.7500329
2.282079 -1.2515395 1.5551751 0.59309936 -9.157567e-08 -0.0022248125 0.525676 0.7506241
2.2791517 -1.2515395 0.774822 0.59309936 -3.7232874e-06 -0.0022248246 0.59299344 0.7509061
3.5680437 -1.2515395 -0.00628829 0.00033707786 0.000109872475 0.57497054 0.6648343 0.75096834
6.151682 -1.2515395 -0.007802844 0.0003370785 0.000109872475 0.57497054 0.6382781 0.75032276
7.443886 -1.2515395 1.5536605 -0.59310377 1.0622825e-05 0.00014590005 0.50087804 0.75002134
7.444078 -1.2515395 2.3347707 -0.5931038 -6.6972007e-06 0.0001459 0.44492307 0.7500156
-1.6860454 -1 -0.00921917 -0.34241864 -0.57733786 -0.33197632 0.875 0.75
-1.6860454 7.4911537 -0.00921917 -0.34243348 0.5773584 -0.33195007 0.625 0.25
3.1432393 7.9054093 3.4692192 0 0 -0.57497066 0.375 0.5
-2.7195594 -1 3.4692192 0 0 -0.57497066 0.375 0
-2.7195594 -1.6134601 3.4692192 0 0 -0.57497066 0.375 1
2.2879333 -1.2515395 3.115881 0.41857243 -8.7321705e-09 -0.40735453 0.39104125 0.7500602
7.4442697 -1.2515395 3.115881 -0.41944006 -5.281554e-07 -0.4065149 0.3889681 0.75000983
6.1551857 -1.2515395 3.115881 0 1.9886541e-07 -0.57497066 0.38948637 0.7500224
7.4435015 -1.5191454 -0.008560061 -0.17868905 -0.90448177 0.17358455 0.625 0.75
8.466923 8.04085 6.4328327 0 0 -0.57497066 0.375 0.5
1.3906159 -1.4296967 6.4328327 0 0 -0.57497066 0.375 0.75
2.2762244 -1.5191454 -0.0055309534 0.3435235 -0.5809884 -0.3287828 0.66031086 0.7511881
2.2762244 -1.2515395 -0.0055309534 0.42031634 -2.6498702e-07 0.4056634 0.66031086 0.7511881
2.285006 -1.2515395 2.335528 0.5930994 -8.2287204e-07 -0.0022246996 0.45835865 0.75034213
7.4435015 -1.2515395 -0.008560061 -0.41921222 0 0.40673578 0.625 0.75
2.2762244 -1.2515395 -0.0055309534 0.42031634 -2.6498702e-07 0.4056634 0.67811245 0.7512911
4.859863 -1.2515395 -0.0070455074 0 1 -0 0.6515562 0.7506455
7.4435015 -1.2515395 -0.008560061 -0.41921222 0 0.40673578 0.61278796 0.7500329
7.4436936 -1.2515395 0.7725503 -0.5931038 -1.6444282e-06 0.00014590015 0.556833 0.7500271
3 0 1 2
3 3 4 5
3 6 7 8
3 7 2 9
3 10 11 12
3 13 1 14
3 14 11 3
3 13 12 15
3 10 16 3
3 13 17 18
3 14 19 13
3 15 20 1
3 21 22 23
3 9 21 23
3 22 24 23
3 1 21 2
3 25 26 27
3 23 26 9
3 15 28 29
3 9 30 7
3 31 8 7
3 32 33 8
3 34 7 30
3 35 28 12
3 36 22 15
3 37 38 39
3 39 22 40
3 36 27 37
3 41 42 43
3 44 45 22
3 22 46 15
3 1 47 48
3 38 49 50
3 27 51 38
3 24 52 26
3 53 54 24
3 26 55 27
3 38 53 24
3 55 56 27
3 26 57 58
3 59 20 46
3 41 48 60
3 41 46 45
3 59 61 62
3 47 63 64
3 60 65 66
3 0 67 1
3 5 14 3
3 3 16 4
3 8 33 6
3 6 68 7
3 7 68 2
3 10 3 11
3 13 15 1
3 14 1 11
3 13 10 12
3 10 18 16
3 18 10 13
3 13 19 17
3 14 5 19
3 15 46 20
3 21 44 22
3 9 2 21
3 22 38 24
3 1 44 21
3 27 15 25
3 25 9 26
3 23 24 26
3 15 12 28
3 9 69 30
3 31 32 8
3 32 70 33
3 34 31 7
3 35 71 28
3 36 40 22
3 37 27 38
3 39 38 22
3 36 15 27
3 72 59 41
3 41 73 74
3 41 74 42
3 43 72 41
3 44 48 45
3 22 45 46
3 48 44 1
3 1 20 47
3 47 75 48
3 38 51 49
3 27 56 51
3 24 54 52
3 53 76 54
3 26 58 55
3 38 50 53
3 55 77 56
3 26 52 57
3 59 78 20
3 41 45 48
3 41 59 46
3 79 78 59
3 59 72 80
3 59 80 61
3 62 79 59
3 81 75 47
3 47 82 63
3 63 83 64
3 64 81 47
3 73 41 60
3 60 84 85
3 60 85 65
3 66 73 60
