ply
format ascii 1.0
comment Created in Blender version 4.1.1
element vertex 204
property float x
property float y
property float z
property float nx
property float ny
property float nz
property float s
property float t
element face 180
property list uchar uint vertex_indices
end_header
-1.0570711 -19.898323 2.3314767 9.0761 -1.9364021 3.1338794 1 0
-3.5585399 -8.173531 2.3314767 -9.0761 1.9364021 3.1338794 0 1
-3.5585399 -19.898323 2.3314767 -9.076403 -1.9364108 3.1337614 0 0
-3.5585399 -8.173531 2.108073 -9.076231 1.9363741 -3.1338794 0 1
-1.0570711 -19.898323 2.108073 9.076231 -1.9363741 -3.1338794 1 0
-3.5585399 -19.898323 2.108073 -9.076273 -1.9364386 -3.1337614 0 0
-1.0570711 -8.173531 2.108073 9.076273 1.9364386 -3.1337614 1 1
-1.0570711 -8.173531 2.3314767 9.076403 1.9364108 3.1337614 1 1
-4.7660294 -20.064465 2.6867404 -9.0763235 -1.9364192 3.133775 0.625 0
-4.7660294 -19.146105 2.3350337 -9.0763235 1.9364192 -3.133775 0.375 0.25
-4.7660294 -20.064465 2.3350337 -9.076236 -1.9364258 -3.1337948 0.375 0
-4.7660294 -19.146105 2.6867404 -9.076236 1.9364258 3.1337948 0.625 0.25
0.09652352 -19.146105 2.3350337 9.076236 1.9364258 -3.1337948 0.375 0.5
0.09652352 -19.146105 2.6867404 9.0763235 1.9364192 3.133775 0.625 0.5
0.09652352 -20.064465 2.3350337 9.0763235 -1.9364192 -3.133775 0.375 0.75
0.09652352 -20.064465 2.6867404 9.076236 -1.9364258 3.1337948 0.625 0.75
-4.7660294 -20.064465 2.3350337 -9.076236 -1.9364258 -3.1337948 0.375 1
-4.7660294 -20.064465 2.3350337 -9.076236 -1.9364258 -3.1337948 0.125 0.75
-4.7660294 -19.146105 2.3350337 -9.0763235 1.9364192 -3.133775 0.125 0.5
-4.7660294 -19.146105 2.6867404 -9.076236 1.9364258 3.1337948 0.875 0.5
-4.76603 -13.016836 2.6867406 -9.076323 -1.9364192 3.133775 0.625 0
-4.76603 -12.098475 2.3350337 -9.076323 1.9364192 -3.133775 0.375 0.25
-4.76603 -13.016836 2.3350337 -9.076229 -1.9364246 -3.1337988 0.375 0
-4.76603 -12.098475 2.6867406 -9.076229 1.9364246 3.1337988 0.625 0.25
0.096524 -12.098475 2.3350337 9.076229 1.9364246 -3.1337988 0.375 0.5
0.096524 -12.098475 2.6867406 9.076323 1.9364192 3.133775 0.625 0.5
0.096524 -13.016836 2.3350337 9.076323 -1.9364192 -3.133775 0.375 0.75
0.096524 -13.016836 2.6867406 9.076229 -1.9364246 3.1337988 0.625 0.75
-4.76603 -13.016836 2.3350337 -9.076229 -1.9364246 -3.1337988 0.375 1
-4.76603 -13.016836 2.3350337 -9.076229 -1.9364246 -3.1337988 0.125 0.75
-4.76603 -12.098475 2.3350337 -9.076323 1.9364192 -3.133775 0.125 0.5
-4.76603 -12.098475 2.6867406 -9.076229 1.9364246 3.1337988 0.875 0.5
-4.76603 -14.022324 2.6867406 -9.076323 -1.9364192 3.133775 0.625 0
-4.76603 -13.103963 2.3350337 -9.076323 1.9364192 -3.133775 0.375 0.25
-4.76603 -14.022324 2.3350337 -9.076229 -1.9364246 -3.1337988 0.375 0
-4.76603 -13.103963 2.6867406 -9.076229 1.9364246 3.1337988 0.625 0.25
0.096524 -13.103963 2.3350337 9.076229 1.9364246 -3.1337988 0.375 0.5
0.096524 -13.103963 2.6867406 9.076323 1.9364192 3.133775 0.625 0.5
0.096524 -14.022324 2.3350337 9.076323 -1.9364192 -3.133775 0.375 0.75
0.096524 -14.022324 2.6867406 9.076229 -1.9364246 3.1337988 0.625 0.75
-4.76603 -14.022324 2.3350337 -9.076229 -1.9364246 -3.1337988 0.375 1
-4.76603 -14.022324 2.3350337 -9.076229 -1.9364246 -3.1337988 0.125 0.75
-4.76603 -13.103963 2.3350337 -9.076323 1.9364192 -3.133775 0.125 0.5
-4.76603 -13.103963 2.6867406 -9.076229 1.9364246 3.1337988 0.875 0.5
-4.76603 -15.037034 2.6867406 -9.076323 -1.9364192 3.133775 0.625 0
-4.76603 -14.118673 2.3350337 -9.076323 1.9364192 -3.133775 0.375 0.25
-4.76603 -15.037034 2.3350337 -9.076229 -1.9364246 -3.1337988 0.375 0
-4.76603 -14.118673 2.6867406 -9.076229 1.9364246 3.1337988 0.625 0.25
0.096524 -14.118673 2.3350337 9.076229 1.9364246 -3.1337988 0.375 0.5
0.096524 -14.118673 2.6867406 9.076323 1.9364192 3.133775 0.625 0.5
0.096524 -15.037034 2.3350337 9.076323 -1.9364192 -3.133775 0.375 0.75
0.096524 -15.037034 2.6867406 9.076229 -1.9364246 3.1337988 0.625 0.75
-4.76603 -15.037034 2.3350337 -9.076229 -1.9364246 -3.1337988 0.375 1
-4.76603 -15.037034 2.3350337 -9.076229 -1.9364246 -3.1337988 0.125 0.75
-4.76603 -14.118673 2.3350337 -9.076323 1.9364192 -3.133775 0.125 0.5
-4.76603 -14.118673 2.6867406 -9.076229 1.9364246 3.1337988 0.875 0.5
-4.76603 -16.042519 2.6867406 -9.076323 -1.9364192 3.133775 0.625 0
-4.76603 -15.124159 2.3350337 -9.076323 1.9364192 -3.133775 0.375 0.25
-4.76603 -16.042519 2.3350337 -9.076229 -1.9364246 -3.1337988 0.375 0
-4.76603 -15.124159 2.6867406 -9.076229 1.9364246 3.1337988 0.625 0.25
0.096524 -15.124159 2.3350337 9.076229 1.9364246 -3.1337988 0.375 0.5
0.096524 -15.124159 2.6867406 9.076323 1.9364192 3.133775 0.625 0.5
0.096524 -16.042519 2.3350337 9.076323 -1.9364192 -3.133775 0.375 0.75
0.096524 -16.042519 2.6867406 9.076229 -1.9364246 3.1337988 0.625 0.75
-4.76603 -16.042519 2.3350337 -9.076229 -1.9364246 -3.1337988 0.375 1
-4.76603 -16.042519 2.3350337 -9.076229 -1.9364246 -3.1337988 0.125 0.75
-4.76603 -15.124159 2.3350337 -9.076323 1.9364192 -3.133775 0.125 0.5
-4.76603 -15.124159 2.6867406 -9.076229 1.9364246 3.1337988 0.875 0.5
-4.76603 -17.038782 2.6867406 -9.076324 -1.9364192 3.133775 0.625 0
-4.76603 -16.120422 2.3350337 -9.076324 1.9364192 -3.1337745 0.375 0.25
-4.76603 -17.038782 2.3350337 -9.076231 -1.9364246 -3.1337988 0.375 0
-4.76603 -16.120422 2.6867406 -9.07623 1.9364246 3.1337988 0.625 0.25
0.096524 -16.120422 2.3350337 9.07623 1.9364246 -3.1337988 0.375 0.5
0.096524 -16.120422 2.6867406 9.076324 1.9364192 3.1337745 0.625 0.5
0.096524 -17.038782 2.3350337 9.076324 -1.9364192 -3.133775 0.375 0.75
0.096524 -17.038782 2.6867406 9.076231 -1.9364246 3.1337988 0.625 0.75
-4.76603 -17.038782 2.3350337 -9.076231 -1.9364246 -3.1337988 0.375 1
-4.76603 -17.038782 2.3350337 -9.076231 -1.9364246 -3.1337988 0.125 0.75
-4.76603 -16.120422 2.3350337 -9.076324 1.9364192 -3.1337745 0.125 0.5
-4.76603 -16.120422 2.6867406 -9.07623 1.9364246 3.1337988 0.875 0.5
-4.76603 -18.044268 2.6867406 -9.076324 -1.9364192 3.133775 0.625 0
-4.76603 -17.125908 2.3350337 -9.076324 1.9364192 -3.1337745 0.375 0.25
-4.76603 -18.044268 2.3350337 -9.076231 -1.9364246 -3.1337988 0.375 0
-4.76603 -17.125908 2.6867406 -9.07623 1.9364246 3.1337988 0.625 0.25
0.096524 -17.125908 2.3350337 9.07623 1.9364246 -3.1337988 0.375 0.5
0.096524 -17.125908 2.6867406 9.076324 1.9364192 3.1337745 0.625 0.5
0.096524 -18.044268 2.3350337 9.076324 -1.9364192 -3.133775 0.375 0.75
0.096524 -18.044268 2.6867406 9.076231 -1.9364246 3.1337988 0.625 0.75
-4.76603 -18.044268 2.3350337 -9.076231 -1.9364246 -3.1337988 0.375 1
-4.76603 -18.044268 2.3350337 -9.076231 -1.9364246 -3.1337988 0.125 0.75
-4.76603 -17.125908 2.3350337 -9.076324 1.9364192 -3.1337745 0.125 0.5
-4.76603 -17.125908 2.6867406 -9.07623 1.9364246 3.1337988 0.875 0.5
-4.76603 -19.058979 2.6867406 -9.0763235 -1.9364192 3.133775 0.625 0
-4.76603 -18.140617 2.3350337 -9.0763235 1.9364192 -3.1337745 0.375 0.25
-4.76603 -19.058979 2.3350337 -9.076231 -1.9364246 -3.1337988 0.375 0
-4.76603 -18.140617 2.6867406 -9.07623 1.9364246 3.1337988 0.625 0.25
0.096524 -18.140617 2.3350337 9.07623 1.9364246 -3.1337988 0.375 0.5
0.096524 -18.140617 2.6867406 9.0763235 1.9364192 3.1337745 0.625 0.5
0.096524 -19.058979 2.3350337 9.0763235 -1.9364192 -3.133775 0.375 0.75
0.096524 -19.058979 2.6867406 9.076231 -1.9364246 3.1337988 0.625 0.75
-4.76603 -19.058979 2.3350337 -9.076231 -1.9364246 -3.1337988 0.375 1
-4.76603 -19.058979 2.3350337 -9.076231 -1.9364246 -3.1337988 0.125 0.75
-4.76603 -18.140617 2.3350337 -9.0763235 1.9364192 -3.1337745 0.125 0.5
-4.76603 -18.140617 2.6867406 -9.07623 1.9364246 3.1337988 0.875 0.5
-4.76603 -11.043121 2.6867406 -9.0763235 -1.9364194 3.133775 0.625 0
-4.76603 -10.124761 2.3350337 -9.076323 1.9364192 -3.133775 0.375 0.25
-4.76603 -11.043121 2.3350337 -9.076229 -1.9364246 -3.1337988 0.375 0
-4.76603 -10.124761 2.6867406 -9.07623 1.9364246 3.1337988 0.625 0.25
0.096524 -10.124761 2.3350337 9.07623 1.9364246 -3.1337988 0.375 0.5
0.096524 -10.124761 2.6867406 9.076323 1.9364192 3.133775 0.625 0.5
0.096524 -11.043121 2.3350337 9.0763235 -1.9364194 -3.133775 0.375 0.75
0.096524 -11.043121 2.6867406 9.076229 -1.9364246 3.1337988 0.625 0.75
-4.76603 -11.043121 2.3350337 -9.076229 -1.9364246 -3.1337988 0.375 1
-4.76603 -11.043121 2.3350337 -9.076229 -1.9364246 -3.1337988 0.125 0.75
-4.76603 -10.124761 2.3350337 -9.076323 1.9364192 -3.133775 0.125 0.5
-4.76603 -10.124761 2.6867406 -9.07623 1.9364246 3.1337988 0.875 0.5
-4.7660303 -12.048608 2.6867409 -9.076324 -1.9364192 3.133775 0.625 0
-4.7660303 -11.130247 2.335034 -9.076324 1.9364192 -3.1337745 0.375 0.25
-4.7660303 -12.048608 2.335034 -9.076236 -1.9364258 -3.1337948 0.375 0
-4.7660303 -11.130247 2.6867409 -9.076236 1.9364258 3.1337948 0.625 0.25
0.096524715 -11.130247 2.335034 9.076236 1.9364258 -3.1337948 0.375 0.5
0.096524715 -11.130247 2.6867409 9.076324 1.9364192 3.1337745 0.625 0.5
0.096524715 -12.048608 2.335034 9.076324 -1.9364192 -3.133775 0.375 0.75
0.096524715 -12.048608 2.6867409 9.076236 -1.9364258 3.1337948 0.625 0.75
-4.7660303 -12.048608 2.335034 -9.076236 -1.9364258 -3.1337948 0.375 1
-4.7660303 -12.048608 2.335034 -9.076236 -1.9364258 -3.1337948 0.125 0.75
-4.7660303 -11.130247 2.335034 -9.076324 1.9364192 -3.1337745 0.125 0.5
-4.7660303 -11.130247 2.6867409 -9.076236 1.9364258 3.1337948 0.875 0.5
-0.16236067 -19.370176 2.1914246 9.076357 1.9364154 -3.1337688 0.375 0.25
-0.16236067 -19.859352 4.7785544 9.076357 -1.9364154 3.1337688 0.625 0
-0.16236067 -19.859352 2.1914246 9.076631 -1.9363878 -3.13372 0.375 0
-0.44649577 -19.370176 2.1914246 -9.076631 1.9363878 -3.13372 0.375 0.5
-0.16236067 -19.370176 4.7785544 9.076631 1.9363878 3.13372 0.625 0.25
-0.44649577 -19.859352 2.1914246 -9.076357 -1.9364154 -3.1337688 0.375 0.75
-0.44649577 -19.370176 4.7785544 -9.076357 1.9364154 3.1337688 0.625 0.5
-0.16236067 -19.859352 2.1914246 9.076631 -1.9363878 -3.13372 0.375 1
-0.44649577 -19.859352 4.7785544 -9.076631 -1.9363878 3.13372 0.625 0.75
-0.16236067 -19.859352 2.1914246 9.076631 -1.9363878 -3.13372 0.125 0.75
-0.16236067 -19.370176 2.1914246 9.076357 1.9364154 -3.1337688 0.125 0.5
-0.16236067 -19.370176 4.7785544 9.076631 1.9363878 3.13372 0.875 0.5
-0.13487458 -19.34479 -1.4912083 9.076407 1.9364102 -3.1337605 0.375 0.25
-0.13487458 -19.88474 2.5368476 9.076407 -1.9364102 3.1337605 0.625 0
-0.13487458 -19.88474 -1.4912083 9.076599 -1.9363847 -3.1337354 0.375 0
-0.55761766 -19.34479 -1.4912083 -9.076599 1.9363847 -3.1337354 0.375 0.5
-0.13487458 -19.34479 2.5368476 9.076599 1.9363847 3.1337354 0.625 0.25
-0.55761766 -19.88474 -1.4912083 -9.076407 -1.9364102 -3.1337605 0.375 0.75
-0.55761766 -19.34479 2.5368476 -9.076407 1.9364102 3.1337605 0.625 0.5
-0.13487458 -19.88474 -1.4912083 9.076599 -1.9363847 -3.1337354 0.375 1
-0.55761766 -19.88474 2.5368476 -9.076599 -1.9363847 3.1337354 0.625 0.75
-0.13487458 -19.88474 -1.4912083 9.076599 -1.9363847 -3.1337354 0.125 0.75
-0.13487458 -19.34479 -1.4912083 9.076407 1.9364102 -3.1337605 0.125 0.5
-0.13487458 -19.34479 2.5368476 9.076599 1.9363847 3.1337354 0.875 0.5
-4.2242303 -19.370178 2.1914248 9.076357 1.9364154 -3.1337688 0.375 0.25
-4.2242303 -19.859354 4.7785544 9.076357 -1.9364154 3.1337688 0.625 0
-4.2242303 -19.859354 2.1914248 9.076629 -1.936388 -3.1337204 0.375 0
-4.5083656 -19.370178 2.1914248 -9.076629 1.936388 -3.1337204 0.375 0.5
-4.2242303 -19.370178 4.7785544 9.076629 1.936388 3.1337204 0.625 0.25
-4.5083656 -19.859354 2.1914248 -9.076357 -1.9364154 -3.1337688 0.375 0.75
-4.5083656 -19.370178 4.7785544 -9.076357 1.9364154 3.1337688 0.625 0.5
-4.2242303 -19.859354 2.1914248 9.076629 -1.936388 -3.1337204 0.375 1
-4.5083656 -19.859354 4.7785544 -9.076629 -1.936388 3.1337204 0.625 0.75
-4.2242303 -19.859354 2.1914248 9.076629 -1.936388 -3.1337204 0.125 0.75
-4.2242303 -19.370178 2.1914248 9.076357 1.9364154 -3.1337688 0.125 0.5
-4.2242303 -19.370178 4.7785544 9.076629 1.936388 3.1337204 0.875 0.5
-4.1326227 -19.344791 -1.4912076 9.076407 1.9364102 -3.1337605 0.375 0.25
-4.1326227 -19.884743 2.5368476 9.076407 -1.9364102 3.1337605 0.625 0
-4.1326227 -19.884743 -1.4912076 9.076599 -1.9363844 -3.133736 0.375 0
-4.555366 -19.344791 -1.4912076 -9.076599 1.9363844 -3.133736 0.375 0.5
-4.1326227 -19.344791 2.5368476 9.076599 1.9363844 3.133736 0.625 0.25
-4.555366 -19.884743 -1.4912076 -9.076407 -1.9364102 -3.1337605 0.375 0.75
-4.555366 -19.344791 2.5368476 -9.076407 1.9364102 3.1337605 0.625 0.5
-4.1326227 -19.884743 -1.4912076 9.076599 -1.9363844 -3.133736 0.375 1
-4.555366 -19.884743 2.5368476 -9.076599 -1.9363844 3.133736 0.625 0.75
-4.1326227 -19.884743 -1.4912076 9.076599 -1.9363844 -3.133736 0.125 0.75
-4.1326227 -19.344791 -1.4912076 9.076407 1.9364102 -3.1337605 0.125 0.5
-4.1326227 -19.344791 2.5368476 9.076599 1.9363844 3.133736 0.875 0.5
-4.7660294 -20.064465 2.6867404 -9.0763235 -1.9364192 3.133775 0.625 1
-4.7660294 -20.064465 2.6867404 -9.0763235 -1.9364192 3.133775 0.875 0.75
-4.76603 -13.016836 2.6867406 -9.076323 -1.9364192 3.133775 0.625 1
-4.76603 -13.016836 2.6867406 -9.076323 -1.9364192 3.133775 0.875 0.75
-4.76603 -14.022324 2.6867406 -9.076323 -1.9364192 3.133775 0.625 1
-4.76603 -14.022324 2.6867406 -9.076323 -1.9364192 3.133775 0.875 0.75
-4.76603 -15.037034 2.6867406 -9.076323 -1.9364192 3.133775 0.625 1
-4.76603 -15.037034 2.6867406 -9.076323 -1.9364192 3.133775 0.875 0.75
-4.76603 -16.042519 2.6867406 -9.076323 -1.9364192 3.133775 0.625 1
-4.76603 -16.042519 2.6867406 -9.076323 -1.9364192 3.133775 0.875 0.75
-4.76603 -17.038782 2.6867406 -9.076324 -1.9364192 3.133775 0.625 1
-4.76603 -17.038782 2.6867406 -9.076324 -1.9364192 3.133775 0.875 0.75
-4.76603 -18.044268 2.6867406 -9.076324 -1.9364192 3.133775 0.625 1
-4.76603 -18.044268 2.6867406 -9.076324 -1.9364192 3.133775 0.875 0.75
-4.76603 -19.058979 2.6867406 -9.0763235 -1.9364192 3.133775 0.625 1
-4.76603 -19.058979 2.6867406 -9.0763235 -1.9364192 3.133775 0.875 0.75
-4.76603 -11.043121 2.6867406 -9.0763235 -1.9364194 3.133775 0.625 1
-4.76603 -11.043121 2.6867406 -9.0763235 -1.9364194 3.133775 0.875 0.75
-4.7660303 -12.048608 2.6867409 -9.076324 -1.9364192 3.133775 0.625 1
-4.7660303 -12.048608 2.6867409 -9.076324 -1.9364192 3.133775 0.875 0.75
-0.16236067 -19.859352 4.7785544 9.076357 -1.9364154 3.1337688 0.625 1
-0.16236067 -19.859352 4.7785544 9.076357 -1.9364154 3.1337688 0.875 0.75
-0.13487458 -19.88474 2.5368476 9.076407 -1.9364102 3.1337605 0.625 1
-0.13487458 -19.88474 2.5368476 9.076407 -1.9364102 3.1337605 0.875 0.75
-4.2242303 -19.859354 4.7785544 9.076357 -1.9364154 3.1337688 0.625 1
-4.2242303 -19.859354 4.7785544 9.076357 -1.9364154 3.1337688 0.875 0.75
-4.1326227 -19.884743 2.5368476 9.076407 -1.9364102 3.1337605 0.625 1
-4.1326227 -19.884743 2.5368476 9.076407 -1.9364102 3.1337605 0.875 0.75
3 0 1 2
3 3 4 5
3 6 1 7
3 5 0 2
3 4 7 0
3 3 2 1
3 8 9 10
3 11 12 9
3 13 14 12
3 15 16 14
3 12 17 18
3 19 15 13
3 20 21 22
3 23 24 21
3 25 26 24
3 27 28 26
3 24 29 30
3 31 27 25
3 32 33 34
3 35 36 33
3 37 38 36
3 39 40 38
3 36 41 42
3 43 39 37
3 44 45 46
3 47 48 45
3 49 50 48
3 51 52 50
3 48 53 54
3 55 51 49
3 56 57 58
3 59 60 57
3 61 62 60
3 63 64 62
3 60 65 66
3 67 63 61
3 68 69 70
3 71 72 69
3 73 74 72
3 75 76 74
3 72 77 78
3 79 75 73
3 80 81 82
3 83 84 81
3 85 86 84
3 87 88 86
3 84 89 90
3 91 87 85
3 92 93 94
3 95 96 93
3 97 98 96
3 99 100 98
3 96 101 102
3 103 99 97
3 104 105 106
3 107 108 105
3 109 110 108
3 111 112 110
3 108 113 114
3 115 111 109
3 116 117 118
3 119 120 117
3 121 122 120
3 123 124 122
3 120 125 126
3 127 123 121
3 128 129 130
3 131 132 128
3 133 134 131
3 135 136 133
3 137 131 138
3 136 139 134
3 140 141 142
3 143 144 140
3 145 146 143
3 147 148 145
3 149 143 150
3 148 151 146
3 152 153 154
3 155 156 152
3 157 158 155
3 159 160 157
3 161 155 162
3 160 163 158
3 164 165 166
3 167 168 164
3 169 170 167
3 171 172 169
3 173 167 174
3 172 175 170
3 0 7 1
3 3 6 4
3 6 3 1
3 5 4 0
3 4 6 7
3 3 5 2
3 8 11 9
3 11 13 12
3 13 15 14
3 15 176 16
3 12 14 17
3 19 177 15
3 20 23 21
3 23 25 24
3 25 27 26
3 27 178 28
3 24 26 29
3 31 179 27
3 32 35 33
3 35 37 36
3 37 39 38
3 39 180 40
3 36 38 41
3 43 181 39
3 44 47 45
3 47 49 48
3 49 51 50
3 51 182 52
3 48 50 53
3 55 183 51
3 56 59 57
3 59 61 60
3 61 63 62
3 63 184 64
3 60 62 65
3 67 185 63
3 68 71 69
3 71 73 72
3 73 75 74
3 75 186 76
3 72 74 77
3 79 187 75
3 80 83 81
3 83 85 84
3 85 87 86
3 87 188 88
3 84 86 89
3 91 189 87
3 92 95 93
3 95 97 96
3 97 99 98
3 99 190 100
3 96 98 101
3 103 191 99
3 104 107 105
3 107 109 108
3 109 111 110
3 111 192 112
3 108 110 113
3 115 193 111
3 116 119 117
3 119 121 120
3 121 123 122
3 123 194 124
3 120 122 125
3 127 195 123
3 128 132 129
3 131 134 132
3 133 136 134
3 135 196 136
3 137 133 131
3 136 197 139
3 140 144 141
3 143 146 144
3 145 148 146
3 147 198 148
3 149 145 143
3 148 199 151
3 152 156 153
3 155 158 156
3 157 160 158
3 159 200 160
3 161 157 155
3 160 201 163
3 164 168 165
3 167 170 168
3 169 172 170
3 171 202 172
3 173 169 167
3 172 203 175
