{
	"asset":{
		"generator":"Khronos glTF Blender I/O v4.1.63",
		"version":"2.0"
	},
	"scene":0,
	"scenes":[
		{
			"name":"Scene",
			"nodes":[
				0,
				1,
				2,
				3,
				4,
				5,
				6,
				7
			]
		}
	],
	"nodes":[
		{
			"mesh":0,
			"name":"\u5899\u4f53",
			"rotation":[
				0,
				1,
				0,
				0
			],
			"scale":[
				-1.6860454082489014,
				-1.7392191886901855,
				-1
			],
			"translation":[
				0,
				1.7300000190734863,
				0
			]
		},
		{
			"mesh":1,
			"name":"\u623f\u9876",
			"rotation":[
				0,
				1,
				0,
				0
			],
			"scale":[
				-1.6860454082489014,
				-1.7392191886901855,
				-1
			],
			"translation":[
				0,
				1.7300000190734863,
				0
			]
		},
		{
			"mesh":2,
			"name":"\u623f\u98762",
			"rotation":[
				0,
				1,
				0,
				0
			],
			"scale":[
				-1.6860454082489014,
				-1.7392191886901855,
				-1
			],
			"translation":[
				0,
				1.7300000190734863,
				0
			]
		},
		{
			"mesh":3,
			"name":"\u8f66\u5e93\u95e8",
			"rotation":[
				0,
				1,
				0,
				0
			],
			"scale":[
				-1.6860454082489014,
				-1.7392191886901855,
				-1
			],
			"translation":[
				0,
				1.7300000190734863,
				0
			]
		},
		{
			"mesh":4,
			"name":"\u7a97",
			"rotation":[
				0,
				1,
				0,
				0
			],
			"scale":[
				-1.6860454082489014,
				-1.7392191886901855,
				-1
			],
			"translation":[
				0,
				1.7300000190734863,
				0
			]
		},
		{
			"mesh":5,
			"name":"\u5927\u95e8",
			"rotation":[
				0,
				1,
				0,
				0
			],
			"scale":[
				-1.6860454082489014,
				-1.7392191886901855,
				-1
			],
			"translation":[
				0,
				1.7300000190734863,
				0
			]
		},
		{
			"mesh":6,
			"name":"\u628a\u624b",
			"rotation":[
				0,
				1,
				0,
				0
			],
			"scale":[
				-1.6860454082489014,
				-1.7392191886901855,
				-1
			],
			"translation":[
				0,
				1.7300000190734863,
				0
			]
		},
		{
			"mesh":7,
			"name":"\u7a97\u6846",
			"rotation":[
				0,
				1,
				0,
				0
			],
			"scale":[
				-1.6860454082489014,
				-1.7392191886901855,
				-1
			],
			"translation":[
				0,
				1.7300000190734863,
				0
			]
		}
	],
	"materials":[
		{
			"doubleSided":true,
			"name":"\u6750\u8d28.002",
			"pbrMetallicRoughness":{
				"baseColorFactor":[
					0.7173672318458557,
					0.7121975421905518,
					0.43674004077911377,
					1
				],
				"metallicFactor":0,
				"roughnessFactor":0.6811023950576782
			}
		},
		{
			"doubleSided":true,
			"name":"\u5c4b\u9876",
			"pbrMetallicRoughness":{
				"baseColorFactor":[
					0.50468909740448,
					0.07671502232551575,
					0.039099231362342834,
					1
				],
				"metallicFactor":0,
				"roughnessFactor":0.7598425149917603
			}
		},
		{
			"doubleSided":true,
			"name":"\u6750\u8d28.001",
			"pbrMetallicRoughness":{
				"baseColorFactor":[
					0.2953953742980957,
					0.10628463327884674,
					0.05106333643198013,
					1
				],
				"metallicFactor":0.16535432636737823,
				"roughnessFactor":0.7204724550247192
			}
		},
		{
			"doubleSided":true,
			"name":"\u6750\u8d28.003",
			"pbrMetallicRoughness":{
				"baseColorFactor":[
					0.6761364936828613,
					0.8001260757446289,
					0.7607368230819702,
					1
				],
				"metallicFactor":0,
				"roughnessFactor":0.7677165269851685
			}
		},
		{
			"doubleSided":true,
			"name":"\u7a97",
			"pbrMetallicRoughness":{
				"baseColorFactor":[
					0.4544815123081207,
					0.7650794982910156,
					1,
					0.7401574850082397
				],
				"metallicFactor":0,
				"roughnessFactor":0.35826772451400757
			}
		},
		{
			"doubleSided":true,
			"name":"\u95e8",
			"pbrMetallicRoughness":{
				"baseColorFactor":[
					0.685834527015686,
					0.3539164960384369,
					0.13136115670204163,
					1
				],
				"metallicFactor":0,
				"roughnessFactor":0.625984251499176
			}
		},
		{
			"doubleSided":true,
			"name":"\u7a97\u6846",
			"pbrMetallicRoughness":{
				"baseColorFactor":[
					0.23014985024929047,
					0.05877213552594185,
					0.05169570446014404,
					1
				],
				"metallicFactor":0.29921260476112366,
				"roughnessFactor":0.6811023950576782
			}
		}
	],
	"meshes":[
		{
			"name":"Cube",
			"primitives":[
				{
					"attributes":{
						"POSITION":0,
						"NORMAL":1,
						"TEXCOORD_0":2
					},
					"indices":3,
					"material":0
				}
			]
		},
		{
			"name":"Cube.001",
			"primitives":[
				{
					"attributes":{
						"POSITION":4,
						"NORMAL":5,
						"TEXCOORD_0":6
					},
					"indices":7,
					"material":1
				}
			]
		},
		{
			"name":"Cube.002",
			"primitives":[
				{
					"attributes":{
						"POSITION":8,
						"NORMAL":9,
						"TEXCOORD_0":10
					},
					"indices":11,
					"material":2
				}
			]
		},
		{
			"name":"Cube.003",
			"primitives":[
				{
					"attributes":{
						"POSITION":12,
						"NORMAL":13,
						"TEXCOORD_0":14
					},
					"indices":15,
					"material":3
				}
			]
		},
		{
			"name":"Cube.004",
			"primitives":[
				{
					"attributes":{
						"POSITION":16,
						"NORMAL":17,
						"TEXCOORD_0":18
					},
					"indices":19,
					"material":4
				}
			]
		},
		{
			"name":"Cube.005",
			"primitives":[
				{
					"attributes":{
						"POSITION":20,
						"NORMAL":21,
						"TEXCOORD_0":22
					},
					"indices":23,
					"material":5
				}
			]
		},
		{
			"name":"Cube.006",
			"primitives":[
				{
					"attributes":{
						"POSITION":24,
						"NORMAL":25,
						"TEXCOORD_0":26
					},
					"indices":27,
					"material":2
				}
			]
		},
		{
			"name":"Cube.007",
			"primitives":[
				{
					"attributes":{
						"POSITION":28,
						"NORMAL":29,
						"TEXCOORD_0":30
					},
					"indices":31,
					"material":6
				}
			]
		}
	],
	"accessors":[
		{
			"bufferView":0,
			"componentType":5126,
			"count":147,
			"max":[
				5.021764278411865,
				1,
				1.6134600639343262
			],
			"min":[
				-1.6129810810089111,
				-2.7039906978607178,
				-8.040849685668945
			],
			"type":"VEC3"
		},
		{
			"bufferView":1,
			"componentType":5126,
			"count":147,
			"type":"VEC3"
		},
		{
			"bufferView":2,
			"componentType":5126,
			"count":147,
			"type":"VEC2"
		},
		{
			"bufferView":3,
			"componentType":5123,
			"count":330,
			"type":"SCALAR"
		},
		{
			"bufferView":4,
			"componentType":5126,
			"count":29,
			"max":[
				1.8642672300338745,
				-1,
				1.6134600639343262
			],
			"min":[
				-1.6129810810089111,
				-2.4029293060302734,
				-7.905409336090088
			],
			"type":"VEC3"
		},
		{
			"bufferView":5,
			"componentType":5126,
			"count":29,
			"type":"VEC3"
		},
		{
			"bufferView":6,
			"componentType":5126,
			"count":29,
			"type":"VEC2"
		},
		{
			"bufferView":7,
			"componentType":5123,
			"count":48,
			"type":"SCALAR"
		},
		{
			"bufferView":8,
			"componentType":5126,
			"count":36,
			"max":[
				5.021764278411865,
				-2.7039906978607178,
				1.4296966791152954
			],
			"min":[
				0.8247796297073364,
				-3.450434446334839,
				-8.040849685668945
			],
			"type":"VEC3"
		},
		{
			"bufferView":9,
			"componentType":5126,
			"count":36,
			"type":"VEC3"
		},
		{
			"bufferView":10,
			"componentType":5126,
			"count":36,
			"type":"VEC2"
		},
		{
			"bufferView":11,
			"componentType":5123,
			"count":54,
			"type":"SCALAR"
		},
		{
			"bufferView":12,
			"componentType":5126,
			"count":25,
			"max":[
				4.415225028991699,
				0.9996210336685181,
				1.2515394687652588
			],
			"min":[
				1.3500374555587769,
				-0.7968409061431885,
				1.2515394687652588
			],
			"type":"VEC3"
		},
		{
			"bufferView":13,
			"componentType":5126,
			"count":25,
			"type":"VEC3"
		},
		{
			"bufferView":14,
			"componentType":5126,
			"count":25,
			"type":"VEC2"
		},
		{
			"bufferView":15,
			"componentType":5123,
			"count":96,
			"type":"SCALAR"
		},
		{
			"bufferView":16,
			"componentType":5126,
			"count":6,
			"max":[
				3.407388687133789,
				-1.4720836877822876,
				1.1257036924362183
			],
			"min":[
				2.585129737854004,
				-2.2319071292877197,
				1.1257036924362183
			],
			"type":"VEC3"
		},
		{
			"bufferView":17,
			"componentType":5126,
			"count":6,
			"type":"VEC3"
		},
		{
			"bufferView":18,
			"componentType":5126,
			"count":6,
			"type":"VEC2"
		},
		{
			"bufferView":19,
			"componentType":5123,
			"count":12,
			"type":"SCALAR"
		},
		{
			"bufferView":20,
			"componentType":5126,
			"count":32,
			"max":[
				0.793268084526062,
				0.9590641260147095,
				1.0700451135635376
			],
			"min":[
				-0.793268084526062,
				-0.6274720430374146,
				1.0030597448349
			],
			"type":"VEC3"
		},
		{
			"bufferView":21,
			"componentType":5126,
			"count":32,
			"type":"VEC3"
		},
		{
			"bufferView":22,
			"componentType":5126,
			"count":32,
			"type":"VEC2"
		},
		{
			"bufferView":23,
			"componentType":5123,
			"count":60,
			"type":"SCALAR"
		},
		{
			"bufferView":24,
			"componentType":5126,
			"count":352,
			"max":[
				0.12412160634994507,
				0.22416335344314575,
				1.1558377742767334
			],
			"min":[
				-0.11485260725021362,
				0.16375428438186646,
				1.0507731437683105
			],
			"type":"VEC3"
		},
		{
			"bufferView":25,
			"componentType":5126,
			"count":352,
			"type":"VEC3"
		},
		{
			"bufferView":26,
			"componentType":5126,
			"count":352,
			"type":"VEC2"
		},
		{
			"bufferView":27,
			"componentType":5123,
			"count":654,
			"type":"SCALAR"
		},
		{
			"bufferView":28,
			"componentType":5126,
			"count":42,
			"max":[
				3.4757471084594727,
				-1.403725266456604,
				1.2042226791381836
			],
			"min":[
				2.5167713165283203,
				-2.3002655506134033,
				1
			],
			"type":"VEC3"
		},
		{
			"bufferView":29,
			"componentType":5126,
			"count":42,
			"type":"VEC3"
		},
		{
			"bufferView":30,
			"componentType":5126,
			"count":42,
			"type":"VEC2"
		},
		{
			"bufferView":31,
			"componentType":5123,
			"count":78,
			"type":"SCALAR"
		}
	],
	"bufferViews":[
		{
			"buffer":0,
			"byteLength":1764,
			"byteOffset":0,
			"target":34962
		},
		{
			"buffer":0,
			"byteLength":1764,
			"byteOffset":1764,
			"target":34962
		},
		{
			"buffer":0,
			"byteLength":1176,
			"byteOffset":3528,
			"target":34962
		},
		{
			"buffer":0,
			"byteLength":660,
			"byteOffset":4704,
			"target":34963
		},
		{
			"buffer":0,
			"byteLength":348,
			"byteOffset":5364,
			"target":34962
		},
		{
			"buffer":0,
			"byteLength":348,
			"byteOffset":5712,
			"target":34962
		},
		{
			"buffer":0,
			"byteLength":232,
			"byteOffset":6060,
			"target":34962
		},
		{
			"buffer":0,
			"byteLength":96,
			"byteOffset":6292,
			"target":34963
		},
		{
			"buffer":0,
			"byteLength":432,
			"byteOffset":6388,
			"target":34962
		},
		{
			"buffer":0,
			"byteLength":432,
			"byteOffset":6820,
			"target":34962
		},
		{
			"buffer":0,
			"byteLength":288,
			"byteOffset":7252,
			"target":34962
		},
		{
			"buffer":0,
			"byteLength":108,
			"byteOffset":7540,
			"target":34963
		},
		{
			"buffer":0,
			"byteLength":300,
			"byteOffset":7648,
			"target":34962
		},
		{
			"buffer":0,
			"byteLength":300,
			"byteOffset":7948,
			"target":34962
		},
		{
			"buffer":0,
			"byteLength":200,
			"byteOffset":8248,
			"target":34962
		},
		{
			"buffer":0,
			"byteLength":192,
			"byteOffset":8448,
			"target":34963
		},
		{
			"buffer":0,
			"byteLength":72,
			"byteOffset":8640,
			"target":34962
		},
		{
			"buffer":0,
			"byteLength":72,
			"byteOffset":8712,
			"target":34962
		},
		{
			"buffer":0,
			"byteLength":48,
			"byteOffset":8784,
			"target":34962
		},
		{
			"buffer":0,
			"byteLength":24,
			"byteOffset":8832,
			"target":34963
		},
		{
			"buffer":0,
			"byteLength":384,
			"byteOffset":8856,
			"target":34962
		},
		{
			"buffer":0,
			"byteLength":384,
			"byteOffset":9240,
			"target":34962
		},
		{
			"buffer":0,
			"byteLength":256,
			"byteOffset":9624,
			"target":34962
		},
		{
			"buffer":0,
			"byteLength":120,
			"byteOffset":9880,
			"target":34963
		},
		{
			"buffer":0,
			"byteLength":4224,
			"byteOffset":10000,
			"target":34962
		},
		{
			"buffer":0,
			"byteLength":4224,
			"byteOffset":14224,
			"target":34962
		},
		{
			"buffer":0,
			"byteLength":2816,
			"byteOffset":18448,
			"target":34962
		},
		{
			"buffer":0,
			"byteLength":1308,
			"byteOffset":21264,
			"target":34963
		},
		{
			"buffer":0,
			"byteLength":504,
			"byteOffset":22572,
			"target":34962
		},
		{
			"buffer":0,
			"byteLength":504,
			"byteOffset":23076,
			"target":34962
		},
		{
			"buffer":0,
			"byteLength":336,
			"byteOffset":23580,
			"target":34962
		},
		{
			"buffer":0,
			"byteLength":156,
			"byteOffset":23916,
			"target":34963
		}
	],
	"buffers":[
		{
			"byteLength":24072,
			"uri":"house1.bin"
		}
	]
}
