ply
format ascii 1.0
comment Created in Blender version 4.1.1
element vertex 56
property float x
property float y
property float z
property float nx
property float ny
property float nz
property float s
property float t
element face 42
property list uchar uint vertex_indices
end_header
-7.56158 9.987339 15.859692 0.042034727 -0.2459591 0.3734309 0 0
-7.5589185 11.409337 16.795986 0.042657904 -0.23860915 0.42361683 0.7453172 0
-8.062249 11.346726 16.811405 0.039718937 -0.23680629 0.43624452 0.49063453 0.49063453
-7.443243 12.825796 17.485935 0.06393581 -0.08682047 1.2511742 0.8069982 0
-8.491221 12.76807 17.533094 0.065502 -0.0037424713 1.580775 0.6139964 0.6139964
-7.8506637 14.677385 17.21835 0.050397143 0.37179762 1.7143908 0.8706689 0
-8.281249 14.642893 17.235493 0.03546857 0.37660307 1.6486281 0.74133784 0.74133784
-8.17439 15.938513 16.154976 -0.010980954 0.33792415 0.40410963 0.86867917 0.86867917
-7.2085266 11.693255 15.183505 0.04247707 -0.41326284 0.49013585 0 0
-7.261743 12.599928 15.952587 0.03964521 -0.411565 0.56262743 0.7453172 0
-7.612559 12.549029 15.940075 0.03451187 -0.4112813 0.58063424 0.49063453 0.49063453
-7.2276516 13.525133 16.554512 0.0076343804 -0.33986554 1.7640932 0.8069982 0
-7.959785 13.46826 16.545029 -0.015745647 -0.2793635 2.2460244 0.6139964 0.6139964
-7.533449 14.827387 16.511047 -0.059221663 0.2301094 2.4993675 0.8706689 0
-7.83401 14.796735 16.504692 -0.07615624 0.24802727 2.405845 0.74133784 0.74133784
-7.74419 15.788878 15.869205 -0.055045284 0.40899834 0.6307606 0.86867917 0.86867917
0.36793375 17.17707 14.165882 0.20427975 0.056806475 0.24248117 0 0
-1.4498723 17.197346 15.692554 0.20315477 0.05968785 0.27872908 0.7453172 0
-1.3268492 16.503084 15.751559 0.20301218 0.05820173 0.2879976 0.49063453 0.49063453
-3.3070202 17.349691 16.867256 0.16245471 0.11418498 0.8784962 0.8069982 0
-3.148957 15.901665 17.022837 0.13038506 0.13030286 1.1196228 0.6139964 0.6139964
-5.883981 16.65273 16.840645 -0.12534429 0.11576464 1.2470301 0.8706689 0
-5.804487 16.05815 16.899714 -0.1336541 0.101488665 1.2014437 0.74133784 0.74133784
-7.7769136 16.023436 15.609809 -0.20686036 0.00375795 0.3162144 0.86867917 0.86867917
-2.233931 18.75674 13.714365 0.22467372 0.2319622 0.26127124 0 0
-3.5486927 18.590996 14.992114 0.22250004 0.24638481 0.30586115 0.7453172 0
-3.2714593 18.144634 15.150003 0.2231171 0.24752837 0.31789786 0.49063453 0.49063453
-4.9304886 18.440853 15.984953 0.15677288 0.48348707 1.0443634 0.8069982 0
-4.423626 17.490509 16.345966 0.113958985 0.56523484 1.3448949 0.6139964 0.6139964
-6.6159253 17.27511 16.278196 -0.18698949 0.47827455 1.5397626 0.8706689 0
-6.3972316 16.887753 16.42174 -0.19123203 0.44344407 1.4880071 0.74133784 0.74133784
-7.831951 16.104391 15.604113 -0.24758314 0.015653625 0.4194452 0.86867917 0.86867917
-13.490725 13.816028 15.498253 -0.23828463 -0.10365969 0.36631754 0 0
-12.156764 14.213877 16.478558 -0.2328476 -0.10167952 0.41671154 0.7453172 0
-12.355223 14.680893 16.481619 -0.23237136 -0.09821709 0.42932627 0.49063453 0.49063453
-10.788377 14.498763 17.21485 -0.11078022 -0.07121949 1.2488867 0.8069982 0
-11.132312 15.491215 17.238544 -0.04230857 -0.046241757 1.580894 0.6139964 0.6139964
-9.110588 15.395203 16.997143 0.30972776 0.0727507 1.7258868 0.8706689 0
-9.262177 15.799994 17.004309 0.31261775 0.08768443 1.6600133 0.74133784 0.74133784
-7.948919 16.040321 15.967409 0.3073185 0.1077544 0.41420072 0.86867917 0.86867917
-8.808074 20.360037 14.569698 -0.06702626 0.40999755 0.49013582 0 0
-8.700927 19.458147 15.33878 -0.06409826 0.4084715 0.56262743 0.7453172 0
-8.353767 19.52986 15.326268 -0.058957137 0.40849414 0.5806342 0.49063453 0.49063453
-8.679829 18.532555 15.940704 -0.027872026 0.3388068 1.7640929 0.8069982 0
-7.952385 18.632952 15.931222 -0.00092846714 0.27980536 2.2460241 0.6139964 0.6139964
-8.296979 17.250835 15.897241 0.07282773 -0.22617178 2.4993672 0.8706689 0
-7.9987783 17.299341 15.890886 0.090799876 -0.24304876 2.4058447 0.74133784 0.74133784
-8.029321 16.30361 15.255399 0.07931804 -0.40499172 0.63076055 0.86867917 0.86867917
-7.951091 16.13387 16.34577 0.09449698 -0.19822091 0.32863596 0 0
-8.387869 17.689543 17.409687 0.0932646 -0.19184746 0.37280184 0.7453172 0
-8.918865 17.46545 17.427208 0.09034404 -0.19102453 0.3839148 0.49063453 0.49063453
-8.699363 19.274105 18.19368 0.07493426 -0.05821179 1.1010895 0.8069982 0
-9.827401 18.886946 18.247267 0.05636567 0.012516737 1.3911531 0.6139964 0.6139964
-9.717368 21.172707 17.889622 -0.046357222 0.3269205 1.508741 0.8706689 0
-10.177517 21.001852 17.9091 -0.060150046 0.32741493 1.4508669 0.74133784 0.74133784
-10.461286 22.451561 16.681303 -0.09022264 0.2835368 0.35563466 0.86867917 0.86867917
3 0 1 2
3 2 3 4
3 4 5 6
3 6 5 7
3 2 1 3
3 4 3 5
3 8 9 10
3 10 11 12
3 12 13 14
3 14 13 15
3 10 9 11
3 12 11 13
3 16 17 18
3 18 19 20
3 20 21 22
3 22 21 23
3 18 17 19
3 20 19 21
3 24 25 26
3 26 27 28
3 28 29 30
3 30 29 31
3 26 25 27
3 28 27 29
3 32 33 34
3 34 35 36
3 36 37 38
3 38 37 39
3 34 33 35
3 36 35 37
3 40 41 42
3 42 43 44
3 44 45 46
3 46 45 47
3 42 41 43
3 44 43 45
3 48 49 50
3 50 51 52
3 52 53 54
3 54 53 55
3 50 49 51
3 52 51 53
