ply
format ascii 1.0
comment Created in Blender version 4.1.1
element vertex 11
property float x
property float y
property float z
property float nx
property float ny
property float nz
property float s
property float t
element face 8
property list uchar uint vertex_indices
end_header
-4.011215 2.5488033 12.460562 -0.13880469 -0.17615677 -0.2729378 0.375 0
-4.011215 6.5600185 15.660614 -0.1373271 1.0998334e-05 0.5216197 0.625 0.25
-4.011215 10.571234 12.460562 -0.13880993 0.17615412 -0.27293178 0.375 0.25
4.011215 10.571234 12.460562 0.13880469 0.17615677 -0.2729378 0.375 0.5
4.011215 6.5600185 15.660614 0.1373271 -1.0989507e-05 0.5216197 0.625 0.75
4.011215 2.5488033 12.460562 0.13880993 -0.17615412 -0.27293178 0.375 0.75
-4.011215 2.5488033 12.460562 -0.13880469 -0.17615677 -0.2729378 0.375 1
-4.011215 2.5488033 12.460562 -0.13880469 -0.17615677 -0.2729378 0.125 0.75
-4.011215 10.571234 12.460562 -0.13880993 0.17615412 -0.27293178 0.125 0.5
4.011215 6.5600185 15.660614 0.1373271 -1.0989507e-05 0.5216197 0.625 0.5
-4.011215 6.5600185 15.660614 -0.1373271 1.0998334e-05 0.5216197 0.625 1
3 0 1 2
3 1 3 2
3 3 4 5
3 4 6 5
3 3 7 8
3 1 9 3
3 4 10 6
3 3 5 7
