ply
format ascii 1.0
comment Created in Blender version 4.1.1
element vertex 417
property float x
property float y
property float z
property float nx
property float ny
property float nz
property float s
property float t
element face 560
property list uchar uint vertex_indices
end_header
-7.160777 13.868446 6.406685 -0.94210035 -0.2714822 -0.19683588 0.50000006 0.07107575
-7.107222 14.604088 6.0588145 -0.8623707 -0.05499748 -0.50328124 0.43405494 0.13220315
-7.008767 13.991663 6.0015554 -0.8309325 -0.17587762 -0.527843 0.4371745 0.06782726
-7.247364 14.3680525 7.012162 -0.9148615 -0.2231499 0.33650038 0.56594515 0.13320681
-7.160777 13.868446 6.406685 -0.94210035 -0.2714822 -0.19683588 0.50000006 0.071075745
-7.1139193 13.737374 6.7923274 -0.87607086 -0.4003522 0.26873404 0.56282556 0.06793577
-7.2466273 14.9431095 7.2418237 -0.88728034 -0.082428336 0.45380527 0.57510036 0.19094738
-7.3130264 14.657777 6.5853624 -0.988481 -0.077588074 -0.12994419 0.5 0.1474375
-7.247364 14.3680525 7.012162 -0.9148615 -0.2231499 0.33650038 0.5659452 0.13320683
-7.2786255 15.307113 6.4300456 -0.96902615 0.030039154 -0.24512461 0.46918407 0.19562003
-7.320289 15.2271385 6.977019 -0.9847571 0.05591343 0.16470307 0.53081596 0.20061134
-7.290033 15.594631 6.768298 -0.98528963 0.16240507 0.05318625 0.50000006 0.21972884
-7.111357 15.185051 6.042964 -0.8549718 -0.0066852868 -0.5186314 0.42489964 0.18659353
-7.2786255 15.307113 6.4300456 -0.96902615 0.030039154 -0.24512461 0.4691841 0.19562003
-6.6268106 13.703423 5.6712775 -0.579505 -0.263844 -0.7710773 0.37500006 0
-6.7160454 14.090249 5.6613727 -0.627445 -0.10734101 -0.77122664 0.37500003 0.06250001
-6.7748013 13.491109 5.9028454 -0.7001345 -0.41406044 -0.581692 0.43750003 0
-6.7849894 14.629057 5.678278 -0.6465234 -0.03539051 -0.76207274 0.37500003 0.12500001
-6.696964 13.238367 6.875365 -0.49915442 -0.635485 0.5890704 0.62500006 0
-6.826615 13.202923 6.6154256 -0.71753156 -0.67726195 0.16268054 0.5625001 0
-6.9594536 14.226193 7.305158 -0.5354835 -0.33791676 0.77399594 0.62500006 0.12500001
-6.842653 13.636604 7.078599 -0.5278422 -0.45837188 0.71503687 0.62500006 0.06250001
-6.870092 13.291146 6.25317 -0.7743036 -0.571026 -0.27273265 0.50000006 0
-6.978399 15.179411 7.547042 -0.5125518 -0.01065518 0.8585902 0.625 0.25
-7.0045977 14.792368 7.472373 -0.53634846 -0.21319166 0.816627 0.62500006 0.18750003
-7.107499 15.386494 7.4257607 -0.73183787 0.14903203 0.6649832 0.58409286 0.23997398
-7.320289 15.2271385 6.977019 -0.9847571 0.05591343 0.16470307 0.530816 0.20061132
-7.225144 15.936411 6.620338 -0.97308683 0.22179566 0.06251888 0.48036027 0.23838978
-7.152199 15.898518 7.015912 -0.8354103 0.41538104 0.35992786 0.5196398 0.25021702
-7.1002054 16.117968 6.8430624 -0.7782099 0.48415372 0.39998063 0.50000006 0.25972226
-7.2151604 15.770138 6.32862 -0.9610866 0.08658388 -0.26232755 0.45225698 0.22552085
-7.17066 15.645689 7.224762 -0.8376692 0.2941907 0.46017617 0.5477431 0.24201389
-6.8436375 15.652653 5.727784 -0.6566636 0.029545784 -0.75360465 0.375 0.25
-7.079522 15.681461 6.0102277 -0.84814805 0.033066988 -0.52872634 0.41590714 0.22575957
-6.824585 15.166129 5.702307 -0.654892 -0.00064098835 -0.75572217 0.37500003 0.18750003
-7.2151604 15.770138 6.32862 -0.9610866 0.08658388 -0.26232755 0.45225698 0.22552086
-5.058144 16.126808 7.2894907 0.20106089 0.88889974 0.41162077 0.5623373 0.4063224
-4.6729517 16.100922 6.9350247 0.3258951 0.94515175 0.021916792 0.5300565 0.43700454
-5.098151 16.198467 7.0077643 0.18380451 0.97802126 0.09843916 0.5312161 0.4062966
-4.6437235 15.854915 7.427923 0.39482847 0.48617142 0.7795818 0.5925564 0.4381583
-4.616135 16.03174 7.2092414 0.3962628 0.82493615 0.40305874 0.56076396 0.43807873
-4.340846 15.947445 6.835795 0.56619585 0.8226809 -0.05117005 0.5268759 0.46696088
-4.280589 15.665833 7.290692 0.6444953 0.34002703 0.68484116 0.5897014 0.47134653
-4.2605658 15.856679 7.0817614 0.68716675 0.6529913 0.3184403 0.5564779 0.47092378
-5.574068 16.253546 7.076736 0.13557076 0.96524435 0.22343647 0.532525 0.37500006
-5.151069 16.201326 6.6859465 0.24180411 0.9672448 -0.07725349 0.50000006 0.40735862
-5.6147876 16.310347 6.745224 0.26285064 0.9553413 0.13502786 0.5 0.37500003
-5.5437174 16.162048 7.3486233 0.08353129 0.8822817 0.46325088 0.5629341 0.375
-5.0739727 15.972136 7.5047045 0.22862487 0.5983581 0.7679181 0.5936076 0.40633234
-5.5250955 16.013056 7.550332 0.083288826 0.67113554 0.7366411 0.5938043 0.37500003
-5.207291 15.721612 7.6418986 0.19130602 0.21250391 0.9582505 0.62500006 0.40625006
-4.792235 15.536682 7.5652966 0.29587033 0.08782084 0.9511826 0.62500006 0.43750003
-4.3974514 15.345028 7.416796 0.4719049 0.009633124 0.88159674 0.62500006 0.46875006
-4.046172 15.369692 7.1065645 0.88376045 0.13836548 0.44701508 0.58401155 0.508932
-4.0350227 15.566827 6.8901157 0.93126243 0.35258302 0.091844894 0.5473091 0.50639474
-4.139287 15.718963 6.6778708 0.8128351 0.5453731 -0.2046151 0.5184191 0.49606064
-4.2749887 15.797164 6.5225477 0.65949017 0.65634406 -0.36644962 0.49999997 0.48541668
-4.4570866 15.947036 6.5713153 0.44930232 0.8438529 -0.29332513 0.5 0.46411076
-4.763543 16.08858 6.6290083 0.3198015 0.9257421 -0.20181355 0.50000006 0.43660304
-4.4406257 14.96945 5.776706 0.7059305 0.11526117 -0.6988397 0.42502174 0.5555283
-4.0973387 14.563888 6.242842 0.92533445 -0.09092483 -0.3680879 0.5 0.59866667
-4.4197907 14.489462 5.7764807 0.7329276 -0.046735883 -0.6786994 0.4341092 0.61145234
-3.973865 15.13763 6.6216516 0.98500735 0.067784116 -0.15863736 0.5307617 0.5465128
-4.199996 15.117694 6.104564 0.82669383 0.15284447 -0.541494 0.46923834 0.5465127
-4.095688 15.414362 6.42436 0.8711594 0.29833686 -0.3899699 0.50000006 0.5238301
-3.9803126 14.914684 6.8986645 0.9641467 -0.1271748 0.23291136 0.5749784 0.55552834
-4.3191204 13.80069 6.100779 0.8646103 -0.3236421 -0.3843236 0.50000006 0.67456186
-4.067452 14.330575 6.674951 0.9521093 -0.27546898 0.13268355 0.56589085 0.61145234
-4.2867594 13.695208 6.489839 0.8878533 -0.45070833 0.09261969 0.5628189 0.67697245
-4.5489016 13.919069 5.735942 0.69275326 -0.21302302 -0.688995 0.4371813 0.67697245
-4.7605467 15.209623 5.588537 0.47914556 0.28260663 -0.83099514 0.375 0.5
-4.7632823 14.94381 5.525907 0.48634952 0.11507281 -0.8661538 0.37619367 0.5556424
-4.575533 15.317761 5.763942 0.6071002 0.3500499 -0.7133683 0.41598853 0.50893193
-4.8080363 14.523186 5.478424 0.47394603 -0.009600058 -0.88050157 0.3754341 0.6139757
-4.2966843 15.660215 6.3119144 0.6893838 0.5298872 -0.49393255 0.48158094 0.49606064
-4.3948493 15.473377 6.0310235 0.6741297 0.41635782 -0.61007816 0.45269102 0.5063947
-4.1560216 15.189508 7.2543488 0.6846505 -0.041173756 0.7277076 0.625 0.5
-4.046172 15.369692 7.1065645 0.88376045 0.13836548 0.44701508 0.5840115 0.50893205
-4.172516 14.7984495 7.1766987 0.6838251 -0.25179496 0.68482304 0.62380636 0.5556424
-4.067452 14.330575 6.674951 0.9521093 -0.27546898 0.13268355 0.5658909 0.61145234
-4.7085524 13.215574 6.662454 0.58272797 -0.65335655 0.48327357 0.625 0.75
-4.494807 13.620864 6.828861 0.64300156 -0.48484865 0.5928496 0.6249458 0.67939466
-4.6730814 13.235457 6.014907 0.66857815 -0.6191064 -0.41195953 0.50000006 0.7437501
-4.6416645 13.163061 6.380016 0.7001728 -0.71323895 0.0323755 0.56250006 0.7451715
-4.291293 14.221499 7.023883 0.667981 -0.3709433 0.6451375 0.62456596 0.61397576
-5.010188 13.655026 5.4948707 0.38467494 -0.29347074 -0.87515724 0.375 0.75
-4.8294625 13.434746 5.690961 0.53637004 -0.4558949 -0.71025836 0.43750006 0.74517155
-4.8080363 14.523186 5.478424 0.47394603 -0.009600058 -0.88050157 0.37543407 0.6139757
-4.901407 14.031092 5.465682 0.44426328 -0.12603371 -0.88698685 0.37505433 0.6793946
-4.6730814 13.235457 6.014907 0.66857815 -0.6191064 -0.41195953 0.50000006 0.74375004
-5.281717 13.168661 5.654849 0.21856682 -0.61667097 -0.7562707 0.4375 0.81079113
-5.7982273 12.798395 6.0365067 -0.067893215 -0.9095713 -0.40996408 0.50000006 0.87430567
-5.8281007 13.099052 5.6741223 -0.102130756 -0.6472128 -0.75543696 0.43750003 0.8745227
-5.150456 12.830781 6.386103 0.35238612 -0.9304464 0.10046603 0.56250006 0.81079113
-5.1912627 12.8980665 5.9954166 0.3155384 -0.84766465 -0.42649746 0.50000006 0.8100695
-6.359876 13.200972 5.7726274 -0.4105148 -0.5948528 -0.69110614 0.43750003 0.9374404
-6.3513975 12.854636 6.5159373 -0.36314347 -0.9172106 0.16386448 0.5625001 0.93744034
-6.391923 12.93027 6.126107 -0.44391242 -0.8216858 -0.35745546 0.50000006 0.9374133
-5.3588853 13.578813 5.420237 0.13665679 -0.3412838 -0.92997324 0.37500003 0.8125001
-4.8294625 13.434746 5.690961 0.53637004 -0.4558949 -0.71025836 0.43750003 0.7451715
-4.6416645 13.163061 6.380016 0.7001728 -0.71323895 0.0323755 0.56250006 0.7451716
-5.703253 12.948748 6.8515105 0.061411537 -0.7364192 0.6737324 0.62500006 0.87500006
-5.7553864 12.72328 6.447701 -0.0036988556 -0.9877141 0.15622804 0.56250006 0.8745226
-6.696964 13.238367 6.875365 -0.49915442 -0.635485 0.5890704 0.62500006 1.0000001
-6.826615 13.202923 6.6154256 -0.71753156 -0.67726195 0.16268054 0.5625001 1.0000001
-6.870092 13.291146 6.25317 -0.7743036 -0.571026 -0.27273265 0.50000006 1.0000001
-6.7748013 13.491109 5.9028454 -0.7001345 -0.41406044 -0.581692 0.43750003 1.0000001
-6.6268106 13.703423 5.6712775 -0.579505 -0.263844 -0.7710773 0.37500006 1.0000001
-6.308536 13.607831 5.524063 -0.35380006 -0.32589543 -0.8767084 0.37500003 0.9375001
-5.8410163 13.556019 5.4176545 -0.11242928 -0.35064554 -0.9297352 0.37500003 0.87500006
-6.0751395 15.283204 5.3765182 -0.13164106 0.11444627 -0.98466885 0.22042751 0.55435854
-6.3626266 14.668876 5.4242806 -0.3731505 -0.00575009 -0.927753 0.18418619 0.6176398
-6.4570627 15.189537 5.4748983 -0.3968111 0.036319584 -0.91718143 0.17504774 0.5633998
-5.494556 15.198509 5.368379 0.12196668 0.21727473 -0.9684605 0.28672528 0.54565626
-5.7665873 15.483191 5.4133787 0.09986126 0.25697336 -0.9612453 0.25447485 0.5303269
-5.2623577 14.598635 5.322148 0.1909307 0.031428024 -0.98110026 0.31713435 0.61150914
-5.131303 15.022296 5.396369 0.26002553 0.17687863 -0.9492632 0.32924294 0.55314726
-5.8348675 14.1088705 5.3044796 -0.10590331 -0.10101256 -0.9892326 0.25013134 0.67794794
-5.342107 14.080543 5.3202724 0.15391922 -0.103535965 -0.9826439 0.31296688 0.67873317
-5.8348675 14.1088705 5.3044796 -0.10590331 -0.10101256 -0.9892326 0.25013134 0.6779479
-6.3140926 14.11425 5.4243317 -0.36555222 -0.102189586 -0.9251643 0.18720055 0.6820522
-6.5417094 15.656022 5.538384 -0.4024692 0.06663695 -0.91300493 0.16601562 0.52439237
-6.824585 15.166129 5.702307 -0.654892 -0.00064098835 -0.75572217 0.12500001 0.56250006
-6.8436375 15.652653 5.727784 -0.6566636 0.029545784 -0.75360465 0.125 0.5
-6.2269692 15.70406 5.456708 -0.13175258 0.1447838 -0.98065233 0.20312501 0.5256945
-6.7849894 14.629057 5.678278 -0.6465234 -0.03539051 -0.76207274 0.12500001 0.6250001
-5.5313444 15.703676 5.553057 0.28829366 0.45179763 -0.8442545 0.28125003 0.50000006
-5.9493327 15.808796 5.48373 0.14645848 0.26884583 -0.9519831 0.23285592 0.51571184
-5.726428 15.940241 5.6080008 0.38599142 0.4310345 -0.8156101 0.25 0.5
-5.2728877 15.501024 5.520387 0.2593256 0.42864317 -0.8654568 0.31250006 0.50000006
-4.983542 15.334016 5.5354366 0.33044803 0.3717074 -0.8675469 0.34375003 0.50000006
-4.8080363 14.523186 5.478424 0.47394603 -0.009600058 -0.88050157 0.37543404 0.6139757
-4.7632823 14.94381 5.525907 0.48634952 0.11507281 -0.8661538 0.37619364 0.5556424
-5.2728877 15.501024 5.520387 0.2593256 0.42864317 -0.8654568 0.31250003 0.50000006
-4.901407 14.031092 5.465682 0.44426328 -0.12603371 -0.88698685 0.37505433 0.67939466
-5.3588853 13.578813 5.420237 0.13665679 -0.3412838 -0.92997324 0.31250006 0.75000006
-4.8080363 14.523186 5.478424 0.47394603 -0.009600058 -0.88050157 0.37543407 0.61397576
-6.6268106 13.703423 5.6712775 -0.579505 -0.263844 -0.7710773 0.12500001 0.7500001
-6.308536 13.607831 5.524063 -0.35380006 -0.32589543 -0.8767084 0.18750001 0.75000006
-6.7160454 14.090249 5.6613727 -0.627445 -0.10734101 -0.77122664 0.12500001 0.68750006
-5.8410163 13.556019 5.4176545 -0.11242928 -0.35064554 -0.9297352 0.25000003 0.75000006
-5.0891747 15.052251 7.600375 0.20127125 -0.15403298 0.9673489 0.71440977 0.54384035
-4.7989774 14.218211 7.2985907 0.32393217 -0.34019896 0.88279814 0.68299705 0.6112992
-4.5766053 14.851681 7.4171524 0.36604226 -0.22171915 0.9037996 0.67089176 0.55293196
-6.002273 15.033534 7.693862 0.0043799505 -0.14810178 0.9889624 0.78559035 0.5446433
-5.0891747 15.052251 7.600375 0.20127125 -0.15403298 0.9673489 0.7144098 0.5438403
-5.5285916 15.382125 7.7031784 0.10185311 -0.03365256 0.9942301 0.75000006 0.5238508
-6.4050264 14.210649 7.467018 -0.13773283 -0.3272907 0.9348318 0.8169489 0.6158238
-6.555444 14.830004 7.6221366 -0.17307676 -0.20512068 0.963312 0.8289931 0.55605567
-5.645394 13.514872 7.203604 0.094710544 -0.44785494 0.8890759 0.7500001 0.67773795
-6.4050264 14.210649 7.467018 -0.13773283 -0.3272907 0.9348318 0.81694895 0.6158238
-6.321854 13.545441 7.209181 -0.14711955 -0.4567492 0.87734604 0.81293404 0.6818369
-4.9811363 13.542231 7.067013 0.31785852 -0.4615716 0.8282015 0.6870593 0.6786915
-5.5821652 14.372739 7.517486 0.102849394 -0.28975165 0.9515597 0.75 0.599
-5.645394 13.514872 7.203604 0.094710544 -0.44785494 0.8890759 0.7500001 0.6777379
-4.172516 14.7984495 7.1766987 0.6838251 -0.25179496 0.68482304 0.6238065 0.5556424
-4.792235 15.536682 7.5652966 0.29587033 0.08782084 0.9511826 0.68750006 0.50000006
-4.3974514 15.345028 7.416796 0.4719049 0.009633124 0.88159674 0.6562501 0.50000006
-4.291293 14.221499 7.023883 0.667981 -0.3709433 0.6451375 0.6245661 0.6139757
-5.5191 15.839529 7.6544333 0.11442576 0.348155 0.93042725 0.7500001 0.50000006
-5.207291 15.721612 7.6418986 0.19130602 0.21250391 0.9582505 0.7187501 0.50000006
-5.834643 15.706933 7.7053967 -0.0056797713 0.19240788 0.9812987 0.78125006 0.50000006
-6.978399 15.179411 7.547042 -0.5125518 -0.01065518 0.8585902 0.8750001 0.50000006
-6.698302 15.321043 7.6535835 -0.27237654 0.026918441 0.9618141 0.84375006 0.50000006
-6.9594536 14.226193 7.305158 -0.5354835 -0.33791676 0.77399594 0.8750001 0.6250001
-7.0045977 14.792368 7.472373 -0.53634846 -0.21319166 0.816627 0.8750001 0.56250006
-6.268834 15.509091 7.7157564 -0.09226295 0.08978675 0.99167824 0.8125001 0.50000006
-6.696964 13.238367 6.875365 -0.49915442 -0.635485 0.5890704 0.8750001 0.7500001
-6.842653 13.636604 7.078599 -0.5278422 -0.45837188 0.71503687 0.8750001 0.68750006
-6.297893 13.044889 6.8868456 -0.20341063 -0.71801543 0.66564107 0.8125001 0.75000006
-6.9594536 14.226193 7.305158 -0.5354835 -0.33791676 0.77399594 0.8750001 0.62500006
-5.10863 13.032372 6.759494 0.3206524 -0.72069085 0.6146436 0.68750006 0.75000006
-4.494807 13.620864 6.828861 0.64300156 -0.48484865 0.5928496 0.6249458 0.6793946
-4.7989774 14.218211 7.2985907 0.32393217 -0.34019896 0.88279814 0.68299705 0.61129916
-5.703253 12.948748 6.8515105 0.061411537 -0.7364192 0.6737324 0.75000006 0.75000006
-5.240963 16.034252 6.042619 0.37324685 0.80085075 -0.46832138 0.4376628 0.41256157
-5.09034 15.727194 5.7400827 0.33758616 0.62074465 -0.7076099 0.4074436 0.43935192
-5.3563585 15.889043 5.769251 0.38367763 0.6425041 -0.6633099 0.40639243 0.41084215
-4.848614 16.016209 6.313973 0.36212915 0.85368025 -0.37428945 0.4699436 0.4381981
-4.948325 15.894501 6.0109205 0.3724121 0.75346786 -0.54184467 0.43923616 0.43981484
-4.8103714 15.551581 5.742465 0.43904766 0.53081936 -0.72489166 0.4102987 0.4714957
-4.6542606 15.719677 6.003005 0.48556325 0.64108264 -0.59434104 0.44352216 0.47114083
-5.726428 15.940241 5.6080008 0.38599142 0.4310345 -0.8156101 0.375 0.375
-5.5313444 15.703676 5.553057 0.28829366 0.45179763 -0.8442545 0.37500003 0.40625006
-5.5676365 16.064114 5.813677 0.5233369 0.61215806 -0.5927739 0.4061958 0.3892687
-5.481647 16.170979 6.079755 0.53012854 0.7718245 -0.35107076 0.43706602 0.39192712
-5.182533 16.141258 6.3547435 0.31709024 0.9073717 -0.27591735 0.46878394 0.41069794
-5.4804707 16.256573 6.3862247 0.4332337 0.89352 -0.11802773 0.46747512 0.3880751
-4.5474005 15.86019 6.2888327 0.4634001 0.75665975 -0.4612228 0.47312424 0.46711007
-4.2966843 15.660215 6.3119144 0.6893838 0.5298872 -0.49393255 0.48158097 0.49606064
-4.983542 15.334016 5.5354366 0.33044803 0.3717074 -0.8675469 0.37500003 0.46875006
-5.2728877 15.501024 5.520387 0.2593256 0.42864317 -0.8654568 0.37500003 0.43750003
-6.4854097 16.39621 6.863961 -0.03559448 0.824397 0.5648916 0.50333357 0.31321618
-6.7859554 16.438087 6.7630982 -0.23083758 0.7234445 0.6506474 0.49122906 0.29016447
-6.814925 16.35353 6.8440013 -0.29978615 0.7315367 0.61235803 0.49939874 0.28802162
-6.17285 16.481644 6.7187366 0.17233357 0.7652608 0.62022346 0.49117476 0.33558425
-6.486648 16.462635 6.78134 -0.00889197 0.76608586 0.64267665 0.49498457 0.31276044
-6.7440853 16.514275 6.687894 -0.17151321 0.77358437 0.61004126 0.48366997 0.2925509
-6.481075 16.530222 6.703731 -0.005804319 0.781591 0.62376434 0.48699123 0.31253257
-6.8430376 16.24785 6.9671955 -0.39306894 0.7517856 0.52944803 0.51177305 0.28529727
-7.057533 16.2862 6.7317357 -0.6995828 0.51692957 0.49332303 0.48773274 0.2663689
-7.1002054 16.117968 6.8430624 -0.7782099 0.48415372 0.39998063 0.50000006 0.25972223
-6.48803 16.320555 6.9937277 -0.09526955 0.88026255 0.46482435 0.51605904 0.31328127
-6.075621 16.344168 6.9286137 0.09254118 0.9300734 0.35552737 0.51296663 0.342627
-5.8178635 16.407047 6.632257 0.37324074 0.85596937 0.3577819 0.4864849 0.3614849
-6.124793 16.414473 6.7947226 0.1621472 0.8486945 0.50341415 0.49939194 0.3392069
-5.914223 16.492928 6.578085 0.42592177 0.74021244 0.52026546 0.47955248 0.3545525
-5.9903946 16.572252 6.5337815 0.37274966 0.73807883 0.5624032 0.4738027 0.34880266
-6.210176 16.549477 6.6504817 0.14218058 0.7668875 0.6258341 0.48366323 0.33254278
-6.055323 16.628695 6.492998 0.2575748 0.8125707 0.5228614 0.46875003 0.34375
-6.223246 16.624163 6.5523567 0.10128497 0.8340978 0.54223824 0.47330838 0.33104065
-6.466885 16.609764 6.5927362 -0.019930465 0.84409827 0.5358179 0.47559804 0.31250003
-6.705924 16.591612 6.585148 -0.13762134 0.84755385 0.5125551 0.47330835 0.29395938
-6.8648567 16.575184 6.5484858 -0.31331727 0.8316013 0.45855373 0.46875006 0.28125003
-6.9414477 16.510223 6.601074 -0.46394187 0.7331404 0.49725556 0.47385693 0.27629507
-7.0113707 16.41253 6.660691 -0.59378135 0.6189562 0.5141177 0.47998652 0.27122882
-6.8776407 16.107456 7.1552067 -0.49345374 0.6940086 0.5242667 0.5312704 0.28139925
-6.4893265 16.074476 7.4226365 -0.21445847 0.70528656 0.67570585 0.5625 0.31171873
-6.499012 16.222136 7.195665 -0.17338823 0.85539204 0.48809934 0.5361871 0.31250003
-6.8822956 15.919295 7.369209 -0.5295091 0.5366473 0.65698534 0.55772567 0.2783963
-6.4228787 15.84743 7.6125636 -0.18452457 0.42642516 0.88550115 0.59277344 0.31181642
-6.031978 16.148397 7.403231 -0.03384181 0.8107887 0.5843599 0.56353086 0.34365234
-6.053509 16.26524 7.156542 0.012554962 0.92647505 0.37614682 0.5356039 0.3436415
-7.1002054 16.117968 6.8430624 -0.7782099 0.48415372 0.39998063 0.50000006 0.2597222
-6.8430376 16.24785 6.9671955 -0.39306894 0.7517856 0.52944803 0.51177305 0.28529733
-7.17066 15.645689 7.224762 -0.8376692 0.2941907 0.46017617 0.5477431 0.2420139
-6.819391 15.668023 7.5544186 -0.44261003 0.2992978 0.8452912 0.58985734 0.27848172
-7.107499 15.386494 7.4257607 -0.73183787 0.14903203 0.6649832 0.58409286 0.23997399
-6.698302 15.321043 7.6535835 -0.27237654 0.026918441 0.9618141 0.62500006 0.28125003
-6.268834 15.509091 7.7157564 -0.09226295 0.08978675 0.99167824 0.62500006 0.31250006
-5.9785223 15.965565 7.598584 -0.059074707 0.56243485 0.8247286 0.59375674 0.34366456
-5.5191 15.839529 7.6544333 0.11442576 0.348155 0.93042725 0.625 0.375
-6.075621 16.344168 6.9286137 0.09254118 0.9300734 0.35552737 0.5129667 0.34262696
-6.6330266 16.784801 6.025996 -0.296249 0.9532272 -0.05995348 0.40579793 0.28588942
-6.420377 16.788734 6.2147384 -0.053053185 0.9622191 0.26705748 0.4342207 0.3125
-6.3972287 16.828218 6.0020766 -0.06700843 0.99743235 -0.025269255 0.40584013 0.3125
-6.675459 16.74939 6.2293096 -0.24620815 0.94631773 0.20943838 0.43388313 0.28950256
-6.4452496 16.70471 6.422643 -0.037999786 0.90450853 0.424759 0.4579114 0.31250003
-6.1670194 16.783539 6.19541 0.16162503 0.9574158 0.2392326 0.43388313 0.33549747
-6.165861 16.813885 5.993972 0.20556363 0.9779872 -0.03584096 0.40579793 0.33911058
-6.1956835 16.709866 6.3938003 0.108934954 0.90091765 0.42009598 0.45680773 0.33253187
-6.749107 16.694298 5.906767 -0.5455932 0.7048398 -0.45335287 0.375 0.25
-6.5955257 16.752413 5.854031 -0.32697508 0.81152683 -0.48426384 0.37500003 0.28125003
-6.82592 16.696833 6.0439243 -0.56360006 0.8023102 -0.19660424 0.40575573 0.26476303
-6.8889627 16.67039 6.237164 -0.51131237 0.8567824 0.06695973 0.43354556 0.2708816
-6.6935444 16.675701 6.4269543 -0.17795011 0.9086107 0.3778363 0.45680773 0.29246816
-6.8971834 16.620214 6.4240837 -0.4148007 0.8642163 0.28472885 0.45554635 0.2762517
-6.223246 16.624163 6.5523567 0.10128497 0.8340978 0.54223824 0.47330835 0.33104068
-5.992852 16.679743 6.3624635 0.3532638 0.8517075 0.38703892 0.45554635 0.34874842
-5.9586654 16.729519 6.173347 0.44596523 0.88285404 0.1472537 0.43354556 0.35411844
-5.9814925 16.746443 5.984508 0.49546975 0.8594656 -0.12581113 0.40575573 0.36023706
-6.0325212 16.732418 5.854698 0.4535215 0.7722215 -0.44496325 0.375 0.375
-6.1727514 16.775043 5.823444 0.20438601 0.8486399 -0.48789006 0.37500003 0.34375003
-6.3807435 16.790142 5.817775 -0.07773359 0.8635698 -0.4982014 0.37500003 0.31250006
-6.3140936 16.085812 5.525392 -0.11121685 0.17595947 -0.97809464 0.19357643 0.5098091
-6.1184325 16.42536 5.6156864 0.22997859 0.3317216 -0.9149157 0.2199436 0.50190973
-6.058043 16.13509 5.5483994 0.20112064 0.26415104 -0.94327873 0.22323951 0.50649965
-6.590365 16.06298 5.5953627 -0.39635783 0.11420125 -0.9109657 0.16030546 0.5073677
-6.3559737 16.409428 5.5953307 -0.09406587 0.27250063 -0.9575464 0.18923612 0.5027778
-6.155475 16.64449 5.7021465 0.23201749 0.53124493 -0.8148293 0.2188992 0.5002387
-6.6052966 16.391647 5.6558495 -0.387077 0.23157428 -0.89249355 0.15744357 0.50190973
-6.3719144 16.649082 5.686035 -0.085108876 0.5202247 -0.8497781 0.18771704 0.50034726
-5.847028 16.199608 5.6614523 0.5070006 0.3739496 -0.77660286 0.25000003 0.50000006
-5.9493327 15.808796 5.48373 0.14645848 0.26884583 -0.9519831 0.23285593 0.51571184
-6.5417094 15.656022 5.538384 -0.4024692 0.06663695 -0.91300493 0.16601564 0.5243924
-6.2269692 15.70406 5.456708 -0.13175258 0.1447838 -0.98065233 0.203125 0.5256945
-6.8483477 16.06181 5.756134 -0.6527699 0.08306272 -0.7529887 0.12500001 0.50000006
-6.796033 16.587854 5.8504815 -0.6228519 0.43932122 -0.64734256 0.12500001 0.50000006
-6.596919 16.623215 5.7362127 -0.36746365 0.47536433 -0.7993742 0.15639919 0.5002387
-6.749107 16.694298 5.906767 -0.5455932 0.7048398 -0.45335287 0.12500001 0.50000006
-6.5955257 16.752413 5.854031 -0.32697508 0.81152683 -0.48426384 0.15625001 0.50000006
-6.3807435 16.790142 5.817775 -0.07773359 0.8635698 -0.4982014 0.18750001 0.50000006
-6.1727514 16.775043 5.823444 0.20438601 0.8486399 -0.48789006 0.21875001 0.50000006
-6.0325212 16.732418 5.854698 0.4535215 0.7722215 -0.44496325 0.25000003 0.50000006
-5.9796352 16.629599 5.7880616 0.5473258 0.5336772 -0.64468837 0.25000003 0.50000006
-5.920467 16.443083 5.7185774 0.5554171 0.39883223 -0.72968805 0.25000003 0.50000006
-5.6614423 16.375814 6.3823376 0.63219965 0.7695195 0.09035103 0.46394935 0.3745668
-5.7310386 16.485718 6.1284814 0.8324184 0.5481119 -0.081566185 0.43499228 0.3724923
-5.7679496 16.494865 6.3689494 0.7066004 0.656549 0.26393047 0.46023825 0.36648828
-5.633793 16.326452 6.1071477 0.7468658 0.63131636 -0.20888075 0.43615574 0.37973216
-5.7863674 16.465717 5.899334 0.7784196 0.46485272 -0.42187086 0.40593654 0.37468657
-5.82371 16.625944 6.150503 0.7391937 0.6728599 0.029194579 0.43397957 0.36545745
-5.862794 16.602642 6.358577 0.6025763 0.71847415 0.34741437 0.4570986 0.3590965
-5.866303 16.630083 5.9470787 0.7331256 0.6042154 -0.3121708 0.40580997 0.37019932
-5.4804707 16.256573 6.3862247 0.4332337 0.89352 -0.11802773 0.46747503 0.3880751
-5.7009544 16.265776 5.8561273 0.70425445 0.49919972 -0.50480235 0.406082 0.37919942
-5.5676365 16.064114 5.813677 0.5233369 0.61215806 -0.5927739 0.40619576 0.38926867
-5.847028 16.199608 5.6614523 0.5070006 0.3739496 -0.77660286 0.37500003 0.37500003
-5.920467 16.443083 5.7185774 0.5554171 0.39883223 -0.72968805 0.37500003 0.37500003
-5.9796352 16.629599 5.7880616 0.5473258 0.5336772 -0.64468837 0.37500003 0.37500003
-5.9586654 16.729519 6.173347 0.44596523 0.88285404 0.1472537 0.43354553 0.35411847
-7.0490003 16.077477 5.996069 -0.84566164 0.08686731 -0.5266028 0.41013065 0.24303915
-7.1121793 16.376192 6.2455997 -0.9313662 0.29910272 -0.20759231 0.43672842 0.25172648
-7.010607 16.371445 6.0038567 -0.8328823 0.23113301 -0.5028764 0.40713012 0.24962988
-7.164853 16.121021 6.2707977 -0.9581904 0.14339195 -0.24760857 0.4421779 0.24246845
-7.118431 16.39075 6.4776707 -0.88344115 0.4404468 0.15980688 0.46148607 0.25851175
-7.029354 16.552092 6.23894 -0.79322124 0.6001749 -0.10290845 0.4341966 0.25944495
-6.9443517 16.569178 6.027895 -0.76272494 0.5108561 -0.39658117 0.40595916 0.25471526
-7.033309 16.527807 6.442739 -0.7029677 0.6747788 0.22474465 0.4572546 0.2659036
-7.079522 15.681461 6.0102277 -0.84814805 0.033066988 -0.52872634 0.4159071 0.22575958
-6.8483477 16.06181 5.756134 -0.6527699 0.08306272 -0.7529887 0.37500003 0.25000003
-7.2151604 15.770138 6.32862 -0.9610866 0.08658388 -0.26232755 0.45225695 0.22552085
-7.225144 15.936411 6.620338 -0.97308683 0.22179566 0.06251888 0.4803603 0.23838979
-7.1730385 16.199251 6.5299315 -0.9541429 0.2780618 0.11087348 0.4684388 0.25058925
-6.796033 16.587854 5.8504815 -0.6228519 0.43932122 -0.64734256 0.37500003 0.25000003
-6.8339896 16.377003 5.7950764 -0.6437288 0.2130189 -0.7350075 0.37500003 0.25000003
-4.291293 14.221499 7.023883 0.667981 -0.3709433 0.6451375 0.62456596 0.6139757
-5.10863 13.032372 6.759494 0.3206524 -0.72069085 0.6146436 0.62500006 0.8125001
-6.297893 13.044889 6.8868456 -0.20341063 -0.71801543 0.66564107 0.62500006 0.9375001
-5.812653 14.765696 5.2979465 -0.07069937 0.05183664 -0.9961499 0.25125 0.601
-6.7849894 14.629057 5.678278 -0.6465234 -0.03539051 -0.76207274 0.12500001 0.62500006
-5.703253 12.948748 6.8515105 0.061411537 -0.7364192 0.6737324 0.7500001 0.75000006
-5.834643 15.706933 7.7053967 -0.0056797713 0.19240788 0.9812987 0.62500006 0.34375003
-6.705924 16.591612 6.585148 -0.13762134 0.84755385 0.5125551 0.47330835 0.2939594
-6.8339896 16.377003 5.7950764 -0.6437288 0.2130189 -0.7350075 0.12500001 0.50000006
-7.6103253 14.558642 6.983639 0.22269356 0.6704886 0.7077095 0.37500006 0
-7.3845615 14.7767 6.29229 0.49625307 0.8587558 -0.12756011 0.5 0.0995
-7.9581423 14.769323 6.749483 -0.0005235374 0.8511538 0.5249163 0.37500003 0.12500001
-6.827187 14.224286 6.3957562 0.9409191 0.32211336 -0.10447174 0.5625001 0
-7.216424 14.472329 6.8213086 0.5780026 0.5822894 0.5717099 0.43750003 0
-6.9405575 14.225103 6.694171 0.77675116 0.27354473 0.5673014 0.50000006 0
-6.978179 14.10153 6.090064 0.7058686 0.053813815 -0.70629585 0.62500006 0
-6.827187 14.224286 6.3957562 0.9409191 0.32211336 -0.10447174 0.56250006 0
-8.325794 14.992278 5.9107804 -0.04356792 0.94374436 -0.3277937 0.5 0.24444446
-7.5089498 14.420678 5.801468 0.4509073 0.25395897 -0.85567963 0.62500006 0.12500001
-8.245431 14.686462 5.595378 0.123079866 0.41217422 -0.9027536 0.625 0.25
-8.325794 14.992278 5.9107804 -0.04356792 0.94374436 -0.3277937 0.50000006 0.24444446
-8.452231 14.914518 6.3925757 -0.23867068 0.9119613 0.33371097 0.375 0.25
-9.225914 14.515762 5.862749 -0.67930853 0.63118976 -0.37435228 0.50000006 0.37500006
-9.055417 14.521105 6.496634 -0.5866759 0.6746577 0.44793838 0.37500003 0.37500006
-8.325794 14.992278 5.9107804 -0.04356792 0.94374436 -0.3277937 0.50000006 0.24444447
-9.452425 13.515917 5.7832265 -0.5577551 -0.26603866 -0.78621423 0.625 0.5
-9.690773 13.670546 6.1134963 -0.9922 0.020200245 -0.123009056 0.50000006 0.50625
-9.484492 13.916753 6.537284 -0.8205482 0.31195372 0.47894233 0.375 0.5
-9.229652 13.541502 6.921983 -0.6779047 0.096138075 0.7288368 0.37543407 0.63602436
-9.379254 12.829571 6.592504 -0.87348753 -0.43768626 0.21319139 0.5 0.6493751
-8.843399 12.137429 6.741653 -0.63853276 -0.7187832 0.2750033 0.5477431 0.72274315
-9.105405 12.810528 6.065856 -0.39831558 -0.5585113 -0.7276057 0.625 0.6317709
-8.588849 12.10166 6.438235 -0.27033928 -0.70160204 -0.65929615 0.62500006 0.71388894
-8.875877 12.85739 7.0623612 -0.3776633 -0.27259386 0.8849087 0.452257 0.7423611
-8.843399 12.137429 6.741653 -0.63853276 -0.7187832 0.2750033 0.5477431 0.7227431
-8.631275 12.460019 6.994325 -0.19400285 -0.31652984 0.9285322 0.50000006 0.7597223
-8.875877 12.85739 7.0623612 -0.3776633 -0.27259386 0.8849087 0.45225704 0.7423612
-8.906588 13.307479 7.1568103 -0.41555637 -0.05482027 0.907914 0.375 0.75
-7.156011 13.285335 6.6187778 0.8390568 -0.36639512 0.4021672 0.5629341 0.89192724
-7.089843 13.904542 6.8147883 0.639764 -0.13960002 0.755787 0.50000006 0.937934
-7.5168104 13.417213 6.9178023 0.48826912 -0.26282513 0.83217573 0.49999997 0.875
-7.1060705 13.546468 6.1913557 0.65275556 -0.38626665 -0.65169656 0.62500006 0.9375001
-6.877443 13.714638 6.5180645 0.9368504 -0.32296187 0.13419056 0.56250006 0.9392361
-6.978179 14.10153 6.090064 0.7058686 0.053813815 -0.70629585 0.62500006 1.0000001
-6.827187 14.224286 6.3957562 0.9409191 0.32211336 -0.10447174 0.5625001 1.0000001
-6.9405575 14.225103 6.694171 0.77675116 0.27354473 0.5673014 0.5 1
-8.452231 14.914518 6.3925757 -0.23867068 0.9119613 0.33371097 0.12500001 0.50000006
-8.551625 14.226538 7.058192 -0.33766502 0.47309077 0.8137369 0.25 0.651
-7.9581423 14.769323 6.749483 -0.0005235374 0.8511538 0.5249163 0.12500001 0.6250001
-9.055417 14.521105 6.496634 -0.5866759 0.6746577 0.44793838 0.25000003 0.50000006
-8.456465 13.644126 7.2727714 -0.1497371 0.06274298 0.9867332 0.31250003 0.75000006
-8.000721 13.891012 7.2711067 0.11037484 0.025119886 0.9935727 0.25000003 0.7500001
-8.456465 13.644126 7.2727714 -0.1497371 0.06274298 0.9867332 0.31250006 0.75000006
-7.9581423 14.769323 6.749483 -0.0005235374 0.8511538 0.5249163 0.12500001 0.62500006
-7.8235583 14.254476 7.190794 0.08177447 0.34433687 0.93527824 0.18750003 0.75000006
-7.6103253 14.558642 6.983639 0.22269356 0.6704886 0.7077095 0.12500001 0.7500001
-8.107061 13.463512 5.8320704 0.198362 -0.31591374 -0.9278207 0.75124997 0.6484375
-9.105405 12.810528 6.065856 -0.39831558 -0.5585113 -0.7276057 0.62500006 0.6317709
-8.245431 14.686462 5.595378 0.123079866 0.41217422 -0.9027536 0.8750001 0.50000006
-8.938686 14.16202 5.5312753 -0.21918839 0.063589334 -0.97360826 0.7500001 0.50000006
-7.1060705 13.546468 6.1913557 0.65275556 -0.38626665 -0.65169656 0.8125001 0.75000006
-7.5089498 14.420678 5.801468 0.4509073 0.25395897 -0.85567963 0.8750001 0.62500006
-6.978179 14.10153 6.090064 0.7058686 0.053813815 -0.70629585 0.8750001 0.7500001
-7.2725425 12.968361 6.390382 0.787462 -0.39087927 -0.4765682 0.75 0.75
-9.105405 12.810528 6.065856 -0.39831558 -0.5585113 -0.7276057 0.62500006 0.63177085
-7.901708 12.528169 6.287035 0.22988734 -0.39895564 -0.88768595 0.70312506 0.7215279
-7.7794685 13.701719 7.1657395 0.3632624 -0.20594457 0.9086405 0.43706605 0.87500006
-7.8235583 14.254476 7.190794 0.08177447 0.34433687 0.93527824 0.37500003 0.9375001
-8.000721 13.891012 7.2711067 0.11037484 0.025119886 0.9935727 0.375 0.875
-7.391188 14.122906 7.066433 0.49071655 0.06483823 0.8689035 0.43750003 0.9375001
-7.216424 14.472329 6.8213086 0.5780026 0.5822894 0.5717099 0.43750003 1.0000001
-7.6103253 14.558642 6.983639 0.22269356 0.6704886 0.7077095 0.37500006 1.0000001
-8.317856 13.233788 7.203059 0.101778805 -0.26260495 0.9595207 0.43750006 0.8117188
-8.456465 13.644126 7.2727714 -0.1497371 0.06274298 0.9867332 0.37500003 0.8125001
-8.875877 12.85739 7.0623612 -0.3776633 -0.27259386 0.8849087 0.45225695 0.7423612
-8.150638 12.938089 7.0547843 0.21195075 -0.23638831 0.9482604 0.48394105 0.8132814
-7.2725425 12.968361 6.390382 0.787462 -0.39087927 -0.4765682 0.625 0.875
-7.300353 12.993145 6.6623898 0.79540455 -0.2734359 0.54089236 0.5650077 0.8724923
-7.340478 12.64781 6.504517 0.86878014 -0.4416948 -0.22389057 0.62500006 0.8750001
-7.156011 13.285335 6.6187778 0.8390568 -0.36639512 0.4021672 0.5629341 0.8919272
-7.602649 12.854388 6.846373 0.47367018 -0.1927277 0.85935605 0.53125006 0.8437501
-7.4450293 12.734658 6.702595 0.6448751 -0.29100302 0.7067203 0.56645447 0.8541186
-7.4258943 12.518899 6.5793476 0.79761314 -0.52581763 0.29551524 0.625 0.875
-8.161218 12.309715 6.947563 0.2574719 -0.2869544 0.9226947 0.53125006 0.78125006
-7.7584014 12.385857 6.7751503 0.50466114 -0.36458328 0.7825576 0.5657794 0.81250006
-7.884037 12.61548 6.9285393 0.38032722 -0.2174794 0.89891833 0.524402 0.81250006
-8.134185 12.060965 6.8355165 0.3054045 -0.49479455 0.81357646 0.5664545 0.77088165
-7.6951766 12.180143 6.6095724 0.7036301 -0.6588545 0.26611233 0.62500006 0.8125001
-7.4450293 12.734658 6.702595 0.6448751 -0.29100302 0.7067203 0.5664545 0.85411847
-8.150638 12.938089 7.0547843 0.21195075 -0.23638831 0.9482604 0.48394096 0.81328136
-7.578212 13.061398 6.8678126 0.45199528 -0.17306027 0.87507176 0.5204475 0.85455257
-8.37315 12.309747 6.980979 -0.020652235 -0.2912105 0.9564362 0.5200135 0.77122885
-8.0139265 12.763304 6.991833 0.27723062 -0.13708298 0.95097405 0.5050155 0.8127605
-7.884037 12.61548 6.9285393 0.38032722 -0.2174794 0.89891833 0.5244021 0.81250006
-8.588849 12.10166 6.438235 -0.27033928 -0.70160204 -0.65929615 0.625 0.7138888
-7.7478848 12.165429 6.496831 0.46970642 -0.641148 -0.6068817 0.6892362 0.74644095
-8.230138 11.834944 6.6296062 0.07017493 -0.9831137 -0.16900685 0.62500006 0.74592024
-7.901708 12.528169 6.287035 0.22988734 -0.39895564 -0.88768595 0.703125 0.7215278
-7.340478 12.64781 6.504517 0.86878014 -0.4416948 -0.22389057 0.75000006 0.75000006
-7.4258943 12.518899 6.5793476 0.79761314 -0.52581763 0.29551524 0.7500001 0.7500001
-7.6951766 12.180143 6.6095724 0.7036301 -0.6588545 0.26611233 0.68750006 0.75000006
-8.028146 11.931031 6.691323 0.4764246 -0.81124794 0.3389638 0.625 0.75
-8.631275 12.460019 6.994325 -0.19400285 -0.31652984 0.9285322 0.50000006 0.7597222
-8.457316 11.929495 6.829892 -0.26759243 -0.79681176 0.5417429 0.5632717 0.75094527
-8.938686 14.16202 5.5312753 -0.21918839 0.063589334 -0.97360826 0.62500006 0.37500006
-9.229652 13.541502 6.921983 -0.6779047 0.096138075 0.7288368 0.37543404 0.63602436
-7.8235583 14.254476 7.190794 0.08177447 0.34433687 0.93527824 0.18750001 0.75000006
-8.938686 14.16202 5.5312753 -0.21918839 0.063589334 -0.97360826 0.75000006 0.50000006
-7.5089498 14.420678 5.801468 0.4509073 0.25395897 -0.85567963 0.8750001 0.6250001
-7.901708 12.528169 6.287035 0.22988734 -0.39895564 -0.88768595 0.70312506 0.7215278
-8.631275 12.460019 6.994325 -0.19400285 -0.31652984 0.9285322 0.50000006 0.75972223
3 0 1 2
3 3 4 5
3 6 7 8
3 9 10 11
3 12 7 13
3 14 2 15
3 16 0 2
3 2 17 15
3 18 5 19
3 20 5 21
3 5 22 19
3 23 6 24
3 25 26 6
3 24 8 20
3 27 28 29
3 30 11 27
3 11 31 28
3 32 12 33
3 34 1 12
3 33 13 35
3 36 37 38
3 36 39 40
3 40 41 37
3 40 42 43
3 44 45 46
3 47 38 44
3 47 48 36
3 49 50 48
3 48 51 39
3 39 52 42
3 52 53 42
3 42 54 43
3 43 55 41
3 41 56 57
3 37 57 58
3 38 58 45
3 59 60 61
3 62 63 64
3 65 60 62
3 66 67 68
3 61 66 69
3 70 59 71
3 72 63 59
3 71 61 73
3 56 64 74
3 54 64 55
3 64 75 74
3 76 65 77
3 78 79 65
3 77 62 54
3 80 68 81
3 82 68 83
3 68 84 81
3 85 69 86
3 87 69 88
3 86 66 89
3 90 91 92
3 93 91 94
3 91 95 92
3 91 96 97
3 85 90 98
3 89 90 99
3 100 94 89
3 80 93 100
3 93 101 102
3 101 96 102
3 96 103 104
3 97 104 105
3 95 105 106
3 95 107 108
3 92 108 109
3 98 92 109
3 110 111 112
3 113 110 114
3 115 113 116
3 117 115 118
3 111 119 120
3 121 122 123
3 124 112 121
3 112 125 122
3 126 127 128
3 129 114 126
3 114 124 127
3 70 116 130
3 131 116 132
3 116 133 130
3 85 118 134
3 135 117 118
3 134 115 136
3 137 120 138
3 139 111 120
3 138 119 140
3 141 142 143
3 144 145 146
3 147 144 148
3 149 150 151
3 152 153 154
3 76 143 155
3 156 143 157
3 143 158 155
3 159 146 160
3 161 144 146
3 160 145 156
3 162 148 163
3 164 148 165
3 148 166 163
3 167 151 168
3 169 149 151
3 168 150 170
3 80 152 171
3 172 173 152
3 171 154 174
3 175 176 177
3 175 178 179
3 179 180 176
3 178 181 179
3 182 177 183
3 184 175 177
3 185 186 175
3 187 45 186
3 186 58 178
3 58 188 178
3 188 56 189
3 181 189 75
3 181 72 180
3 180 70 190
3 176 190 191
3 177 191 183
3 192 193 194
3 192 195 196
3 196 197 193
3 195 198 196
3 199 200 201
3 202 194 199
3 203 192 202
3 203 204 205
3 205 206 195
3 195 207 208
3 208 209 210
3 208 211 198
3 198 212 197
3 197 213 214
3 193 214 215
3 194 215 200
3 216 217 218
3 219 220 217
3 218 221 222
3 220 221 217
3 223 216 224
3 28 219 216
3 225 226 219
3 227 228 226
3 226 229 220
3 229 230 220
3 230 231 49
3 230 47 221
3 222 47 44
3 232 44 46
3 202 222 232
3 224 218 202
3 233 234 235
3 236 237 234
3 235 238 239
3 234 240 238
3 241 233 242
3 243 236 233
3 244 245 236
3 213 245 246
3 245 211 237
3 237 247 240
3 240 209 248
3 238 248 249
3 238 250 239
3 239 251 252
3 253 239 252
3 242 235 253
3 254 255 256
3 257 258 254
3 258 259 255
3 260 261 258
3 128 256 262
3 263 254 256
3 264 254 265
3 123 257 264
3 266 260 257
3 260 267 268
3 268 269 270
3 268 271 261
3 261 272 259
3 259 273 274
3 255 274 275
3 262 255 275
3 276 277 278
3 279 280 277
3 278 281 282
3 277 283 281
3 46 276 204
3 284 279 276
3 185 285 279
3 286 287 285
3 285 288 280
3 280 289 283
3 283 251 250
3 281 250 290
3 282 290 248
3 207 248 209
3 206 282 207
3 204 278 206
3 291 292 293
3 294 295 292
3 293 296 297
3 292 298 296
3 299 300 32
3 301 291 299
3 302 294 301
3 201 303 302
3 200 295 303
3 295 214 298
3 298 213 246
3 296 246 244
3 297 244 243
3 304 243 241
3 305 297 304
3 291 305 300
3 0 7 1
3 3 7 4
3 6 26 7
3 9 7 10
3 12 1 7
3 14 16 2
3 16 22 0
3 2 1 17
3 18 21 5
3 20 3 5
3 5 4 22
3 23 25 6
3 25 225 26
3 24 6 8
3 27 11 28
3 30 9 11
3 11 10 31
3 32 34 12
3 34 17 1
3 33 12 13
3 36 40 37
3 36 48 39
3 40 43 41
3 40 39 42
3 44 38 45
3 47 36 38
3 47 49 48
3 49 231 50
3 48 50 51
3 39 51 52
3 52 76 53
3 42 53 54
3 43 54 55
3 41 55 56
3 37 41 57
3 38 37 58
3 59 63 60
3 62 60 63
3 65 79 60
3 66 60 67
3 61 60 66
3 70 72 59
3 72 75 63
3 71 59 61
3 56 55 64
3 54 62 64
3 64 63 75
3 76 78 65
3 78 306 79
3 77 65 62
3 80 83 68
3 82 66 68
3 68 67 84
3 85 88 69
3 87 61 69
3 86 69 66
3 90 94 91
3 93 102 91
3 91 97 95
3 91 102 96
3 85 99 90
3 89 94 90
3 100 93 94
3 80 307 93
3 93 307 101
3 101 308 96
3 96 308 103
3 97 96 104
3 95 97 105
3 95 106 107
3 92 95 108
3 98 90 92
3 110 309 111
3 113 309 110
3 115 309 113
3 117 309 115
3 111 309 119
3 121 112 122
3 124 110 112
3 112 111 125
3 126 114 127
3 129 113 114
3 114 110 124
3 70 132 116
3 131 115 116
3 116 113 133
3 85 135 118
3 135 140 117
3 134 118 115
3 137 139 120
3 139 310 111
3 138 120 119
3 141 153 142
3 144 153 145
3 147 153 144
3 149 153 150
3 152 173 153
3 76 157 143
3 156 141 143
3 143 142 158
3 159 161 146
3 161 166 144
3 160 146 145
3 162 165 148
3 164 147 148
3 148 144 166
3 167 169 151
3 169 311 149
3 168 151 150
3 80 172 152
3 172 84 173
3 171 152 154
3 175 179 176
3 175 186 178
3 179 181 180
3 178 188 181
3 182 184 177
3 184 185 175
3 185 187 186
3 187 46 45
3 186 45 58
3 58 57 188
3 188 57 56
3 181 188 189
3 181 75 72
3 180 72 70
3 176 180 190
3 177 176 191
3 192 196 193
3 192 205 195
3 196 198 197
3 195 208 198
3 199 194 200
3 202 192 194
3 203 205 192
3 203 46 204
3 205 204 206
3 195 206 207
3 208 207 209
3 208 210 211
3 198 211 212
3 197 212 213
3 193 197 214
3 194 193 215
3 216 219 217
3 219 226 220
3 218 217 221
3 220 230 221
3 223 28 216
3 28 225 219
3 225 227 226
3 227 23 228
3 226 228 229
3 229 312 230
3 230 312 231
3 230 49 47
3 222 221 47
3 232 222 44
3 202 218 222
3 224 216 218
3 233 236 234
3 236 245 237
3 235 234 238
3 234 237 240
3 241 243 233
3 243 244 236
3 244 246 245
3 213 313 245
3 245 313 211
3 237 211 247
3 240 247 209
3 238 240 248
3 238 249 250
3 239 250 251
3 253 235 239
3 242 233 235
3 254 258 255
3 257 260 258
3 258 261 259
3 260 268 261
3 128 263 256
3 263 265 254
3 264 257 254
3 123 266 257
3 266 314 260
3 260 314 267
3 268 267 269
3 268 270 271
3 261 271 272
3 259 272 273
3 255 259 274
3 262 256 255
3 276 279 277
3 279 285 280
3 278 277 281
3 277 280 283
3 46 284 276
3 284 185 279
3 185 286 285
3 286 182 287
3 285 287 288
3 280 288 289
3 283 289 251
3 281 283 250
3 282 281 290
3 207 282 248
3 206 278 282
3 204 276 278
3 291 294 292
3 294 303 295
3 293 292 296
3 292 295 298
3 299 291 300
3 301 294 291
3 302 303 294
3 201 200 303
3 200 215 295
3 295 215 214
3 298 214 213
3 296 298 246
3 297 296 244
3 304 297 243
3 305 293 297
3 291 293 305
3 315 316 317
3 318 319 320
3 321 316 322
3 323 324 325
3 317 326 327
3 327 328 329
3 325 328 330
3 328 331 332
3 328 333 329
3 332 334 333
3 331 335 332
3 336 337 338
3 339 340 341
3 334 342 343
3 344 345 346
3 344 347 348
3 348 349 350
3 348 351 345
3 352 353 354
3 333 353 355
3 356 334 343
3 357 353 358
3 359 360 361
3 331 362 363
3 364 362 365
3 366 367 368
3 369 362 366
3 370 371 338
3 372 373 374
3 346 375 372
3 345 376 375
3 375 377 373
3 343 378 379
3 380 381 378
3 381 372 378
3 379 372 374
3 382 383 384
3 346 383 385
3 383 386 387
3 384 387 388
3 389 390 391
3 392 393 390
3 390 388 394
3 390 386 391
3 395 396 346
3 395 397 398
3 398 389 399
3 398 386 396
3 400 401 402
3 403 404 401
3 401 405 406
3 401 407 402
3 340 397 408
3 400 409 340
3 402 392 409
3 397 392 389
3 315 319 316
3 318 316 319
3 321 324 316
3 323 316 324
3 317 316 326
3 327 330 328
3 325 410 328
3 328 410 331
3 328 332 333
3 332 335 334
3 331 337 335
3 336 335 337
3 339 335 340
3 334 335 342
3 344 348 345
3 344 382 347
3 348 347 349
3 348 350 351
3 352 355 353
3 333 411 353
3 356 353 334
3 357 412 353
3 359 353 360
3 331 413 362
3 364 414 362
3 366 362 367
3 369 415 362
3 370 362 371
3 372 375 373
3 346 345 375
3 345 351 376
3 375 376 377
3 343 380 378
3 380 416 381
3 381 346 372
3 379 378 372
3 382 385 383
3 346 396 383
3 383 396 386
3 384 383 387
3 389 392 390
3 392 407 393
3 390 393 388
3 390 394 386
3 395 398 396
3 395 408 397
3 398 397 389
3 398 399 386
3 400 403 401
3 403 369 404
3 401 404 405
3 401 406 407
3 340 409 397
3 400 402 409
3 402 407 392
3 397 409 392
