ply
format ascii 1.0
comment Created in Blender version 4.1.1
element vertex 327
property float x
property float y
property float z
property float nx
property float ny
property float nz
property float s
property float t
element face 442
property list uchar uint vertex_indices
end_header
10.487488 9.486854 11.613119 -1.7712237e-05 2.326363 -1.2853875 0.6923077 0.3333333
10.574912 9.327591 11.475405 0.6529459 1.2440941 -2.25612 0.61538464 0.16666669
10.487488 9.349139 11.475405 -4.561778e-06 1.4050297 -2.2561202 0.6923077 0.16666669
10.487488 9.486854 11.989363 1.7304821e-05 2.3263626 1.2853878 0.6923077 0.66666675
10.662337 9.494164 11.801241 1.2351661 2.3534124 1.0475094e-07 0.61538464 0.5
10.487488 9.537261 11.801241 -3.7011998e-07 2.6578536 1.4665132e-07 0.6923077 0.5
10.487488 9.349139 12.127077 4.756611e-06 1.4050297 2.25612 0.6923077 0.8333334
10.487488 9.161017 12.1774845 -7.113084e-08 1.08389855e-07 2.6578536 0.65384614 1
10.574912 9.327591 12.127077 0.6529477 1.2440877 2.2561228 0.61538464 0.8333333
10.487488 9.161017 11.424997 -1.7020595e-07 4.742056e-08 -2.6578536 0.65384614 0
10.638911 9.449532 11.613119 1.0810992 2.0599 -1.285388 0.61538464 0.3333333
10.638911 9.449532 11.989363 1.0811279 2.0598888 1.2853822 0.61538464 0.6666666
10.487488 9.161017 11.424997 -1.7020595e-07 4.742056e-08 -2.6578536 0.5769231 0
10.642309 9.267882 11.475405 1.1563141 0.7981514 -2.25612 0.53846157 0.16666669
10.755646 9.346113 11.613119 1.9145491 1.3215389 -1.2853878 0.53846157 0.3333333
10.642309 9.267882 12.127077 1.1563208 0.7981506 2.2561169 0.53846157 0.8333333
10.755646 9.346113 11.989363 1.9145641 1.321512 1.2853934 0.53846157 0.6666666
10.797131 9.374748 11.801241 2.1873708 1.5098327 2.7933583e-08 0.53846157 0.5
10.487488 9.161017 12.1774845 -7.113084e-08 1.08389855e-07 2.6578536 0.5769231 1
10.487488 9.161017 11.424997 -1.7020595e-07 4.742056e-08 -2.6578536 0.5 0
10.674238 9.183693 11.475405 1.3947848 0.16936225 -2.25612 0.4615385 0.16666669
10.810948 9.200293 11.613119 2.3093991 0.2804294 -1.2853875 0.4615385 0.3333333
10.810948 9.200293 11.989363 2.3094032 0.28039485 1.2853878 0.4615385 0.6666666
10.860988 9.206368 11.801241 2.638475 0.3203688 1.396679e-08 0.4615385 0.5
10.487488 9.161017 12.1774845 -7.113084e-08 1.08389855e-07 2.6578536 0.5 1
10.674238 9.183693 12.127077 1.394786 0.16935293 2.25612 0.4615385 0.8333333
10.487488 9.161017 11.424997 -1.7020595e-07 4.742056e-08 -2.6578536 0.42307693 0
10.663384 9.094309 11.475405 1.3137304 -0.4982322 -2.2561169 0.3846154 0.16666669
10.7921505 9.045474 11.613119 2.175189 -0.82492626 -1.2853932 0.38461542 0.3333333
10.7921505 9.045474 11.989363 2.175181 -0.82495594 1.2853875 0.38461542 0.66666675
10.839281 9.027599 11.801241 2.4851363 -0.942488 2.095019e-08 0.3846154 0.5
10.487488 9.161017 12.1774845 -7.113084e-08 1.08389855e-07 2.6578536 0.42307693 1
10.663384 9.094309 12.127077 1.3137239 -0.49823493 2.25612 0.3846154 0.8333333
10.703557 8.917126 11.613119 1.5426711 -1.7413013 -1.2853875 0.30769235 0.3333333
10.703557 8.917126 11.989363 1.5426569 -1.7413055 1.2853992 0.30769235 0.66666675
10.612236 9.020206 11.475405 0.9317034 -1.051683 -2.25612 0.30769232 0.16666669
10.736983 8.8793955 11.801241 1.7624807 -1.989434 3.0517306e-06 0.30769232 0.5
10.487488 9.161017 12.1774845 -7.113084e-08 1.08389855e-07 2.6578536 0.34615386 1
10.612236 9.020206 12.127077 0.93170345 -1.051683 2.25612 0.30769232 0.8333334
10.487488 9.161017 11.424997 -1.7020595e-07 4.742056e-08 -2.6578536 0.34615386 0
10.565466 8.844649 11.989363 0.5567442 -2.258761 1.2853874 0.23076928 0.6666666
10.565466 8.844649 11.613119 0.5567443 -2.258761 -1.2853875 0.23076928 0.3333333
10.532508 8.978362 11.475405 0.33624104 -1.3642031 -2.25612 0.23076925 0.16666669
10.577529 8.795707 11.801241 0.6360602 -2.5806224 -6.983395e-09 0.23076925 0.5
10.487488 9.161017 12.1774845 -7.113084e-08 1.08389855e-07 2.6578536 0.26923078 1
10.532508 8.978362 12.127077 0.33624113 -1.3642031 2.25612 0.23076925 0.8333334
10.487488 9.161017 11.424997 -1.7020595e-07 4.742056e-08 -2.6578536 0.26923078 0
10.40951 8.844649 11.613119 -0.55672616 -2.2587652 -1.2853875 0.1538462 0.3333333
10.442468 8.978362 11.475405 -0.3362502 -1.3642007 -2.25612 0.15384617 0.16666669
10.40951 8.844649 11.989363 -0.5567261 -2.2587652 1.2853874 0.1538462 0.66666675
10.397447 8.795707 11.801241 -0.63607186 -2.5806196 -6.983395e-09 0.15384617 0.5
10.487488 9.161017 12.1774845 -7.113084e-08 1.08389855e-07 2.6578536 0.19230771 1
10.442468 8.978362 12.127077 -0.3362502 -1.3642007 2.2561202 0.15384617 0.8333334
10.487488 9.161017 11.424997 -1.7020595e-07 4.742056e-08 -2.6578536 0.19230771 0
10.271419 8.917126 11.613119 -1.542657 -1.7413138 -1.2853875 0.0769231 0.3333333
10.36274 9.020206 11.475405 -0.9317107 -1.0516764 -2.2561202 0.0769231 0.16666669
10.271419 8.917126 11.989363 -1.5426713 -1.7413098 1.2853756 0.0769231 0.66666675
10.237992 8.8793955 11.801241 -1.7624855 -1.9894298 -3.0727074e-06 0.0769231 0.5
10.487488 9.161017 12.1774845 -7.113084e-08 1.08389855e-07 2.6578536 0.11538464 1
10.36274 9.020206 12.127077 -0.93171066 -1.0516764 2.2561202 0.0769231 0.8333334
10.487488 9.161017 11.424997 -1.7020595e-07 4.742056e-08 -2.6578536 0.11538464 0
10.182825 9.045474 11.613119 -2.175184 -0.82494825 -1.2853874 2.9802322e-08 0.3333333
10.311591 9.094309 11.475405 -1.3137271 -0.49822605 -2.25612 0 0.16666669
10.1356945 9.027599 11.801241 -2.4851375 -0.942485 3.1704474e-06 0 0.5
10.487488 9.161017 12.1774845 -7.113084e-08 1.08389855e-07 2.6578536 0.038461566 1
10.311591 9.094309 12.127077 -1.3137273 -0.49822605 2.25612 0 0.8333334
10.487488 9.161017 11.424997 -1.7020595e-07 4.742056e-08 -2.6578536 0.038461566 0
10.182825 9.045474 11.989363 -2.1751828 -0.82493365 1.2853992 2.9802322e-08 0.66666675
10.311591 9.094309 11.475405 -1.3137271 -0.49822605 -2.25612 1 0.16666669
10.164027 9.200293 11.613119 -2.309406 0.28039914 -1.2853817 0.9230769 0.3333333
10.300737 9.183693 11.475405 -1.3947803 0.16935697 -2.256123 0.9230769 0.16666669
10.1356945 9.027599 11.801241 -2.4851375 -0.942485 3.1704474e-06 1 0.5
10.164027 9.200293 11.989363 -2.3094025 0.28040272 1.2853875 0.9230769 0.66666675
10.113988 9.206368 11.801241 -2.6384742 0.32037458 -6.9833948e-09 0.9230769 0.5
10.311591 9.094309 12.127077 -1.3137273 -0.49822605 2.25612 1 0.8333334
10.487488 9.161017 12.1774845 -7.113084e-08 1.08389855e-07 2.6578536 0.96153855 1
10.300737 9.183693 12.127077 -1.3947847 0.1693623 2.2561202 0.9230769 0.8333334
10.487488 9.161017 11.424997 -1.7020595e-07 4.742056e-08 -2.6578536 0.96153855 0
10.182825 9.045474 11.613119 -2.175184 -0.82494825 -1.2853874 1 0.3333333
10.182825 9.045474 11.989363 -2.1751828 -0.82493365 1.2853992 1 0.66666675
10.21933 9.346113 11.989363 -1.9145646 1.3215171 1.2853874 0.84615386 0.66666675
10.177846 9.374748 11.801241 -2.1873672 1.5098379 0 0.84615386 0.5
10.487488 9.161017 12.1774845 -7.113084e-08 1.08389855e-07 2.6578536 0.8846154 1
10.332666 9.267882 12.127077 -1.1563138 0.79815185 2.25612 0.84615386 0.8333334
10.487488 9.161017 11.424997 -1.7020595e-07 4.742056e-08 -2.6578536 0.8846154 0
10.332666 9.267882 11.475405 -1.1563212 0.79815084 -2.2561169 0.84615386 0.16666669
10.21933 9.346113 11.613119 -1.9145644 1.321512 -1.285393 0.84615386 0.3333333
10.487488 9.161017 12.1774845 -7.113084e-08 1.08389855e-07 2.6578536 0.8076923 1
10.4000635 9.327591 12.127077 -0.6529457 1.2440941 2.2561202 0.7692307 0.8333334
10.487488 9.161017 11.424997 -1.7020595e-07 4.742056e-08 -2.6578536 0.8076923 0
10.4000635 9.327591 11.475405 -0.65294755 1.2440873 -2.256123 0.7692307 0.16666669
10.336064 9.449532 11.613119 -1.0811282 2.0598884 -1.2853819 0.7692308 0.3333333
10.336064 9.449532 11.989363 -1.0811143 2.0598998 1.2853757 0.7692308 0.66666675
10.312639 9.494164 11.801241 -1.2351638 2.3534138 -3.1914253e-06 0.7692307 0.5
10.487488 9.161017 11.424997 -1.7020595e-07 4.742056e-08 -2.6578536 0.7307692 0
10.487488 9.161017 12.1774845 -7.113084e-08 1.08389855e-07 2.6578536 0.7307692 1
9.125823 7.8681164 2.974268 -1.6261284 -1.8802325 0.9405416 0.3913662 0
10.552637 8.977876 5.5459156 -1.8830227 1.7045565 0.78287786 0.625 0.25
9.045054 8.754338 2.8350859 -1.9114938 1.7263258 0.6558795 0.39136618 0.24999999
9.904389 8.790687 2.5676498 1.6610076 1.9937614 -0.57459104 0.39136618 0.5
10.990345 9.036111 5.3697195 1.478666 2.0756078 -0.75470793 0.625 0.5
9.985159 7.9044642 2.706833 1.8700354 -1.8685353 -0.2751885 0.39136618 0.75
10.647442 8.519651 5.6299806 -1.3160111 -2.0419703 1.078266 0.625 1
9.125823 7.8681164 2.974268 -1.6261284 -1.8802325 0.9405416 0.3913662 1
9.833318 8.780134 2.2157192 0.9916525 1.425365 -2.012249 0.375 0.5
9.034768 7.843337 2.6305609 -1.7841585 -1.7695922 -0.86574143 0.125 0.75
8.9569 8.747488 2.488679 -1.9664437 1.3343117 -1.1903348 0.125 0.5
10.647442 8.519651 5.6299806 -1.3160111 -2.0419703 1.078266 0.625 0
11.248324 9.128869 7.186544 -1.9182829 1.8064389 0.34807414 0.625 0.25
11.322068 8.772438 7.251934 -1.3537999 -2.2712865 0.2695728 0.625 1
11.296006 8.7576275 9.327756 2.1708958 -1.4727898 0.42695028 0.625 0.75
11.061231 8.723609 9.3996935 -1.383791 -2.2253695 -0.44389012 0.625 1
11.66254 8.817736 7.114879 2.2952867 -1.3387724 -0.059442367 0.625 0.75
11.588797 9.174167 7.0494895 1.6742084 2.051158 -0.23229805 0.625 0.5
11.08515 8.577887 5.4537845 2.0999784 -1.5568353 -0.48014578 0.625 0.75
10.77336 8.642366 10.979229 1.731977 -1.981123 0.3736231 0.625 0.75
10.537268 8.6585455 10.905401 -1.8941513 -1.7306751 -0.69364244 0.625 1
11.249405 8.998057 9.289363 1.520068 2.1278152 0.47537518 0.625 0.5
11.322068 8.772438 7.251934 -1.3537999 -2.2712865 0.2695728 0.625 0
11.014628 8.964039 9.3612995 -2.100459 1.593881 -0.33436534 0.625 0.25
10.774581 8.885299 11.028565 1.8506023 1.7799505 0.68646485 0.625 0.5
10.385997 8.500429 12.3146105 1.0089376 -1.8247626 1.6481725 0.625 0.75
10.537268 8.6585455 10.905401 -1.8941513 -1.7306751 -0.69364244 0.625 0
10.538488 8.901478 10.95474 -1.7103729 2.0026748 -0.35791534 0.625 0.25
10.151124 8.7595415 12.290119 -1.8744234 1.3982085 1.2632241 0.875 0.5
10.3872175 8.743361 12.363947 1.0360361 1.1972888 2.1347868 0.625 0.5
10.149903 8.516608 12.240782 -1.9505354 -1.6362587 0.76305604 0.625 0
10.151124 8.7595415 12.290119 -1.8744234 1.3982085 1.2632241 0.625 0.25
10.149903 8.516608 12.240782 -1.9505354 -1.6362587 0.76305604 0.625 1
9.034768 7.843337 2.6305609 -1.7841585 -1.7695922 -0.86574143 0.375 1
9.911187 7.875984 2.3576012 1.237734 -1.628365 -1.6972412 0.375 0.75
8.9569 8.747488 2.488679 -1.9664437 1.3343117 -1.1903348 0.375 0.25
9.034768 7.843337 2.6305609 -1.7841585 -1.7695922 -0.86574143 0.375 0
10.292734 9.098395 11.31994 -1.7953924e-05 2.326363 -1.2853878 0.6923077 0.3333333
10.380159 8.939133 11.182225 0.65295213 1.2440965 -2.256117 0.61538464 0.16666669
10.292734 8.960681 11.182225 -4.575215e-06 1.4050298 -2.25612 0.6923077 0.16666669
10.292734 9.148803 11.508061 5.335315e-06 2.6578536 -1.3966794e-08 0.6923077 0.5
10.444159 9.061073 11.696183 1.0811064 2.0598965 1.285388 0.61538464 0.6666666
10.467584 9.105706 11.508061 1.2351713 2.3534095 -4.8883773e-08 0.61538464 0.5
10.292734 8.960681 11.833898 4.662554e-06 1.4050297 2.25612 0.6923077 0.8333334
10.292734 8.772559 11.884305 -2.8791053e-08 2.3710278e-08 2.6578536 0.65384614 1
10.380159 8.939133 11.833898 0.65295386 1.2440897 2.25612 0.61538464 0.8333333
10.292734 8.772559 11.131818 2.7944253e-08 1.0161547e-07 -2.6578536 0.65384614 0
10.444159 9.061073 11.31994 1.0811011 2.0598955 -1.2853938 0.61538464 0.3333333
10.292734 9.098395 11.696183 -9.598443e-06 2.3263626 1.2853878 0.6923077 0.66666675
10.292734 8.772559 11.131818 2.7944253e-08 1.0161547e-07 -2.6578536 0.5769231 0
10.447556 8.879424 11.182225 1.1563125 0.7981449 -2.256123 0.53846157 0.16666669
10.560892 8.957655 11.31994 1.914554 1.3215376 -1.2853822 0.53846157 0.3333333
10.560892 8.957655 11.696183 1.9145539 1.3215325 1.2853878 0.53846157 0.6666666
10.602377 8.98629 11.508061 2.1873739 1.5098282 0 0.53846157 0.5
10.292734 8.772559 11.884305 -2.8791053e-08 2.3710278e-08 2.6578536 0.5769231 1
10.447556 8.879424 11.833898 1.1563194 0.7981439 2.25612 0.53846157 0.8333333
10.292734 8.772559 11.131818 2.7944253e-08 1.0161547e-07 -2.6578536 0.5 0
10.479485 8.795235 11.182225 1.3947905 0.16935818 -2.2561169 0.4615385 0.16666669
10.616196 8.811834 11.31994 2.3093963 0.28042495 -1.2853934 0.4615385 0.3333333
10.616196 8.811834 11.696183 2.3094 0.28042135 1.2853878 0.4615385 0.6666666
10.666235 8.81791 11.508061 2.6384754 0.320363 -2.793358e-08 0.4615385 0.5
10.292734 8.772559 11.884305 -2.8791053e-08 2.3710278e-08 2.6578536 0.5 1
10.479485 8.795235 11.833898 1.3947858 0.16935289 2.25612 0.4615385 0.8333333
10.292734 8.772559 11.131818 2.7944253e-08 1.0161547e-07 -2.6578536 0.42307693 0
10.468632 8.705851 11.182225 1.3137236 -0.49823484 -2.2561202 0.3846154 0.16666669
10.597397 8.657016 11.31994 2.1751904 -0.82493085 -1.2853878 0.38461542 0.3333333
10.597397 8.657016 11.696183 2.1751916 -0.82494575 1.2853757 0.38461542 0.66666675
10.644528 8.639141 11.508061 2.4851353 -0.94249094 -3.156509e-06 0.3846154 0.5
10.292734 8.772559 11.884305 -2.8791053e-08 2.3710278e-08 2.6578536 0.42307693 1
10.468632 8.705851 11.833898 1.313724 -0.49823475 2.25612 0.3846154 0.8333333
10.508804 8.528667 11.31994 1.542671 -1.7413013 -1.2853875 0.30769235 0.3333333
10.508804 8.528667 11.696183 1.5426567 -1.7413055 1.2853993 0.30769235 0.66666675
10.417482 8.631748 11.182225 0.93170345 -1.0516832 -2.25612 0.30769232 0.16666669
10.54223 8.490937 11.508061 1.7624806 -1.9894342 3.2193313e-06 0.30769232 0.5
10.292734 8.772559 11.884305 -2.8791053e-08 2.3710278e-08 2.6578536 0.34615386 1
10.417482 8.631748 11.833898 0.9317034 -1.0516831 2.25612 0.30769232 0.8333334
10.292734 8.772559 11.131818 2.7944253e-08 1.0161547e-07 -2.6578536 0.34615386 0
10.370712 8.456191 11.696183 0.5567442 -2.258761 1.2853875 0.23076928 0.6666666
10.370712 8.456191 11.31994 0.55674905 -2.258763 -1.2853819 0.23076928 0.3333333
10.337755 8.589904 11.182225 0.3362454 -1.3641974 -2.2561226 0.23076925 0.16666669
10.382775 8.4072485 11.508061 0.63606006 -2.5806224 -2.793358e-08 0.23076925 0.5
10.292734 8.772559 11.884305 -2.8791053e-08 2.3710278e-08 2.6578536 0.26923078 1
10.337755 8.589904 11.833898 0.336241 -1.3642031 2.25612 0.23076925 0.8333334
10.292734 8.772559 11.131818 2.7944253e-08 1.0161547e-07 -2.6578536 0.26923078 0
10.247714 8.589904 11.182225 -0.33624208 -1.3642031 -2.25612 0.15384617 0.16666669
10.214757 8.456191 11.696183 -0.55674076 -2.2587686 1.2853757 0.1538462 0.66666675
10.202694 8.4072485 11.508061 -0.6360691 -2.5806205 -2.912089e-06 0.15384617 0.5
10.292734 8.772559 11.884305 -2.8791053e-08 2.3710278e-08 2.6578536 0.19230771 1
10.247714 8.589904 11.833898 -0.3362502 -1.3642006 2.2561202 0.15384617 0.8333334
10.292734 8.772559 11.131818 2.7944253e-08 1.0161547e-07 -2.6578536 0.19230771 0
10.214757 8.456191 11.31994 -0.5567182 -2.2587671 -1.2853878 0.1538462 0.3333333
10.167987 8.631748 11.182225 -0.93170375 -1.0516824 -2.2561202 0.0769231 0.16666669
10.043239 8.490937 11.508061 -1.7624834 -1.9894316 3.6313656e-07 0.0769231 0.5
10.292734 8.772559 11.884305 -2.8791053e-08 2.3710278e-08 2.6578536 0.11538464 1
10.167987 8.631748 11.833898 -0.93171054 -1.0516762 2.2561204 0.0769231 0.8333334
10.292734 8.772559 11.131818 2.7944253e-08 1.0161547e-07 -2.6578536 0.11538464 0
10.076665 8.528667 11.31994 -1.542651 -1.7413192 -1.2853878 0.0769231 0.3333333
10.076665 8.528667 11.696183 -1.5426772 -1.7412964 1.2853873 0.0769231 0.66666675
10.1168375 8.705851 11.182225 -1.3137299 -0.4982321 -2.256117 0 0.16666669
9.940941 8.639141 11.508061 -2.4851363 -0.94248766 1.04750924e-07 0 0.5
10.292734 8.772559 11.884305 -2.8791053e-08 2.3710278e-08 2.6578536 0.038461566 1
10.1168375 8.705851 11.833898 -1.3137274 -0.4982259 2.25612 0 0.8333334
10.292734 8.772559 11.131818 2.7944253e-08 1.0161547e-07 -2.6578536 0.038461566 0
9.988072 8.657016 11.31994 -2.1751797 -0.82495105 -1.285393 2.9802322e-08 0.3333333
9.988072 8.657016 11.696183 -2.1751935 -0.82492316 1.2853873 2.9802322e-08 0.66666675
10.1168375 8.705851 11.182225 -1.3137299 -0.4982321 -2.256117 1 0.16666669
9.969274 8.811834 11.31994 -2.309406 0.28039905 -1.285382 0.9230769 0.3333333
10.105985 8.795235 11.182225 -1.3947803 0.16935702 -2.256123 0.9230769 0.16666669
9.988072 8.657016 11.696183 -2.1751935 -0.82492316 1.2853873 1 0.66666675
9.919234 8.81791 11.508061 -2.638475 0.3203691 -5.5867165e-08 0.9230769 0.5
9.940941 8.639141 11.508061 -2.4851363 -0.94248766 1.04750924e-07 1 0.5
10.1168375 8.705851 11.833898 -1.3137274 -0.4982259 2.25612 1 0.8333334
10.292734 8.772559 11.884305 -2.8791053e-08 2.3710278e-08 2.6578536 0.96153855 1
10.105985 8.795235 11.833898 -1.3947843 0.16936222 2.2561202 0.9230769 0.8333334
10.292734 8.772559 11.131818 2.7944253e-08 1.0161547e-07 -2.6578536 0.96153855 0
9.988072 8.657016 11.31994 -2.1751797 -0.82495105 -1.285393 1 0.3333333
9.969274 8.811834 11.696183 -2.3093991 0.28042984 1.2853874 0.9230769 0.66666675
9.983092 8.98629 11.508061 -2.1873705 1.5098331 -2.793358e-08 0.84615386 0.5
10.292734 8.772559 11.884305 -2.8791053e-08 2.3710278e-08 2.6578536 0.8846154 1
10.137914 8.879424 11.833898 -1.1563127 0.79814506 2.256123 0.84615386 0.8333334
10.292734 8.772559 11.131818 2.7944253e-08 1.0161547e-07 -2.6578536 0.8846154 0
10.137914 8.879424 11.182225 -1.1563191 0.79814434 -2.2561202 0.84615386 0.16666669
10.024576 8.957655 11.31994 -1.9145689 1.3215102 -1.2853875 0.84615386 0.3333333
10.024576 8.957655 11.696183 -1.9145542 1.3215375 1.2853819 0.84615386 0.66666675
10.292734 8.772559 11.884305 -2.8791053e-08 2.3710278e-08 2.6578536 0.8076923 1
10.20531 8.939133 11.833898 -0.6529523 1.2440966 2.2561166 0.7692307 0.8333334
10.292734 8.772559 11.131818 2.7944253e-08 1.0161547e-07 -2.6578536 0.8076923 0
10.20531 8.939133 11.182225 -0.6529541 1.2440898 -2.25612 0.7692307 0.16666669
10.141311 9.061073 11.31994 -1.0811304 2.0598838 -1.2853875 0.7692308 0.3333333
10.141311 9.061073 11.696183 -1.0811105 2.0598834 1.285405 0.7692308 0.66666675
10.117886 9.105706 11.508061 -1.235164 2.3534138 3.100614e-06 0.7692307 0.5
10.292734 8.772559 11.131818 2.7944253e-08 1.0161547e-07 -2.6578536 0.7307692 0
10.292734 8.772559 11.884305 -2.8791053e-08 2.3710278e-08 2.6578536 0.7307692 1
10.426473 8.721844 11.312922 -1.7484359e-05 2.3263626 -1.2853878 0.6923077 0.3333333
10.513898 8.562581 11.175206 0.6529452 1.2440944 -2.2561202 0.61538464 0.16666669
10.426473 8.584129 11.175206 -4.8372317e-06 1.4050299 -2.25612 0.6923077 0.16666669
10.426473 8.721844 11.689165 -2.4858983e-07 2.3263726 1.2853701 0.6923077 0.66666675
10.601322 8.729155 11.501043 1.2351662 2.3534122 -2.7933579e-08 0.61538464 0.5
10.426473 8.772251 11.501043 2.6537023e-06 2.6578536 -3.0727078e-06 0.6923077 0.5
10.426473 8.584129 11.8268795 1.3436884e-08 1.4050242 2.256123 0.6923077 0.8333334
10.426473 8.396008 11.877287 -1.016155e-08 4.06462e-08 2.6578536 0.65384614 1
10.513898 8.562581 11.8268795 0.652952 1.2440963 2.256117 0.61538464 0.8333333
10.426473 8.396008 11.1248 -1.2701932e-07 -3.7259e-08 -2.6578536 0.65384614 0
10.577897 8.684521 11.312922 1.0810992 2.0599 -1.2853878 0.61538464 0.3333333
10.577897 8.684521 11.689165 1.0811249 2.059883 1.2853934 0.61538464 0.6666666
10.426473 8.396008 11.1248 -1.2701932e-07 -3.7259e-08 -2.6578536 0.5769231 0
10.581294 8.502872 11.175206 1.1563206 0.79815066 -2.256117 0.53846157 0.16666669
10.694631 8.581103 11.312922 1.9145488 1.321534 -1.2853935 0.53846157 0.3333333
10.694631 8.581103 11.689165 1.9145564 1.3215226 1.285394 0.53846157 0.6666666
10.736115 8.609737 11.501043 2.1873724 1.5098304 3.0098306e-06 0.53846157 0.5
10.426473 8.396008 11.877287 -1.016155e-08 4.06462e-08 2.6578536 0.5769231 1
10.581294 8.502872 11.8268795 1.1563131 0.7981448 2.256123 0.53846157 0.8333333
10.426473 8.396008 11.1248 -1.2701932e-07 -3.7259e-08 -2.6578536 0.5 0
10.613223 8.418683 11.175206 1.3947799 0.16935684 -2.2561235 0.4615385 0.16666669
10.749933 8.435283 11.312922 2.3094108 0.28041333 -1.2853699 0.4615385 0.3333333
10.613223 8.418683 11.8268795 1.3947905 0.16935815 2.2561169 0.4615385 0.8333333
10.749933 8.435283 11.689165 2.3094046 0.28041258 1.2853813 0.4615385 0.6666666
10.7999735 8.441359 11.501043 2.638475 0.32036898 0 0.4615385 0.5
10.426473 8.396008 11.877287 -1.016155e-08 4.06462e-08 2.6578536 0.5 1
10.426473 8.396008 11.1248 -1.2701932e-07 -3.7259e-08 -2.6578536 0.42307693 0
10.60237 8.329298 11.175206 1.313726 -0.49822578 -2.256121 0.3846154 0.16666669
10.778267 8.262589 11.501043 2.4851372 -0.9424852 -3.1634645e-06 0.3846154 0.5
10.731135 8.280464 11.312922 2.1751823 -0.8249339 -1.2853992 0.38461542 0.3333333
10.731135 8.280464 11.689165 2.1751854 -0.82495356 1.2853819 0.38461542 0.66666675
10.426473 8.396008 11.877287 -1.016155e-08 4.06462e-08 2.6578536 0.42307693 1
10.60237 8.329298 11.8268795 1.3137197 -0.4982281 2.256124 0.3846154 0.8333333
10.642543 8.152115 11.312922 1.5426769 -1.7412959 -1.2853878 0.30769235 0.3333333
10.551221 8.255196 11.8268795 0.9317104 -1.0516834 2.256117 0.30769232 0.8333334
10.642543 8.152115 11.689165 1.5426521 -1.7413142 1.2853928 0.30769235 0.66666675
10.551221 8.255196 11.175206 0.9317104 -1.0516771 -2.25612 0.30769232 0.16666669
10.675968 8.114385 11.501043 1.7624824 -1.9894323 -1.7458491e-07 0.30769232 0.5
10.426473 8.396008 11.877287 -1.016155e-08 4.06462e-08 2.6578536 0.34615386 1
10.426473 8.396008 11.1248 -1.2701932e-07 -3.7259e-08 -2.6578536 0.34615386 0
10.504451 8.079639 11.689165 0.5567185 -2.2587671 1.2853875 0.23076928 0.6666666
10.471494 8.213352 11.175206 0.33624944 -1.3642013 -2.25612 0.23076925 0.16666669
10.516514 8.030697 11.501043 0.63606566 -2.5806212 3.4218635e-07 0.23076925 0.5
10.426473 8.396008 11.877287 -1.016155e-08 4.06462e-08 2.6578536 0.26923078 1
10.471494 8.213352 11.8268795 0.33624086 -1.3642033 2.25612 0.23076925 0.8333334
10.426473 8.396008 11.1248 -1.2701932e-07 -3.7259e-08 -2.6578536 0.26923078 0
10.504451 8.079639 11.312922 0.55675167 -2.258759 -1.2853873 0.23076928 0.3333333
10.381453 8.213352 11.175206 -0.33624116 -1.3642031 -2.2561204 0.15384617 0.16666669
10.3364315 8.030697 11.501043 -0.6360693 -2.5806205 2.3743441e-06 0.15384617 0.5
10.426473 8.396008 11.877287 -1.016155e-08 4.06462e-08 2.6578536 0.19230771 1
10.381453 8.213352 11.8268795 -0.3362447 -1.3641974 2.256123 0.15384617 0.8333334
10.426473 8.396008 11.1248 -1.2701932e-07 -3.7259e-08 -2.6578536 0.19230771 0
10.3484955 8.079639 11.312922 -0.5567181 -2.2587671 -1.2853875 0.1538462 0.3333333
10.3484955 8.079639 11.689165 -0.5567345 -2.25876 1.2853932 0.1538462 0.66666675
10.301725 8.255196 11.175206 -0.9317101 -1.0516837 -2.256117 0.0769231 0.16666669
10.210403 8.152115 11.689165 -1.5426667 -1.7413105 1.2853807 0.0769231 0.66666675
10.176977 8.114385 11.501043 -1.7624855 -1.9894298 -3.5056794e-06 0.0769231 0.5
10.426473 8.396008 11.877287 -1.016155e-08 4.06462e-08 2.6578536 0.11538464 1
10.301725 8.255196 11.8268795 -0.93171024 -1.0516835 2.256117 0.0769231 0.8333334
10.426473 8.396008 11.1248 -1.2701932e-07 -3.7259e-08 -2.6578536 0.11538464 0
10.210403 8.152115 11.312922 -1.5426518 -1.7413143 -1.285393 0.0769231 0.3333333
10.121811 8.280464 11.312922 -2.1751842 -0.8249485 -1.2853872 2.9802322e-08 0.3333333
10.250576 8.329298 11.175206 -1.3137267 -0.4982253 -2.2561204 0 0.16666669
10.074679 8.262589 11.501043 -2.4851365 -0.9424873 2.3743542e-07 0 0.5
10.426473 8.396008 11.877287 -1.016155e-08 4.06462e-08 2.6578536 0.038461566 1
10.250576 8.329298 11.8268795 -1.313727 -0.4982252 2.2561204 0 0.8333334
10.426473 8.396008 11.1248 -1.2701932e-07 -3.7259e-08 -2.6578536 0.038461566 0
10.121811 8.280464 11.689165 -2.1751933 -0.82492346 1.2853875 2.9802322e-08 0.66666675
10.250576 8.329298 11.175206 -1.3137267 -0.4982253 -2.2561204 1 0.16666669
10.103012 8.435283 11.312922 -2.3094025 0.28040254 -1.2853872 0.9230769 0.3333333
10.239723 8.418683 11.175206 -1.3947847 0.1693623 -2.2561202 0.9230769 0.16666669
10.121811 8.280464 11.689165 -2.1751933 -0.82492346 1.2853875 1 0.66666675
10.052973 8.441359 11.501043 -2.638475 0.32036906 -1.4665129e-07 0.9230769 0.5
10.074679 8.262589 11.501043 -2.4851365 -0.9424873 2.3743542e-07 1 0.5
10.250576 8.329298 11.8268795 -1.313727 -0.4982252 2.2561204 1 0.8333334
10.426473 8.396008 11.877287 -1.016155e-08 4.06462e-08 2.6578536 0.96153855 1
10.239723 8.418683 11.8268795 -1.3947848 0.1693623 2.25612 0.9230769 0.8333334
10.426473 8.396008 11.1248 -1.2701932e-07 -3.7259e-08 -2.6578536 0.96153855 0
10.121811 8.280464 11.312922 -2.1751842 -0.8249485 -1.2853872 1 0.3333333
10.103012 8.435283 11.689165 -2.3093991 0.28042942 1.2853875 0.9230769 0.66666675
10.116831 8.609737 11.501043 -2.187369 1.5098354 2.912063e-06 0.84615386 0.5
10.426473 8.396008 11.877287 -1.016155e-08 4.06462e-08 2.6578536 0.8846154 1
10.271652 8.502872 11.8268795 -1.1563141 0.79815143 2.2561202 0.84615386 0.8333334
10.426473 8.396008 11.1248 -1.2701932e-07 -3.7259e-08 -2.6578536 0.8846154 0
10.271652 8.502872 11.175206 -1.1563119 0.79814506 -2.2561235 0.84615386 0.16666669
10.158315 8.581103 11.312922 -1.9145695 1.3215151 -1.285382 0.84615386 0.3333333
10.158315 8.581103 11.689165 -1.9145515 1.321524 1.2853996 0.84615386 0.66666675
10.426473 8.396008 11.877287 -1.016155e-08 4.06462e-08 2.6578536 0.8076923 1
10.339048 8.562581 11.8268795 -0.6529458 1.244094 2.25612 0.7692307 0.8333334
10.426473 8.396008 11.1248 -1.2701932e-07 -3.7259e-08 -2.6578536 0.8076923 0
10.339048 8.562581 11.175206 -0.652954 1.2440901 -2.25612 0.7692307 0.16666669
10.275049 8.684521 11.312922 -1.0811304 2.059884 -1.2853875 0.7692308 0.3333333
10.275049 8.684521 11.689165 -1.0811232 2.0598876 1.2853874 0.7692308 0.66666675
10.251624 8.729155 11.501043 -1.2351612 2.353415 -5.5867165e-08 0.7692307 0.5
10.426473 8.396008 11.1248 -1.2701932e-07 -3.7259e-08 -2.6578536 0.7307692 0
10.426473 8.396008 11.877287 -1.016155e-08 4.06462e-08 2.6578536 0.7307692 1
11.061231 8.723609 9.3996935 -1.383791 -2.2253695 -0.44389012 0.625 0
10.149903 8.516608 12.240782 -1.9505354 -1.6362587 0.76305604 0.875 0.75
3 0 1 2
3 3 4 5
3 6 7 8
3 9 2 1
3 5 10 0
3 6 11 3
3 12 1 13
3 4 14 10
3 11 15 16
3 10 13 1
3 11 17 4
3 8 18 15
3 19 13 20
3 17 21 14
3 15 22 16
3 14 20 13
3 16 23 17
3 15 24 25
3 26 20 27
3 23 28 21
3 25 29 22
3 21 27 20
3 22 30 23
3 25 31 32
3 30 33 28
3 32 34 29
3 27 33 35
3 29 36 30
3 32 37 38
3 39 27 35
3 38 40 34
3 35 41 42
3 36 40 43
3 38 44 45
3 46 35 42
3 36 41 33
3 42 47 48
3 43 49 50
3 45 51 52
3 53 42 48
3 43 47 41
3 45 49 40
3 48 54 55
3 50 56 57
3 52 58 59
3 60 48 55
3 50 54 47
3 52 56 49
3 55 61 62
3 56 63 57
3 59 64 65
3 66 55 62
3 57 61 54
3 59 67 56
3 68 69 70
3 71 72 73
3 74 75 76
3 77 68 70
3 71 69 78
3 74 72 79
3 73 80 81
3 76 82 83
3 84 70 85
3 73 86 69
3 76 80 72
3 69 85 70
3 83 87 88
3 89 85 90
3 81 91 86
3 83 92 80
3 85 91 90
3 81 92 93
3 94 90 2
3 93 0 91
3 88 3 92
3 91 2 90
3 92 5 93
3 88 95 6
3 96 97 98
3 97 99 98
3 100 101 99
3 101 102 103
3 104 105 106
3 107 108 97
3 109 110 111
3 102 112 109
3 97 113 100
3 114 113 112
3 111 115 116
3 108 117 113
3 112 117 110
3 118 119 108
3 120 121 115
3 119 120 117
3 110 120 115
3 119 122 123
3 124 121 125
3 123 126 127
3 115 128 116
3 120 127 125
3 101 129 130
3 99 130 104
3 131 99 104
3 132 98 131
3 133 134 135
3 136 137 138
3 139 140 141
3 142 135 134
3 136 143 133
3 139 137 144
3 145 134 146
3 138 147 143
3 141 148 137
3 134 147 146
3 138 148 149
3 141 150 151
3 152 146 153
3 149 154 147
3 151 155 148
3 147 153 146
3 149 155 156
3 151 157 158
3 159 153 160
3 156 161 154
3 158 162 155
3 153 161 160
3 156 162 163
3 158 164 165
3 163 166 161
3 165 167 162
3 160 166 168
3 162 169 163
3 165 170 171
3 172 160 168
3 171 173 167
3 168 174 175
3 169 173 176
3 171 177 178
3 179 168 175
3 169 174 166
3 174 180 175
3 176 181 182
3 178 183 184
3 185 175 180
3 176 186 174
3 178 181 173
3 186 187 180
3 181 188 182
3 184 189 190
3 191 180 187
3 182 192 186
3 184 193 181
3 192 194 187
3 193 195 188
3 190 196 197
3 198 187 194
3 188 199 192
3 190 200 193
3 201 202 203
3 204 205 206
3 207 208 209
3 210 201 203
3 206 202 211
3 207 212 204
3 212 213 205
3 209 214 215
3 216 203 217
3 205 218 202
3 209 219 212
3 202 217 203
3 215 220 221
3 222 217 223
3 213 224 218
3 219 221 225
3 218 223 217
3 219 226 213
3 227 223 135
3 226 133 224
3 221 144 225
3 224 135 223
3 226 144 136
3 221 228 139
3 229 230 231
3 232 233 234
3 235 236 237
3 238 231 230
3 234 239 229
3 232 237 240
3 241 230 242
3 233 243 239
3 237 244 240
3 239 242 230
3 240 245 233
3 237 246 247
3 248 242 249
3 245 250 243
3 244 251 252
3 242 250 249
3 245 252 253
3 247 254 251
3 255 249 256
3 250 257 258
3 251 259 252
3 250 256 249
3 252 257 253
3 251 260 261
3 257 262 258
3 259 263 264
3 258 265 256
3 259 266 257
3 261 267 263
3 268 256 265
3 263 269 264
3 262 270 265
3 264 271 266
3 263 272 273
3 274 265 270
3 266 275 262
3 275 276 270
3 269 277 271
3 273 278 279
3 280 270 276
3 271 281 275
3 273 282 269
3 281 283 276
3 277 284 285
3 279 286 287
3 288 276 283
3 277 289 281
3 282 287 284
3 283 290 291
3 284 292 285
3 287 293 294
3 295 283 291
3 285 290 289
3 287 296 284
3 297 298 299
3 300 301 302
3 303 304 305
3 306 297 299
3 302 298 307
3 303 308 300
3 308 309 301
3 305 310 311
3 312 299 313
3 301 314 298
3 305 315 308
3 299 314 313
3 311 316 317
3 318 313 319
3 309 320 314
3 311 321 315
3 314 319 313
3 309 321 322
3 323 319 231
3 322 229 320
3 317 232 321
3 320 231 319
3 322 232 234
3 317 324 235
3 0 10 1
3 3 11 4
3 5 4 10
3 6 8 11
3 4 17 14
3 11 8 15
3 10 14 13
3 11 16 17
3 17 23 21
3 15 25 22
3 14 21 20
3 16 22 23
3 23 30 28
3 25 32 29
3 21 28 27
3 22 29 30
3 30 36 33
3 32 38 34
3 27 28 33
3 29 34 36
3 38 45 40
3 35 33 41
3 36 34 40
3 36 43 41
3 42 41 47
3 43 40 49
3 43 50 47
3 45 52 49
3 48 47 54
3 50 49 56
3 50 57 54
3 52 59 56
3 55 54 61
3 56 67 63
3 57 63 61
3 59 65 67
3 68 78 69
3 71 79 72
3 71 73 69
3 74 76 72
3 73 72 80
3 73 81 86
3 76 83 80
3 69 86 85
3 81 93 91
3 83 88 92
3 85 86 91
3 81 80 92
3 93 5 0
3 88 6 3
3 91 0 2
3 92 3 5
3 96 107 97
3 97 100 99
3 100 114 101
3 101 114 102
3 104 130 105
3 107 118 108
3 109 112 110
3 102 114 112
3 97 108 113
3 114 100 113
3 111 110 115
3 108 119 117
3 112 113 117
3 118 325 119
3 120 125 121
3 119 123 120
3 110 117 120
3 119 325 122
3 124 326 121
3 123 122 126
3 115 121 128
3 120 123 127
3 101 103 129
3 99 101 130
3 131 98 99
3 132 96 98
3 133 143 134
3 136 144 137
3 136 138 143
3 139 141 137
3 138 149 147
3 141 151 148
3 134 143 147
3 138 137 148
3 149 156 154
3 151 158 155
3 147 154 153
3 149 148 155
3 156 163 161
3 158 165 162
3 153 154 161
3 156 155 162
3 163 169 166
3 165 171 167
3 160 161 166
3 162 167 169
3 171 178 173
3 168 166 174
3 169 167 173
3 169 176 174
3 174 186 180
3 176 173 181
3 176 182 186
3 178 184 181
3 186 192 187
3 181 193 188
3 182 188 192
3 184 190 193
3 192 199 194
3 193 200 195
3 188 195 199
3 190 197 200
3 201 211 202
3 204 212 205
3 206 205 202
3 207 209 212
3 212 219 213
3 205 213 218
3 209 215 219
3 202 218 217
3 213 226 224
3 219 215 221
3 218 224 223
3 219 225 226
3 226 136 133
3 221 139 144
3 224 133 135
3 226 225 144
3 229 239 230
3 232 240 233
3 234 233 239
3 232 235 237
3 233 245 243
3 237 247 244
3 239 243 242
3 240 244 245
3 245 253 250
3 244 247 251
3 242 243 250
3 245 244 252
3 250 253 257
3 251 261 259
3 250 258 256
3 252 259 257
3 257 266 262
3 259 261 263
3 258 262 265
3 259 264 266
3 263 273 269
3 262 275 270
3 264 269 271
3 266 271 275
3 275 281 276
3 269 282 277
3 271 277 281
3 273 279 282
3 281 289 283
3 277 282 284
3 277 285 289
3 282 279 287
3 283 289 290
3 284 296 292
3 285 292 290
3 287 294 296
3 297 307 298
3 300 308 301
3 302 301 298
3 303 305 308
3 308 315 309
3 301 309 314
3 305 311 315
3 299 298 314
3 309 322 320
3 311 317 321
3 314 320 319
3 309 315 321
3 322 234 229
3 317 235 232
3 320 229 231
3 322 321 232
