ply
format ascii 1.0
comment Created in Blender version 4.1.1
element vertex 14
property float x
property float y
property float z
property float nx
property float ny
property float nz
property float s
property float t
element face 12
property list uchar uint vertex_indices
end_header
-2.1697094 -2.1697094 6.0670614 -0.26610565 -0.26609057 0.26609057 0.625 0
-2.1697094 2.1697094 1.7276427 -0.26610565 0.26609057 -0.26609057 0.375 0.25
-2.1697094 -2.1697094 1.7276427 -0.26608557 -0.26610065 -0.26610065 0.375 0
-2.1697094 2.1697094 6.0670614 -0.26608557 0.26610065 0.26610065 0.625 0.25
2.1697094 2.1697094 1.7276427 0.26608557 0.26610065 -0.26610065 0.375 0.5
2.1697094 2.1697094 6.0670614 0.26610565 0.26609057 0.26609057 0.625 0.5
2.1697094 -2.1697094 1.7276427 0.26610565 -0.26609057 -0.26609057 0.375 0.75
2.1697094 -2.1697094 6.0670614 0.26608557 -0.26610065 0.26610065 0.625 0.75
-2.1697094 -2.1697094 1.7276427 -0.26608557 -0.26610065 -0.26610065 0.375 1
-2.1697094 -2.1697094 1.7276427 -0.26608557 -0.26610065 -0.26610065 0.125 0.75
-2.1697094 2.1697094 1.7276427 -0.26610565 0.26609057 -0.26609057 0.125 0.5
-2.1697094 2.1697094 6.0670614 -0.26608557 0.26610065 0.26610065 0.875 0.5
-2.1697094 -2.1697094 6.0670614 -0.26610565 -0.26609057 0.26609057 0.625 1
-2.1697094 -2.1697094 6.0670614 -0.26610565 -0.26609057 0.26609057 0.875 0.75
3 0 1 2
3 3 4 1
3 5 6 4
3 7 8 6
3 4 9 10
3 11 7 5
3 0 3 1
3 3 5 4
3 5 7 6
3 7 12 8
3 4 6 9
3 11 13 7
